<?xml version="1.0" encoding="utf-8"?>
<!-- Generator: Adobe Illustrator 20.1.0, SVG Export Plug-In . SVG Version: 6.00 Build 0)  -->
<svg version="1.1" id="Layer_1" xmlns="http://www.w3.org/2000/svg" xmlns:xlink="http://www.w3.org/1999/xlink" x="0px" y="0px"
	 viewBox="0 0 623.6 210" style="enable-background:new 0 0 623.6 210;" xml:space="preserve">
<style type="text/css">
	.st0{fill:#FFFFFF;}
	.st1{fill:#FFFFFF;stroke:#FFFFFF;stroke-width:5;stroke-miterlimit:10;}
</style>
<g>
	<path class="st0" d="M65.9,3.8c1.5-0.8,3.1-1.6,4.8-2.1c2.5-0.7,4.9-1.3,7.4-1.5c2.5-0.3,4.9-0.2,7.4,0c5.9,0.3,11.7,1.3,16.5,4.9
		c4,2.8,7.3,6.4,9.9,10.7c2.3,3.5,4,7.4,5.3,11.4c0.3,1,0.7,2,0.7,3c-0.2,0.8-0.8,1.8-1.5,2.6c-1.8,2.3-4.3,3.3-7.1,3.3
		c-3.8,0.2-7.6,0-11.2-1.3c-2.3-0.8-4.5-2.1-6.1-4c-3.1-3-6.1-5.9-9.6-8.7c-1.8-1.5-4-2.3-6.4-1.5c-1.6,0.5-2.8,1.6-3.8,3.1
		c0.7-0.3,1.3-0.8,2-1.2c2-1,4-0.8,5.8,0.7c1.5,1.3,2.8,2.8,4.1,4.3c2.8,2.8,5.1,5.9,8.2,8.1c4.3,3.3,9.2,4,14.3,3.3
		c1.3-0.2,2.6-0.3,4-0.7c3.5-0.7,5.6-2.8,6.9-6.1c0.3,1.3-1.3,4.3-4.3,6.1c0.3,1.2,0.7,2.3,0.8,3.3c1.3-0.3,2.6-0.8,4-1
		c2-0.3,3.1,0.8,3.6,2.5c0.7,2.1,1.2,4.5,0.7,6.8c-0.3,1.6-0.3,3.5-0.5,5.1c-0.5,3.1-1,6.3-1.6,9.4c-2.3,9.7-5.1,19.3-8.4,28.5
		c-1.3,3.8-2.8,7.7-4.5,11.4c-1.3,2.6-3.3,4.9-5.1,7.4c-2.5,3.3-5.1,6.3-7.7,9.4c-1.3,1.6-2.8,3.3-4.3,5.1
		c6.6-13.5,7.9-27.9,7.7-42.2c-0.3,2.3-0.5,4.8-0.8,7.1c-0.5,3.8-0.8,7.6-1.5,11.4c-1,5.9-2,11.7-4,17.5c-1,2.8-2.3,5.4-3.5,8.1
		c-1.2,2.3-2.8,4.5-3.3,7.1c-0.7,2.5-0.3,5.1-0.5,7.7c0,0.7,0.5,1.2,1.3,1.5c1.3,0.5,2.8,1.2,4.1,1.8c0.8,0.3,1.5,0.3,2.3,0
		c5.4-2.5,10.9-4.9,16.6-6.4c0.2,0,0.3-0.2,0.7-0.2c2.3,0.2,3.8-1.2,5.3-2.6c4.8-4.6,8.6-10.1,11.2-16.2c2-4.5,3.3-9.1,4-13.7
		c0.7-4,1.2-8.1,1.2-12.2c0-2.6,0.2-5.3,0.2-7.9c0-23.1,0-46,0-69.2c0-0.5,0-0.8,0-1.5c-0.7,0-1.2,0-1.6,0c-2.8,0-5.4,0-8.1,0
		c-2,0-4.3-0.2-6.3-0.3c-0.3,0-0.8-0.3-1-0.7c-1.3-2.5-3-4.9-5.1-6.9c0,0,0-0.2,0-0.3c10.1,0.2,19.9,0.3,30,0.5c0,0.3,0,0.8,0,1.3
		c0,28.5,0,57.2-0.2,85.7c0,3.8-0.7,7.6-1.2,11.2c-0.5,4.6-1.8,9.2-3.5,13.7c-2,5.6-4.8,10.9-8.6,15.5c-2,2.3-4.1,4.6-6.3,6.9
		c-1.3,1.3-3,2.5-4.5,3.8c0.7,1.8,1.3,3.8,2.5,5.6c1.8,2.3,2.5,5.1,2.8,8.1c0.3,3.6-0.3,7.1-2,10.2c-1,1.8-2.3,3.5-3.8,5.1
		c1.5-9.1-1.3-16.8-6.3-24.2c-0.8,0.5-1.8,1.2-2.5,1.5c0.7,2.6,1.3,5.1,1.8,7.6c0.3,1.5,0.3,3,0.2,4.5c-0.3,2.5-0.7,4.9-1.3,7.4
		c-0.8,3-3.3,4.6-6.6,4.9c0.7-1.3,1.3-2.6,2-4c1.3-2.5,2.5-4.9,2.8-7.6c0.2-1,0-2-0.3-2.8c-0.7-2-6.8-11.9-8.2-13.4
		c-1.2,0.7-2.1,1.5-3.3,2c-1.6,0.7-2,1.8-2,3.5c0,1.2,0,2.5,0,3.6c0,0.8-0.3,1.8-0.2,2.8c0.3,3-0.3,6.1,1,8.9c0.8,2,2.3,3.8,3.5,5.6
		c0.3,0.7,1,1.2,1.3,1.8c-0.2,0.2-0.2,0.2-0.2,0.3c-2.3-0.7-4.6-1.3-6.9-2c0.2,2.5,0.5,4.9,0.5,7.6c-0.2,6.6-1.2,12.9-4.5,18.8
		c-0.8,1.5-2,3.1-3.1,4.8c-1.5-1.5-2.8-3-4.1-4.5c-1.3,2.5-3,4.8-5.6,6.3c-2.8,1.5-5.4,1.2-8.1-0.2c0-1.2,0-2.1,0-3.3
		c-0.2,0-0.3-0.2-0.5-0.2c-0.3,1-0.7,2-1.2,3c-1.5-0.7-3.1-1.5-4.6-2.3c3.3-4.3,4.6-9.4,5.6-14.5c-0.2-0.2-0.3-0.2-0.5-0.2
		c-1.8,4.6-3.5,9.2-5.4,14c-0.3-0.2-0.8,0-1.2-0.2c-0.8-0.3-1.3-0.8-1.3-2c0.2-3.5,0-6.8,0-10.4c-0.8,1.2-1.6,2-2.3,3
		c4.6-8.1,9.6-16,12-25.1c-2.3,4.5-4.6,8.7-7.1,13.4c-2.5,4.6-4.8,9.2-7.1,13.8c-0.5,0.8-0.8,0.8-1.6,0.3c-2.3-1.3-3.8-3.5-5.1-5.6
		c-1.8-3-3.5-5.9-5.3-9.1c-0.3-0.7-0.3-1.2,0.2-1.8c3-4.8,5.9-9.7,8.9-14.5c0.2-0.2,0.2-0.2,0.2-0.2c-0.8-1-1.5-0.8-2.3,0
		c-2.1,1.5-4.6,2.3-7.4,3c-0.3,0.2-0.7,0.2-1.3,0.3c0.7-1,1.3-1.5,1.8-2.3c1.3-2,2.5-4,3.5-6.1c0.3-0.8,0.5-1.8,0.5-2.8
		c0.2-2.8,0-5.6,0-8.4c0-1.5-0.2-3.1-0.2-4.6c-0.2-0.8-0.3-1.5-1.2-1.8c-1.3-0.7-2.8-1.5-4.3-2.5c-1.2,1.5-2.3,3.1-3.3,4.8
		c-1.5,2.6-3,5.4-4.5,8.1c-1,1.6-0.8,3.3-0.3,4.9c1.2,3.6,2.8,6.9,4.6,10.1c-3-0.2-5.9-1.8-6.8-4.9c-0.7-2.3-1.2-4.8-1.5-7.3
		c-0.7-5.1,1-9.2,2.3-13.5c0.3-1.3,1.2-2.5,1.3-3.8c0.2-0.7-0.3-1.5-0.8-2.3c-3.3,4.3-6.1,8.7-8.1,13.7s-2.1,10.2-1.3,15.8
		c-2.3-2-3.8-4.1-4.8-6.4c-1.2-2.6-1.6-5.4-1.3-8.2c0.3-3.3,1.2-6.3,3-8.9c0.3-0.3,0.7-0.8,0.8-1.3c0.7-1.2,0.7-1.8-0.3-3
		c-3.3-3.5-5.9-7.3-8.2-11.4c-3-5.3-4.9-10.9-6.1-16.6c-0.7-2.6-0.8-5.3-1.3-7.9C-0.2,97.1,0,90.4,0,83.9c0-24.7,0-49.3,0-74
		c0-0.5,0-1,0-1.6c8.1,0,16.2,0,24.4,0c-3.1,1.6-4.9,4.3-5.6,7.7c-3.6,0-7.3,0-10.9,0c0,0.5,0,1,0,1.5c0,25.4-0.2,50.9,0.2,76.3
		c0,6.9,1,13.8,3,20.4c1.8,6.1,4.6,11.7,8.6,16.5c0.2,0.2,0.2,0.3,0.3,0.7c2.1-0.8,4.3-0.2,6.3,0.5c5.3,1.8,10.5,4,15.8,5.9
		c0.3,0.2,0.7,0.3,0.8,0.2c2.3-1.2,4.6-2.1,6.9-3.1c-1.6-2.1-3.5-4.1-4.8-6.4c-2-3.3-3.6-6.8-5.4-10.1c-0.2-0.5-0.7-0.8-1.2-1.2
		c-3.3-20.6-3-41,3.8-61.2c-0.2,0-0.2-0.2-0.3-0.2c-1.2,3-2.3,5.9-3.1,8.9c-1.6,5.6-2.8,11.5-3.1,17.5c-0.3,5.6-0.7,11.4-0.2,17.1
		c0.3,5.9,1.5,11.7,2.5,17.5c0.2,0.7,0.2,1-0.7,1.2c-1.3,0.2-2.6,0.3-4.1,0.7c1.3-5.8-0.8-10.7-3-15.5c-2.5-5.4-5.1-10.7-7.7-16.3
		c-1.6-3.6-3.6-7.1-4.3-11c-0.7-3.3-1.2-6.6-1.3-10.1c-0.2-2.5-0.2-5.1,0-7.6c0.2-3.3,0.7-6.6,0.8-10.1c0.3-2.8,0.7-5.4,1-8.2
		s0.8-5.6,1.2-8.2c0.2-1.8,0.3-3.8,0.5-5.6c0.2-3.3,0.7-6.6,1.5-9.7c0.7-2.5,1.8-4.5,4.1-5.6c1.3-0.7,3-1.2,4.5-1.3
		c1.8-0.3,3.5-0.2,5.1-0.3c0.2,0,0.3,0,0.7-0.2c2.5-1.3,4.6-0.2,6.6,1.2c1.5,0.8,2.8,2,4.3,3c0.2-3.3,0.3-6.6,0.7-9.7
		c0.2,0,0.2,0,0.3-0.2c1.3,3.6,4.5,4.6,7.7,5.4c2,0.5,4,0.3,6.1-0.2c0.5-0.2,1.2-0.5,1.5-0.8c0.8-0.8,1.5-1.6,2.1-2.5
		C65.5,4.3,65.8,4.1,65.9,3.8z M94.3,48c-2.3-2-4.6-4-7.3-6.1c0.2,1,0,1.8,0.2,2.3c0.8,2.5,1.5,5.1,2.5,7.6c1.8,4.8,4,9.6,7.1,13.7
		c1.3,1.8,2.3,3.8,2.8,5.9c0.3,1.2,0.3,2.5,0.5,3.8c4.9-9.9,6.6-20.6,8.7-31.6c-2.1,1.2-4,2.3-5.8,3.3c-0.8-1.5-1.5-3-2.3-4.6
		C98.6,44.2,96.4,46,94.3,48z M53.6,157.9c1.5-3.1,3.3-6.3,4.6-9.4c0.7-1.3,1.2-3,0.7-4.6c-0.5-1.2-1.2-2.3-1.6-3.8
		c-2.1,1.6-4,3-5.9,4.5c-0.7,0.5-1,1-1.2,1.8c-0.5,2.8-1.2,5.6-1.6,8.6C50,156,51.6,157,53.6,157.9z M75.5,125.6c-0.2,0-0.2,0-0.3,0
		c-0.2,5.1-0.3,10.2-0.5,15.2c-0.2,2-0.2,4-0.2,6.1c0,0.5,0.3,1.2,0.7,1.5c2.5,2.1,5.1,4.3,7.7,6.4c0.3,0.3,0.8,0.8,0.8,1.2
		c0,1.8-0.3,3.8-0.2,5.6c0.3,4.3,2,7.7,4.6,11c-0.2-0.3-0.2-0.7-0.3-0.8c-2.6-5.1-3.8-10.4-2.3-16c0.2-0.8-0.2-1.3-0.7-1.8
		c-2.6-2.1-5.3-4.3-7.9-6.6c-0.3-0.2-0.5-0.7-0.5-0.8c-0.2-4.6-0.3-9.1-0.5-13.7C75.7,130.6,75.5,128.1,75.5,125.6z M84.6,28.2
		c-1.3,1.5-2.6,1.5-3.8,0.7c-1.2-0.8-1-2.6,0.5-4.3c-0.5-0.5-1.2-0.8-1.5-1.3c-0.2-0.2-0.5-0.3-0.8-0.5c-1.2-0.7-2.8,0.3-2.5,1.5
		c0.8,6.1,5.8,8.4,10.9,6.9C86.2,30.4,85.4,29.2,84.6,28.2z M48.3,121.2c-0.3,4.6,0.2,9.1,2,13.4C50.9,129.8,50.1,125.5,48.3,121.2z
		 M76.8,202.6c2.6-2.8,0.3-9.2-2-11.9C75.5,194.7,77.7,198.3,76.8,202.6z M29,42.6c-4.6,8.6-3.6,17.5-2.8,26.5
		c0.2-0.7,0.2-1.3,0.2-1.8c-0.2-2.8-0.3-5.6-0.2-8.4c0.2-3,0.3-5.9,0.8-8.7C27.4,47.5,28.4,45,29,42.6z M60.5,25.6
		c-1.2,1.5-2,1.8-5.9,3c3.3,0,5.6-1.2,6.9-3.5c-2.8-0.2-5.6,0-8.2-1.3C55.1,25.4,57.7,25.4,60.5,25.6z M67.9,7.1
		c-0.2-0.2-0.2-0.2-0.2-0.2c-0.7,0.5-1.2,0.8-1.6,1.3c-2.1,2-4.3,3.8-7.4,4.3c-1.8,0.2-3.6,0.3-5.1,0.3c-0.2,0,0.2,0,0.3,0.2
		c3.5,0.7,6.9,0.3,9.9-2C65.3,9.8,66.6,8.3,67.9,7.1z M110.6,65.1c-0.3,2.3-0.7,4.5-1,6.8c-0.3,2.3-1,4.5-1.5,6.8
		C109.6,74.2,111.4,69.8,110.6,65.1z M117.9,49.6c0.8,4.5-0.8,8.7-1.3,13.2C117.9,58.5,119.2,54.3,117.9,49.6z M109.5,89.5
		c1.3-3.3,2.1-6.6,2-10.2C110.8,82.6,110.1,86.1,109.5,89.5z M32.3,23.4c-3.1,1.3-4.6,4.3-6.1,7.1C28,28,29.5,25.2,32.3,23.4z
		 M91,9.8c2.6,2,6.1,2.5,8.6,4.9C97.4,11.7,94,11.2,91,9.8z M99.1,22.8c-1.5-3-5.1-2.6-7.6-4.3c1.3,0.8,2.6,1.5,4,2.1
		C96.6,21.3,97.8,21.9,99.1,22.8z M66.4,50.1c0.2,0,0.2,0,0.3,0c0.5-2.8,1.6-5.6,1.2-8.6C67.3,44.5,66.8,47.3,66.4,50.1z M96.4,6
		c-2.5-1.2-5.1-2.3-7.7-1.5C91,4.6,93.6,5.3,96.4,6z M30.8,16.5c2.5-0.7,5.1-1.2,7.6-1.5C35.8,14.7,33.1,15,30.8,16.5z M63.5,36.6
		c-1,2.5-3,4-4.9,5.6C61,41.1,63,39.4,63.5,36.6z M55.1,36c2.6-0.3,5.4-2,5.8-3.5c-0.8,0.7-1.8,1.3-2.8,2C57.2,35,56.2,35.5,55.1,36
		z M79.6,8.3c-0.2,0.2-0.2,0.3-0.2,0.3c2.1,0.8,4.5,1.5,6.6,2.3c0-0.2,0.2-0.3,0.2-0.3C83.9,9.8,81.8,8.9,79.6,8.3z M74.2,55.2
		C73.5,52.9,73,51,72.7,49C72.5,51.1,72.9,53.1,74.2,55.2z M106,19c1.3,1.3,2.8,2.8,4.1,4.3C109.3,21.3,107.7,20.1,106,19z"/>
	<path class="st0" d="M65.9,3.8c-0.2,0.2-0.5,0.5-0.7,0.7c-0.3,0.2-0.7,0.2-1,0.3c-3,2-7.1,2.3-10.4,0.3c4.3-1,8.6-2,12.7-2.8
		C66.3,3,66.1,3.5,65.9,3.8z"/>
	<path class="st0" d="M45.2,6.6c0,1.3,0,2.5,0,4c-1-1.2-1.8-2.3-3-3.5C43.5,6.8,44.4,6.8,45.2,6.6z"/>
</g>
<g>
	<path class="st0" d="M164.5,85.7h3c4.2,0,5-0.8,5-5V13.4c0-1-0.5-1-1.1-1c-8,0.1-16.3,18.4-16.3,29.5h-4.4V8.3h66.8v33.6h-4.4
		c0-11.1-8.3-29.4-16.3-29.5c-0.6,0-1.1,0-1.1,1v67.2c0,4.2,0.8,5,5,5h3v4.2h-39.2V85.7z"/>
	<path class="st0" d="M213.6,85.7h1.7c3.2,0,5.8-1.9,6.8-4.9l24.3-72.9h9.7l24,74.2c0.7,2.2,2.5,3.6,4.8,3.6h1.7v4.2h-38.5v-4.2h3.8
		c2.3,0,3-1.3,3-2.6c0-0.4-0.1-0.9-0.2-1.2L249.9,66h-18.5l-4.3,13.8c-0.2,0.8-0.4,1.5-0.4,2.2c0,2.3,1.5,3.6,4.6,3.6h3v4.2h-20.7
		L213.6,85.7L213.6,85.7z M248.6,61.8l-7.8-25.5l-8,25.5H248.6z"/>
	<path class="st0" d="M289.2,85.7h3c4.2,0,5-0.8,5-5V17.5c0-4.2-0.8-5-5-5h-3V8.3h38.5v4.2h-3c-4.2,0-5,0.8-5,5v61.2
		c0,5.5,1,7.2,4.1,7.2c9.5,0,19.4-16.7,20.4-29.2h4.2l-0.8,33.1h-58.4L289.2,85.7L289.2,85.7z"/>
	<path class="st0" d="M353.9,85.7h3c4.2,0,5-0.8,5-5V17.5c0-4.2-0.8-5-5-5h-3V8.3h61v26.8h-4.5c0-14.7-11.1-22.6-22.8-22.8
		c-1,0-3.1,0.1-3.1,0.8v32.7c6.7,0,12.5-7.3,12.5-17.4h4.5v39.4H397c0-11.7-5.8-17.8-12.5-17.8l-0.1,30.6c0,4,0.8,5.5,4.5,5.5
		c12.1,0,22.5-16.2,23.1-28.8h4.5l-1,32.5h-61.6V85.7z"/>
	<path class="st0" d="M434.2,84.2c-2.5,0-2.8,2.6-3,5.7h-4.3V57.7h4.1c0.7,16.4,10.4,27.1,19.4,27.1c5.1,0,10.2-3.6,10.2-11.1
		c0-19.4-32.8-15.5-32.8-42.2c0-15.9,11.2-24.6,24.5-24.6c11.2,0,14.9,6.5,18,6.5c1.7,0,2.1-2,2.3-5.1h4.3v27.6h-4.4
		c-0.2-11.5-6.2-24.1-17.1-24.1c-5.8,0-9.5,3.9-9.5,10.1c0,17.9,35.4,13.8,35.4,43.2c0,18.1-13.5,25.9-25.5,25.9
		C444.5,91.1,438.2,84.2,434.2,84.2z"/>
	<g>
		<path class="st0" d="M504.6,51.6c0-12.7,7.6-21.4,17.2-21.4c9.7,0,17.3,8.9,17.3,21.3c0,12.4-7.6,21.5-17.3,21.5
			C512.1,73.1,504.6,64.3,504.6,51.6z M526.2,62.3V40.8c0-5.8-1.8-8.7-4.4-8.7c-2.5,0-4.3,2.8-4.3,8.7v21.6c0,5.9,1.8,8.8,4.3,8.8
			C524.4,71.2,526.2,68.3,526.2,62.3z"/>
		<path class="st0" d="M542.2,70.2h1.5c2.1,0,2.5-0.4,2.5-2.5V35.5c0-2.1-0.4-2.5-2.5-2.5h-1.5v-2.1h31.2v14h-2.3
			c0-7.4-5.9-11.9-11.8-11.9c-0.6,0-1.6,0.1-1.6,0.4v17.6c3.9,0,6.9-4,6.9-9.1h2.3v20.2h-2.3c0-5.9-2.9-8.9-6.9-8.9l-0.1,15
			c0.1,1.7,0.6,2,2.5,2h1.5v2.1h-19.5V70.2z"/>
	</g>
	<g>
		<path class="st0" d="M163.7,120v54.3c0,4.2,0.8,5,5,5h3v4.2h-21v-4.2h3c4.1,0,5-0.7,5.1-5L159,110c-0.2-3.2-1.2-3.8-5-3.8h-3V102
			h31.6l12.9,49.4l12.6-49.4h30.8v4.2h-3c-4.2,0-5,0.8-5,5v63.1c0,4.2,0.8,5,5,5h3v4.2h-38v-4.2h3c4.2,0,5-0.8,5-5V119l-17.2,64.5
			l-11.2,0.1L163.7,120z"/>
		<path class="st0" d="M252.7,163.3v-52.1c0-4.2-0.8-5-5-5h-3V102h37.8v4.2H280c-4.2,0-5,0.8-5,5v54.1c0,8.3,4.4,12.3,10.4,12.3
			s10.6-4,10.6-13.3v-53.1c0-4.2-0.8-5-5-5h-1.5V102h18.4v4.2h-2c-4.2,0-5,0.8-5,5v53.1c0,12.8-7.3,20.3-24.1,20.3
			C258.3,184.7,252.7,174.4,252.7,163.3z"/>
		<path class="st0" d="M355.6,162.8c-1.7-11.8-3.7-19.6-11.2-19.6c-0.9,0-1.1,0-1.3,0.1v31c0,4.2,0.8,5,5,5h3v4.2h-38v-4.2h3
			c4.2,0,5-0.8,5-5v-63.1c0-4.2-0.8-5-5-5h-3V102h36.8c19.7,0,30,5.7,30,19.6c0,11.6-7.1,19.3-17.5,20.5v0.4
			c16.5,2.9,18.1,20.6,18.5,25.2c0.2,1.9-0.1,5.1,2,5.1s3.3-3.3,3.7-8.6l4.2,0.7c-0.4,11.7-6.1,19.9-17.4,19.9
			C358.9,184.9,356.8,171.2,355.6,162.8z M356.7,122.8c0-11.1-3.5-17.3-11.2-17.3c-0.9,0-1.7,0.1-2.4,0.3v33.7
			c0.7,0.3,1.5,0.4,2.5,0.4C353.4,139.9,356.7,133.6,356.7,122.8z"/>
		<path class="st0" d="M393.1,99.9L393.1,99.9v0.1V99.9z M395.2,179.4h3c4.2,0,5-0.8,5-5v-63.2c0-4.2-0.8-5-5-5h-3V102h35.5
			c20.7,0,35.2,12.5,35.2,40.5c0,26.3-13,41-35.2,41h-35.5V179.4z M442.3,142.8c0-24.3-3.9-36.9-13.9-36.9c-0.9,0-2,0.1-2.7,0.3
			v73.1c0.7,0.2,2.6,0.3,3.4,0.3C438.4,179.7,442.3,167.2,442.3,142.8z"/>
		<path class="st0" d="M473,179.4h3c4.2,0,5-0.8,5-5v-63.2c0-4.2-0.8-5-5-5h-3V102h60.9v26.8h-4.5c0-14.7-11.1-22.6-22.8-22.8
			c-1,0-3.1,0.1-3.1,0.8v32.7c6.7,0,12.5-7.3,12.5-17.4h4.5v39.4H516c0-11.7-5.8-17.8-12.5-17.8l-0.1,30.6c0,4,0.8,5.5,4.5,5.5
			c12.1,0,22.5-16.2,23.1-28.8h4.5l-1,32.5H473L473,179.4L473,179.4z"/>
		<path class="st0" d="M588.4,162.8c-1.7-11.8-3.7-19.6-11.2-19.6c-0.9,0-1.1,0-1.3,0.1v31c0,4.2,0.8,5,5,5h3v4.2h-38v-4.2h3
			c4.2,0,5-0.8,5-5v-63.1c0-4.2-0.8-5-5-5h-3V102h36.8c19.7,0,30,5.7,30,19.6c0,11.6-7.1,19.3-17.5,20.5v0.4
			c16.5,2.9,18.1,20.6,18.5,25.2c0.2,1.9-0.1,5.1,2,5.1s3.3-3.3,3.7-8.6l4.2,0.7c-0.4,11.7-6.1,19.9-17.4,19.9
			C591.7,184.9,589.6,171.2,588.4,162.8z M589.5,122.8c0-11.1-3.5-17.3-11.2-17.3c-0.9,0-1.7,0.1-2.4,0.3v33.7
			c0.7,0.3,1.5,0.4,2.5,0.4C586.2,139.9,589.5,133.6,589.5,122.8z"/>
	</g>
</g>
<line class="st1" x1="504.6" y1="82.3" x2="573.4" y2="82.3"/>
</svg>
