<?xml version="1.0" encoding="utf-8"?>
<!-- Generator: Adobe Illustrator 20.1.0, SVG Export Plug-In . SVG Version: 6.00 Build 0)  -->
<svg version="1.1" id="Layer_1" xmlns="http://www.w3.org/2000/svg" xmlns:xlink="http://www.w3.org/1999/xlink" x="0px" y="0px"
	 viewBox="0 0 1006.9 85.1" style="enable-background:new 0 0 1006.9 85.1;" xml:space="preserve">
<style type="text/css">
	.st0{fill:#FFFFFF;}
</style>
<g>
	<path class="st0" d="M13.8,79.5h3c4.2,0,5-0.8,5-5V7.2c0-1-0.5-1-1.1-1c-8,0.1-16.3,18.4-16.3,29.5H0V2.1h66.8v33.6h-4.4
		c0-11.1-8.3-29.4-16.3-29.5c-0.6,0-1.1,0-1.1,1v67.2c0,4.2,0.8,5,5,5h3v4.2H13.8V79.5z"/>
	<path class="st0" d="M62.9,79.5h1.7c3.2,0,5.8-1.9,6.8-4.9L95.7,1.7h9.7l24,74.2c0.7,2.2,2.5,3.6,4.8,3.6h1.7v4.2H97.4v-4.2h3.8
		c2.3,0,3-1.3,3-2.6c0-0.4-0.1-0.9-0.2-1.2l-4.8-15.9H80.7l-4.3,13.8c-0.2,0.8-0.4,1.5-0.4,2.2c0,2.3,1.5,3.6,4.6,3.6h3v4.2H62.9
		L62.9,79.5L62.9,79.5z M97.9,55.6l-7.8-25.5l-8,25.5H97.9z"/>
	<path class="st0" d="M138.5,79.5h3c4.2,0,5-0.8,5-5V11.3c0-4.2-0.8-5-5-5h-3V2.1H177v4.2h-3c-4.2,0-5,0.8-5,5v61.2
		c0,5.5,1,7.2,4.1,7.2c9.5,0,19.4-16.7,20.4-29.2h4.2l-0.8,33.1h-58.4L138.5,79.5L138.5,79.5z"/>
	<path class="st0" d="M203.2,79.5h3c4.2,0,5-0.8,5-5V11.3c0-4.2-0.8-5-5-5h-3V2.1h61v26.8h-4.5c0-14.7-11.1-22.6-22.8-22.8
		c-1,0-3.1,0.1-3.1,0.8v32.7c6.7,0,12.5-7.3,12.5-17.4h4.5v39.4h-4.5c0-11.7-5.8-17.8-12.5-17.8l-0.1,30.6c0,4,0.8,5.5,4.5,5.5
		c12.1,0,22.5-16.2,23.1-28.8h4.5l-1,32.5h-61.6V79.5z"/>
	<path class="st0" d="M283.5,78c-2.5,0-2.8,2.6-3,5.7h-4.3V51.5h4.1c0.7,16.4,10.4,27.1,19.4,27.1c5.1,0,10.2-3.6,10.2-11.1
		c0-19.4-32.8-15.5-32.8-42.2c0-15.9,11.2-24.6,24.5-24.6c11.2,0,14.9,6.5,18,6.5c1.7,0,2.1-2,2.3-5.1h4.3v27.6h-4.4
		c-0.2-11.5-6.2-24.1-17.1-24.1c-5.8,0-9.5,3.9-9.5,10.1c0,17.9,35.4,13.8,35.4,43.2c0,18.1-13.5,25.9-25.5,25.9
		C293.8,84.9,287.5,78,283.5,78z"/>
	<path class="st0" d="M364.4,43c0-24.9,14.9-42.1,33.8-42.1c19.1,0,34,17.6,34,41.9c0,24.4-14.9,42.3-34.1,42.3
		C379.3,85.2,364.4,67.9,364.4,43z M406.9,64.1V21.7c0-11.5-3.5-17.2-8.6-17.2c-4.9,0-8.5,5.5-8.5,17.2v42.4
		c0,11.6,3.6,17.3,8.5,17.3C403.4,81.5,406.9,75.8,406.9,64.1z"/>
	<path class="st0" d="M438.5,79.5h3c4.2,0,5-0.8,5-5V11.3c0-4.2-0.8-5-5-5h-3V2.1h61.4v27.5h-4.5c0-14.6-11.7-23.5-23.2-23.5
		c-1.2,0-3.2,0.1-3.2,0.8v34.7c7.7,0,13.5-7.9,13.5-18h4.5v39.7h-4.5c0-11.7-5.8-17.5-13.5-17.5l-0.1,29.6c0.2,3.3,1.2,4,5,4h3v4.2
		h-38.4V79.5z"/>
	<path class="st0" d="M547,20.1v54.3c0,4.2,0.8,5,5,5h3v4.2h-21v-4.2h3c4.1,0,5-0.7,5.1-5l0.2-64.3c-0.2-3.2-1.2-3.8-5-3.8h-3V2.1
		h31.6l12.9,49.4l12.6-49.4h30.8v4.2h-3c-4.2,0-5,0.8-5,5v63.1c0,4.2,0.8,5,5,5h3v4.2h-38v-4.2h3c4.2,0,5-0.8,5-5V19.1L575,83.6
		l-11.2,0.1L547,20.1z"/>
	<path class="st0" d="M636,63.4V11.3c0-4.2-0.8-5-5-5h-3V2.1h37.8v4.2h-2.5c-4.2,0-5,0.8-5,5v54.1c0,8.3,4.4,12.3,10.4,12.3
		s10.6-4,10.6-13.3V11.3c0-4.2-0.8-5-5-5h-1.5V2.1h18.4v4.2h-2c-4.2,0-5,0.8-5,5v53.1c0,12.8-7.3,20.3-24.1,20.3
		C641.6,84.8,636,74.5,636,63.4z"/>
	<path class="st0" d="M738.9,62.9c-1.7-11.8-3.7-19.6-11.2-19.6c-0.9,0-1.1,0-1.3,0.1v31c0,4.2,0.8,5,5,5h3v4.2h-38v-4.2h3
		c4.2,0,5-0.8,5-5V11.3c0-4.2-0.8-5-5-5h-3V2.1h36.8c19.7,0,30,5.7,30,19.6c0,11.6-7.1,19.3-17.5,20.5v0.4
		c16.5,2.9,18.1,20.6,18.5,25.2c0.2,1.9-0.1,5.1,2,5.1s3.3-3.3,3.7-8.6l4.2,0.7c-0.4,11.7-6.1,19.9-17.4,19.9
		C742.2,85,740.1,71.3,738.9,62.9z M740,22.9c0-11.1-3.5-17.3-11.2-17.3c-0.9,0-1.7,0.1-2.4,0.3v33.7c0.7,0.3,1.5,0.4,2.5,0.4
		C736.7,40,740,33.7,740,22.9z"/>
	<path class="st0" d="M776.4,0L776.4,0L776.4,0L776.4,0z M778.5,79.5h3c4.2,0,5-0.8,5-5V11.3c0-4.2-0.8-5-5-5h-3V2.1H814
		c20.7,0,35.2,12.5,35.2,40.5c0,26.3-13,41-35.2,41h-35.5V79.5z M825.6,42.9c0-24.3-3.9-36.9-13.9-36.9c-0.9,0-2,0.1-2.7,0.3v73.1
		c0.7,0.2,2.6,0.3,3.4,0.3C821.7,79.8,825.6,67.3,825.6,42.9z"/>
	<path class="st0" d="M856.3,79.5h3c4.2,0,5-0.8,5-5V11.3c0-4.2-0.8-5-5-5h-3V2.1h60.9v26.8h-4.5c0-14.7-11.1-22.6-22.8-22.8
		c-1,0-3.1,0.1-3.1,0.8v32.7c6.7,0,12.5-7.3,12.5-17.4h4.5v39.4h-4.5c0-11.7-5.8-17.8-12.5-17.8l-0.1,30.6c0,4,0.8,5.5,4.5,5.5
		c12.1,0,22.5-16.2,23.1-28.8h4.5l-1,32.5h-61.5L856.3,79.5L856.3,79.5z"/>
	<path class="st0" d="M971.7,62.9c-1.7-11.8-3.7-19.6-11.2-19.6c-0.9,0-1.1,0-1.3,0.1v31c0,4.2,0.8,5,5,5h3v4.2h-38v-4.2h3
		c4.2,0,5-0.8,5-5V11.3c0-4.2-0.8-5-5-5h-3V2.1H966c19.7,0,30,5.7,30,19.6c0,11.6-7.1,19.3-17.5,20.5v0.4
		c16.5,2.9,18.1,20.6,18.5,25.2c0.2,1.9-0.1,5.1,2,5.1s3.3-3.3,3.7-8.6l4.2,0.7c-0.4,11.7-6.1,19.9-17.4,19.9
		C975,85,972.9,71.3,971.7,62.9z M972.8,22.9c0-11.1-3.5-17.3-11.2-17.3c-0.9,0-1.7,0.1-2.4,0.3v33.7c0.7,0.3,1.5,0.4,2.5,0.4
		C969.5,40,972.8,33.7,972.8,22.9z"/>
</g>
</svg>
