<?xml version="1.0" encoding="utf-8"?>
<!-- Generator: Adobe Illustrator 20.1.0, SVG Export Plug-In . SVG Version: 6.00 Build 0)  -->
<svg version="1.1" id="Layer_1" xmlns="http://www.w3.org/2000/svg" xmlns:xlink="http://www.w3.org/1999/xlink" x="0px" y="0px"
	 viewBox="0 0 1126.5 132.2" enable-background="new 0 0 1126.5 132.2" xml:space="preserve">
<g>
	<path fill="#FFFFFF" d="M39.9,7.3c0.9-0.5,1.9-1,2.9-1.3c1.5-0.4,3-0.8,4.5-0.9c1.5-0.2,3-0.1,4.5,0c3.6,0.2,7.1,0.8,10,3
		c2.4,1.7,4.4,3.9,6,6.5c1.4,2.1,2.4,4.5,3.2,6.9c0.2,0.6,0.4,1.2,0.4,1.8c-0.1,0.5-0.5,1.1-0.9,1.6c-1.1,1.4-2.6,2-4.3,2
		c-2.3,0.1-4.6,0-6.8-0.8c-1.4-0.5-2.7-1.3-3.7-2.4c-1.9-1.8-3.7-3.6-5.8-5.3c-1.1-0.9-2.4-1.4-3.9-0.9c-1,0.3-1.7,1-2.3,1.9
		c0.4-0.2,0.8-0.5,1.2-0.7c1.2-0.6,2.4-0.5,3.5,0.4c0.9,0.8,1.7,1.7,2.5,2.6c1.7,1.7,3.1,3.6,5,4.9c2.6,2,5.6,2.4,8.7,2
		c0.8-0.1,1.6-0.2,2.4-0.4c2.1-0.4,3.4-1.7,4.2-3.7c0.2,0.8-0.8,2.6-2.6,3.7c0.2,0.7,0.4,1.4,0.5,2c0.8-0.2,1.6-0.5,2.4-0.6
		c1.2-0.2,1.9,0.5,2.2,1.5c0.4,1.3,0.7,2.7,0.4,4.1c-0.2,1-0.2,2.1-0.3,3.1c-0.3,1.9-0.6,3.8-1,5.7c-1.4,5.9-3.1,11.7-5.1,17.3
		c-0.8,2.3-1.7,4.7-2.7,6.9c-0.8,1.6-2,3-3.1,4.5c-1.5,2-3.1,3.8-4.7,5.7c-0.8,1-1.7,2-2.6,3.1c4-8.2,4.8-16.9,4.7-25.6
		c-0.2,1.4-0.3,2.9-0.5,4.3c-0.3,2.3-0.5,4.6-0.9,6.9c-0.6,3.6-1.2,7.1-2.4,10.6c-0.6,1.7-1.4,3.3-2.1,4.9c-0.7,1.4-1.7,2.7-2,4.3
		c-0.4,1.5-0.2,3.1-0.3,4.7c0,0.4,0.3,0.7,0.8,0.9c0.8,0.3,1.7,0.7,2.5,1.1c0.5,0.2,0.9,0.2,1.4,0c3.3-1.5,6.6-3,10.1-3.9
		c0.1,0,0.2-0.1,0.4-0.1c1.4,0.1,2.3-0.7,3.2-1.6c2.9-2.8,5.2-6.1,6.8-9.8c1.2-2.7,2-5.5,2.4-8.3c0.4-2.4,0.7-4.9,0.7-7.4
		c0-1.6,0.1-3.2,0.1-4.8c0-14,0-27.9,0-42c0-0.3,0-0.5,0-0.9c-0.4,0-0.7,0-1,0c-1.7,0-3.3,0-4.9,0c-1.2,0-2.6-0.1-3.8-0.2
		c-0.2,0-0.5-0.2-0.6-0.4c-0.8-1.5-1.8-3-3.1-4.2c0,0,0-0.1,0-0.2c6.1,0.1,12.1,0.2,18.2,0.3c0,0.2,0,0.5,0,0.8
		c0,17.3,0,34.7-0.1,52c0,2.3-0.4,4.6-0.7,6.8c-0.3,2.8-1.1,5.6-2.1,8.3c-1.2,3.4-2.9,6.6-5.2,9.4c-1.2,1.4-2.5,2.8-3.8,4.2
		c-0.8,0.8-1.8,1.5-2.7,2.3c0.4,1.1,0.8,2.3,1.5,3.4c1.1,1.4,1.5,3.1,1.7,4.9c0.2,2.2-0.2,4.3-1.2,6.2c-0.6,1.1-1.4,2.1-2.3,3.1
		c0.9-5.5-0.8-10.2-3.8-14.7c-0.5,0.3-1.1,0.7-1.5,0.9c0.4,1.6,0.8,3.1,1.1,4.6c0.2,0.9,0.2,1.8,0.1,2.7c-0.2,1.5-0.4,3-0.8,4.5
		c-0.5,1.8-2,2.8-4,3c0.4-0.8,0.8-1.6,1.2-2.4c0.8-1.5,1.5-3,1.7-4.6c0.1-0.6,0-1.2-0.2-1.7c-0.4-1.2-4.1-7.2-5-8.1
		c-0.7,0.4-1.3,0.9-2,1.2C55.2,97.3,55,98,55,99c0,0.7,0,1.5,0,2.2c0,0.5-0.2,1.1-0.1,1.7c0.2,1.8-0.2,3.7,0.6,5.4
		c0.5,1.2,1.4,2.3,2.1,3.4c0.2,0.4,0.6,0.7,0.8,1.1c-0.1,0.1-0.1,0.1-0.1,0.2c-1.4-0.4-2.8-0.8-4.2-1.2c0.1,1.5,0.3,3,0.3,4.6
		c-0.1,4-0.7,7.8-2.7,11.4c-0.5,0.9-1.2,1.9-1.9,2.9c-0.9-0.9-1.7-1.8-2.5-2.7c-0.8,1.5-1.8,2.9-3.4,3.8c-1.7,0.9-3.3,0.7-4.9-0.1
		c0-0.7,0-1.3,0-2c-0.1,0-0.2-0.1-0.3-0.1c-0.2,0.6-0.4,1.2-0.7,1.8c-0.9-0.4-1.9-0.9-2.8-1.4c2-2.6,2.8-5.7,3.4-8.8
		c-0.1-0.1-0.2-0.1-0.3-0.1c-1.1,2.8-2.1,5.6-3.3,8.5c-0.2-0.1-0.5,0-0.7-0.1c-0.5-0.2-0.8-0.5-0.8-1.2c0.1-2.1,0-4.1,0-6.3
		c-0.5,0.7-1,1.2-1.4,1.8c2.8-4.9,5.8-9.7,7.3-15.2c-1.4,2.7-2.8,5.3-4.3,8.1c-1.5,2.8-2.9,5.6-4.3,8.4c-0.3,0.5-0.5,0.5-1,0.2
		c-1.4-0.8-2.3-2.1-3.1-3.4c-1.1-1.8-2.1-3.6-3.2-5.5c-0.2-0.4-0.2-0.7,0.1-1.1c1.8-2.9,3.6-5.9,5.4-8.8c0.1-0.1,0.1-0.1,0.1-0.1
		c-0.5-0.6-0.9-0.5-1.4,0c-1.3,0.9-2.8,1.4-4.5,1.8c-0.2,0.1-0.4,0.1-0.8,0.2c0.4-0.6,0.8-0.9,1.1-1.4c0.8-1.2,1.5-2.4,2.1-3.7
		c0.2-0.5,0.3-1.1,0.3-1.7c0.1-1.7,0-3.4,0-5.1c0-0.9-0.1-1.9-0.1-2.8c-0.1-0.5-0.2-0.9-0.7-1.1c-0.8-0.4-1.7-0.9-2.6-1.5
		c-0.7,0.9-1.4,1.9-2,2.9c-0.9,1.6-1.8,3.3-2.7,4.9c-0.6,1-0.5,2-0.2,3c0.7,2.2,1.7,4.2,2.8,6.1c-1.8-0.1-3.6-1.1-4.1-3
		c-0.4-1.4-0.7-2.9-0.9-4.4C15,97.5,16,95,16.8,92.4c0.2-0.8,0.7-1.5,0.8-2.3c0.1-0.4-0.2-0.9-0.5-1.4c-2,2.6-3.7,5.3-4.9,8.3
		c-1.2,3-1.3,6.2-0.8,9.6c-1.4-1.2-2.3-2.5-2.9-3.9c-0.7-1.6-1-3.3-0.8-5c0.2-2,0.7-3.8,1.8-5.4c0.2-0.2,0.4-0.5,0.5-0.8
		c0.4-0.7,0.4-1.1-0.2-1.8c-2-2.1-3.6-4.4-5-6.9c-1.8-3.2-3-6.6-3.7-10.1c-0.4-1.6-0.5-3.2-0.8-4.8c-0.5-4-0.4-8.1-0.4-12
		c0-15,0-29.9,0-44.9c0-0.3,0-0.6,0-1c4.9,0,9.8,0,14.8,0c-1.9,1-3,2.6-3.4,4.7c-2.2,0-4.4,0-6.6,0c0,0.3,0,0.6,0,0.9
		c0,15.4-0.1,30.9,0.1,46.3c0,4.2,0.6,8.4,1.8,12.4c1.1,3.7,2.8,7.1,5.2,10c0.1,0.1,0.1,0.2,0.2,0.4c1.3-0.5,2.6-0.1,3.8,0.3
		c3.2,1.1,6.4,2.4,9.6,3.6c0.2,0.1,0.4,0.2,0.5,0.1c1.4-0.7,2.8-1.3,4.2-1.9c-1-1.3-2.1-2.5-2.9-3.9c-1.2-2-2.2-4.1-3.3-6.1
		c-0.1-0.3-0.4-0.5-0.7-0.7c-2-12.5-1.8-24.9,2.3-37.1c-0.1,0-0.1-0.1-0.2-0.1c-0.7,1.8-1.4,3.6-1.9,5.4c-1,3.4-1.7,7-1.9,10.6
		c-0.2,3.4-0.4,6.9-0.1,10.4c0.2,3.6,0.9,7.1,1.5,10.6c0.1,0.4,0.1,0.6-0.4,0.7c-0.8,0.1-1.6,0.2-2.5,0.4c0.8-3.5-0.5-6.5-1.8-9.4
		c-1.5-3.3-3.1-6.5-4.7-9.9c-1-2.2-2.2-4.3-2.6-6.7c-0.4-2-0.7-4-0.8-6.1c-0.1-1.5-0.1-3.1,0-4.6c0.1-2,0.4-4,0.5-6.1
		c0.2-1.7,0.4-3.3,0.6-5s0.5-3.4,0.7-5c0.1-1.1,0.2-2.3,0.3-3.4c0.1-2,0.4-4,0.9-5.9c0.4-1.5,1.1-2.7,2.5-3.4
		c0.8-0.4,1.8-0.7,2.7-0.8c1.1-0.2,2.1-0.1,3.1-0.2c0.1,0,0.2,0,0.4-0.1c1.5-0.8,2.8-0.1,4,0.7c0.9,0.5,1.7,1.2,2.6,1.8
		c0.1-2,0.2-4,0.4-5.9c0.1,0,0.1,0,0.2-0.1c0.8,2.2,2.7,2.8,4.7,3.3c1.2,0.3,2.4,0.2,3.7-0.1c0.3-0.1,0.7-0.3,0.9-0.5
		c0.5-0.5,0.9-1,1.3-1.5C39.6,7.6,39.8,7.5,39.9,7.3z M57.1,34.1c-1.4-1.2-2.8-2.4-4.4-3.7c0.1,0.6,0,1.1,0.1,1.4
		c0.5,1.5,0.9,3.1,1.5,4.6c1.1,2.9,2.4,5.8,4.3,8.3c0.8,1.1,1.4,2.3,1.7,3.6c0.2,0.7,0.2,1.5,0.3,2.3c3-6,4-12.5,5.3-19.2
		c-1.3,0.7-2.4,1.4-3.5,2c-0.5-0.9-0.9-1.8-1.4-2.8C59.7,31.8,58.4,32.9,57.1,34.1z M32.4,100.8c0.9-1.9,2-3.8,2.8-5.7
		c0.4-0.8,0.7-1.8,0.4-2.8c-0.3-0.7-0.7-1.4-1-2.3c-1.3,1-2.4,1.8-3.6,2.7c-0.4,0.3-0.6,0.6-0.7,1.1c-0.3,1.7-0.7,3.4-1,5.2
		C30.2,99.6,31.2,100.2,32.4,100.8z M45.7,81.2c-0.1,0-0.1,0-0.2,0c-0.1,3.1-0.2,6.2-0.3,9.2c-0.1,1.2-0.1,2.4-0.1,3.7
		c0,0.3,0.2,0.7,0.4,0.9c1.5,1.3,3.1,2.6,4.7,3.9c0.2,0.2,0.5,0.5,0.5,0.7c0,1.1-0.2,2.3-0.1,3.4c0.2,2.6,1.2,4.7,2.8,6.7
		c-0.1-0.2-0.1-0.4-0.2-0.5c-1.6-3.1-2.3-6.3-1.4-9.7c0.1-0.5-0.1-0.8-0.4-1.1c-1.6-1.3-3.2-2.6-4.8-4c-0.2-0.1-0.3-0.4-0.3-0.5
		c-0.1-2.8-0.2-5.5-0.3-8.3C45.8,84.2,45.7,82.7,45.7,81.2z M51.2,22.1c-0.8,0.9-1.6,0.9-2.3,0.4s-0.6-1.6,0.3-2.6
		c-0.3-0.3-0.7-0.5-0.9-0.8c-0.1-0.1-0.3-0.2-0.5-0.3c-0.7-0.4-1.7,0.2-1.5,0.9c0.5,3.7,3.5,5.1,6.6,4.2
		C52.2,23.4,51.7,22.7,51.2,22.1z M29.2,78.5c-0.2,2.8,0.1,5.5,1.2,8.1C30.8,83.7,30.3,81.1,29.2,78.5z M46.5,127.9
		c1.6-1.7,0.2-5.6-1.2-7.2C45.7,123.1,47,125.3,46.5,127.9z M17.5,30.8c-2.8,5.2-2.2,10.6-1.7,16.1c0.1-0.4,0.1-0.8,0.1-1.1
		c-0.1-1.7-0.2-3.4-0.1-5.1c0.1-1.8,0.2-3.6,0.5-5.3C16.5,33.8,17.1,32.3,17.5,30.8z M36.6,20.5c-0.7,0.9-1.2,1.1-3.6,1.8
		c2,0,3.4-0.7,4.2-2.1c-1.7-0.1-3.4,0-5-0.8C33.3,20.4,34.9,20.4,36.6,20.5z M41.1,9.3c-0.1-0.1-0.1-0.1-0.1-0.1
		c-0.4,0.3-0.7,0.5-1,0.8c-1.3,1.2-2.6,2.3-4.5,2.6c-1.1,0.1-2.2,0.2-3.1,0.2c-0.1,0,0.1,0,0.2,0.1c2.1,0.4,4.2,0.2,6-1.2
		C39.5,10.9,40.3,10,41.1,9.3z M67,44.5c-0.2,1.4-0.4,2.7-0.6,4.1c-0.2,1.4-0.6,2.7-0.9,4.1C66.4,50,67.5,47.3,67,44.5z M71.4,35.1
		c0.5,2.7-0.5,5.3-0.8,8C71.4,40.5,72.2,37.9,71.4,35.1z M66.3,59.3c0.8-2,1.3-4,1.2-6.2C67.1,55.1,66.7,57.2,66.3,59.3z M19.5,19.2
		c-1.9,0.8-2.8,2.6-3.7,4.3C16.9,22,17.8,20.3,19.5,19.2z M55.1,10.9c1.6,1.2,3.7,1.5,5.2,3C59,12.1,56.9,11.8,55.1,10.9z M60,18.8
		c-0.9-1.8-3.1-1.6-4.6-2.6c0.8,0.5,1.6,0.9,2.4,1.3C58.5,17.9,59.2,18.3,60,18.8z M40.2,35.4c0.1,0,0.1,0,0.2,0
		c0.3-1.7,1-3.4,0.7-5.2C40.7,32,40.4,33.7,40.2,35.4z M58.4,8.6c-1.5-0.7-3.1-1.4-4.7-0.9C55.1,7.8,56.7,8.2,58.4,8.6z M18.6,15
		c1.5-0.4,3.1-0.7,4.6-0.9C21.6,13.9,20,14.1,18.6,15z M38.4,27.2c-0.6,1.5-1.8,2.4-3,3.4C36.9,29.9,38.1,28.9,38.4,27.2z
		 M33.3,26.8c1.6-0.2,3.3-1.2,3.5-2.1c-0.5,0.4-1.1,0.8-1.7,1.2C34.6,26.2,34,26.5,33.3,26.8z M48.2,10c-0.1,0.1-0.1,0.2-0.1,0.2
		c1.3,0.5,2.7,0.9,4,1.4c0-0.1,0.1-0.2,0.1-0.2C50.8,10.9,49.5,10.4,48.2,10z M44.9,38.5c-0.4-1.4-0.7-2.6-0.9-3.8
		C43.9,36,44.1,37.2,44.9,38.5z M64.2,16.5c0.8,0.8,1.7,1.7,2.5,2.6C66.2,17.9,65.2,17.2,64.2,16.5z"/>
	<path fill="#FFFFFF" d="M39.9,7.3c-0.1,0.1-0.3,0.3-0.4,0.4c-0.2,0.1-0.4,0.1-0.6,0.2c-1.8,1.2-4.3,1.4-6.3,0.2
		c2.6-0.6,5.2-1.2,7.7-1.7C40.1,6.8,40,7.1,39.9,7.3z"/>
	<path fill="#FFFFFF" d="M27.3,9c0,0.8,0,1.5,0,2.4c-0.6-0.7-1.1-1.4-1.8-2.1C26.3,9.1,26.8,9.1,27.3,9z"/>
</g>
<g>
	<path fill="#FFFFFF" d="M131.6,86.6h3c4.2,0,5-0.8,5-5V14.3c0-1-0.5-1-1.1-1c-8,0.1-16.3,18.4-16.3,29.5h-4.4V9.2h66.8v33.6h-4.4
		c0-11.1-8.3-29.4-16.3-29.5c-0.6,0-1.1,0-1.1,1v67.2c0,4.2,0.8,5,5,5h3v4.2h-39.2V86.6z"/>
	<path fill="#FFFFFF" d="M180.7,86.6h1.7c3.2,0,5.8-1.9,6.8-4.9l24.3-72.9h9.7l24,74.2c0.7,2.2,2.5,3.6,4.8,3.6h1.7v4.2h-38.5v-4.2
		h3.8c2.3,0,3-1.3,3-2.6c0-0.4-0.1-0.9-0.2-1.2L217,66.9h-18.5l-4.3,13.8c-0.2,0.8-0.4,1.5-0.4,2.2c0,2.3,1.5,3.6,4.6,3.6h3v4.2
		h-20.7V86.6z M215.7,62.7l-7.8-25.5l-8,25.5H215.7z"/>
	<path fill="#FFFFFF" d="M256.3,86.6h3c4.2,0,5-0.8,5-5V18.4c0-4.2-0.8-5-5-5h-3V9.2h38.5v4.2h-3c-4.2,0-5,0.8-5,5v61.2
		c0,5.5,1,7.2,4.1,7.2c9.5,0,19.4-16.7,20.4-29.2h4.2l-0.8,33.1h-58.4V86.6z"/>
	<path fill="#FFFFFF" d="M321,86.6h3c4.2,0,5-0.8,5-5V18.4c0-4.2-0.8-5-5-5h-3V9.2H382V36h-4.5c0-14.7-11.1-22.6-22.8-22.8
		c-1,0-3.1,0.1-3.1,0.8v32.7c6.7,0,12.5-7.3,12.5-17.4h4.5v39.4h-4.5c0-11.7-5.8-17.8-12.5-17.8l-0.1,30.6c0,4,0.8,5.5,4.5,5.5
		c12.1,0,22.5-16.2,23.1-28.8h4.5l-1,32.5H321V86.6z"/>
	<path fill="#FFFFFF" d="M401.3,85.1c-2.5,0-2.8,2.6-3,5.7H394V58.6h4.1c0.7,16.4,10.4,27.1,19.4,27.1c5.1,0,10.2-3.6,10.2-11.1
		c0-19.4-32.8-15.5-32.8-42.2c0-15.9,11.2-24.6,24.5-24.6c11.2,0,14.9,6.5,18,6.5c1.7,0,2.1-2,2.3-5.1h4.3v27.6h-4.4
		c-0.2-11.5-6.2-24.1-17.1-24.1c-5.8,0-9.5,3.9-9.5,10.1c0,17.9,35.4,13.8,35.4,43.2c0,18.1-13.5,25.9-25.5,25.9
		C411.6,92,405.3,85.1,401.3,85.1z"/>
	<path fill="#FFFFFF" d="M482.2,50.1C482.2,25.2,497.1,8,516,8c19.1,0,34,17.6,34,41.9c0,24.4-14.9,42.3-34.1,42.3
		C497.1,92.3,482.2,75,482.2,50.1z M524.7,71.2V28.8c0-11.5-3.5-17.2-8.6-17.2c-4.9,0-8.5,5.5-8.5,17.2v42.4
		c0,11.6,3.6,17.3,8.5,17.3C521.2,88.6,524.7,82.9,524.7,71.2z"/>
	<path fill="#FFFFFF" d="M556.3,86.6h3c4.2,0,5-0.8,5-5V18.4c0-4.2-0.8-5-5-5h-3V9.2h61.4v27.5h-4.5c0-14.6-11.7-23.5-23.2-23.5
		c-1.2,0-3.2,0.1-3.2,0.8v34.7c7.7,0,13.5-7.9,13.5-18h4.5v39.7h-4.5c0-11.7-5.8-17.5-13.5-17.5l-0.1,29.6c0.2,3.3,1.2,4,5,4h3v4.2
		h-38.4V86.6z"/>
	<path fill="#FFFFFF" d="M664.8,27.2v54.3c0,4.2,0.8,5,5,5h3v4.2h-21v-4.2h3c4.1,0,5-0.7,5.1-5l0.2-64.3c-0.2-3.2-1.2-3.8-5-3.8h-3
		V9.2h31.6l12.9,49.4l12.6-49.4h30.8v4.2h-3c-4.2,0-5,0.8-5,5v63.1c0,4.2,0.8,5,5,5h3v4.2h-38v-4.2h3c4.2,0,5-0.8,5-5V26.2
		l-17.2,64.5l-11.2,0.1L664.8,27.2z"/>
	<path fill="#FFFFFF" d="M753.8,70.5V18.4c0-4.2-0.8-5-5-5h-3V9.2h37.8v4.2h-2.5c-4.2,0-5,0.8-5,5v54.1c0,8.3,4.4,12.3,10.4,12.3
		c6,0,10.6-4,10.6-13.3V18.4c0-4.2-0.8-5-5-5h-1.5V9.2H809v4.2h-2c-4.2,0-5,0.8-5,5v53.1c0,12.8-7.3,20.3-24.1,20.3
		C759.4,91.9,753.8,81.6,753.8,70.5z"/>
	<path fill="#FFFFFF" d="M856.7,70c-1.7-11.8-3.7-19.6-11.2-19.6c-0.9,0-1.1,0-1.3,0.1v31c0,4.2,0.8,5,5,5h3v4.2h-38v-4.2h3
		c4.2,0,5-0.8,5-5V18.4c0-4.2-0.8-5-5-5h-3V9.2H851c19.7,0,30,5.7,30,19.6c0,11.6-7.1,19.3-17.5,20.5v0.4
		c16.5,2.9,18.1,20.6,18.5,25.2c0.2,1.9-0.1,5.1,2,5.1c2.1,0,3.3-3.3,3.7-8.6l4.2,0.7c-0.4,11.7-6.1,19.9-17.4,19.9
		C860,92.1,857.9,78.4,856.7,70z M857.8,30c0-11.1-3.5-17.3-11.2-17.3c-0.9,0-1.7,0.1-2.4,0.3v33.7c0.7,0.3,1.5,0.4,2.5,0.4
		C854.5,47.1,857.8,40.8,857.8,30z"/>
	<path fill="#FFFFFF" d="M894.2,7.1L894.2,7.1v0.1V7.1z M896.3,86.6h3c4.2,0,5-0.8,5-5V18.4c0-4.2-0.8-5-5-5h-3V9.2h35.5
		c20.7,0,35.2,12.5,35.2,40.5c0,26.3-13,41-35.2,41h-35.5V86.6z M943.4,50c0-24.3-3.9-36.9-13.9-36.9c-0.9,0-2,0.1-2.7,0.3v73.1
		c0.7,0.2,2.6,0.3,3.4,0.3C939.5,86.9,943.4,74.4,943.4,50z"/>
	<path fill="#FFFFFF" d="M974.1,86.6h3c4.2,0,5-0.8,5-5V18.4c0-4.2-0.8-5-5-5h-3V9.2h60.9V36h-4.5c0-14.7-11.1-22.6-22.8-22.8
		c-1,0-3.1,0.1-3.1,0.8v32.7c6.7,0,12.5-7.3,12.5-17.4h4.5v39.4h-4.5c0-11.7-5.8-17.8-12.5-17.8l-0.1,30.6c0,4,0.8,5.5,4.5,5.5
		c12.1,0,22.5-16.2,23.1-28.8h4.5l-1,32.5h-61.5V86.6z"/>
	<path fill="#FFFFFF" d="M1089.5,70c-1.7-11.8-3.7-19.6-11.2-19.6c-0.9,0-1.1,0-1.3,0.1v31c0,4.2,0.8,5,5,5h3v4.2h-38v-4.2h3
		c4.2,0,5-0.8,5-5V18.4c0-4.2-0.8-5-5-5h-3V9.2h36.8c19.7,0,30,5.7,30,19.6c0,11.6-7.1,19.3-17.5,20.5v0.4
		c16.5,2.9,18.1,20.6,18.5,25.2c0.2,1.9-0.1,5.1,2,5.1c2.1,0,3.3-3.3,3.7-8.6l4.2,0.7c-0.4,11.7-6.1,19.9-17.4,19.9
		C1092.8,92.1,1090.7,78.4,1089.5,70z M1090.6,30c0-11.1-3.5-17.3-11.2-17.3c-0.9,0-1.7,0.1-2.4,0.3v33.7c0.7,0.3,1.5,0.4,2.5,0.4
		C1087.3,47.1,1090.6,40.8,1090.6,30z"/>
</g>
<g>
</g>
<g>
</g>
<g>
</g>
<g>
</g>
<g>
</g>
<g>
</g>
<g>
</g>
<g>
</g>
<g>
</g>
<g>
</g>
<g>
</g>
<g>
</g>
<g>
</g>
<g>
</g>
<g>
</g>
</svg>
