<?xml version="1.0" encoding="utf-8"?>
<!-- Generator: Adobe Illustrator 20.1.0, SVG Export Plug-In . SVG Version: 6.00 Build 0)  -->
<svg version="1.1" id="Layer_1" xmlns="http://www.w3.org/2000/svg" xmlns:xlink="http://www.w3.org/1999/xlink" x="0px" y="0px"
	 viewBox="0 0 1338 146.1" style="enable-background:new 0 0 1338 146.1;" xml:space="preserve">
<style type="text/css">
	.st0{fill:#242424;}
</style>
<g>
	<path class="st0" d="M749.5,0c0,2.1,0,4.2,0,6.2c-13.1,2-13.4,2.4-13.4,15.5c0,16.9,0,33.7,0,50.6c0,12.9,0.5,13.5,13.3,15.3
		c0,2.4,0,4.8,0,7.4c-17.5,0-34.8,0-52.3,0c0-2.6,0-5,0-7.4c12.6-1.7,13.2-2.4,13.2-15.5c0-14.7,0-29.4,0-44.2c0-1.8,0-3.5,0-5.3
		c-0.3-0.1-0.7-0.2-1-0.3c-0.8,1.5-1.7,3-2.4,4.5c-10,21.4-19.9,42.8-30.1,64.1c-0.8,1.7-2.8,3.4-4.6,4.1c-3.2,1.2-4.1-1.6-5.2-3.9
		c-10.5-22.1-21-44.1-31.6-66.2c-0.4-0.8-0.8-1.6-2.1-2.3c0,7,0,14,0,21c0,9.1-0.1,18.2,0.2,27.3c0.3,11.6,2,13.6,13.3,16.5
		c0,2.3,0,4.7,0,7.4c-11.6,0-23.1,0-34.8,0c0-2.5,0-4.7,0-7.3c1.3-0.4,2.6-0.8,4-1.2c5.1-1.6,8.3-5,8.4-10.4c0.1-20,0.2-40,0.1-60
		c-0.1-6.3-2.4-8.4-8.7-9.2c-1.1-0.1-2.2-0.3-3.7-0.4c-0.2-2.3-0.3-4.4-0.5-6.5c13.6,0,27.1,0,40.7,0c0.4,1.4,0.7,2.8,1.3,4.2
		c7,14.9,14,29.8,21,44.7c1.9,3.9,3.7,7.9,5.9,12.5c10-21,19.7-41.2,29.3-61.4C723.1,0,736.3,0,749.5,0z"/>
	<path class="st0" d="M956,0c2,1.1,4.1,2,6.1,3.2c8.2,4.8,12.6,12.1,12.5,21.6c0,9.4-4.7,16.3-13,20.6c-1.8,0.9-3.6,1.7-4.8,2.2
		c6.9,9.9,13.7,19.8,20.6,29.7c3.5,5,7.2,9.6,14.1,10c0,2.6,0,4.9,0,7.9c-9.9,0-19.7,0.1-29.6-0.2c-1.3,0-2.8-2.1-3.7-3.5
		c-6-10-12.1-20.1-17.8-30.3c-3.7-6.6-9-9.3-16.7-8.2c0,9.4-0.7,19,0.2,28.4c0.6,6.2,7,5.3,11.9,6.1c0,2.3,0,4.7,0,7.5
		c-17.1,0-34.3,0-51.8,0c0-2.5,0-4.9,0-7.3c12.8-1.9,13.5-2.7,13.5-15.9c0-16.5,0-33.1,0-49.6c0-15.3-2.2-14.5-13.5-15.9
		c-0.1-2-0.3-4.1-0.4-6.2C907.7,0,931.9,0,956,0z M923.1,43.9c4.7-0.3,8.7-0.4,12.6-0.9c6.5-0.9,10.4-5,11.5-11.3
		c2.8-15.6-2.1-24.1-17.8-24c-1.1,0-2.5-0.6-3.4-0.1c-1.2,0.6-2.7,1.9-2.8,3C923,21.4,923.1,32.3,923.1,43.9z"/>
	<path class="st0" d="M1302.5,0c6.3,3,12.4,6.1,15.9,12.7c6.5,12,2.6,25.9-9.4,32.4c-1.9,1-3.9,1.9-6.6,3.2
		c13.9,11.5,17.5,31.6,35.6,40.5c0,1.2,0,3.6,0,6.5c-9.7,0-19.2,0.2-28.8-0.2c-1.5,0-3.3-2-4.2-3.5c-6.2-10.2-12.1-20.5-18.2-30.7
		c-4.6-7.6-7.2-8.7-16.8-7.8c0,8.8-0.2,17.7,0.1,26.6c0.1,4.1,2.8,6.6,7,7.1c1.8,0.2,3.6,0.5,5.7,0.7c0,2.4,0,4.8,0,7.5
		c-17.2,0-34.3,0-51.7,0c0-2.5,0-4.9,0-7.3c12.7-2.1,13-2.5,13-15.7c0-16.9,0-33.7,0-50.6c0-12.8-0.3-13.1-13.1-15.2
		c0-2,0-4.1,0-6.2C1254.9,0,1278.7,0,1302.5,0z M1270,43.5c14,0.8,19.8-1.3,23-8.2c3.3-7.1,2.2-18.6-2.2-23c-4-4.1-15-5.9-20.8-3.6
		C1270,20.1,1270,31.6,1270,43.5z"/>
	<path class="st0" d="M1074.2,0c3,1.4,6,2.7,8.9,4.2c19.3,10.2,28.6,31.5,23.9,54.9c-3.9,19.6-20.6,34.3-41.9,35.2
		c-20.6,0.9-41.2,0.2-62.2,0.2c0-1.9,0-4.3,0-6.9c0.6-0.1,1.2-0.3,1.8-0.4c8.6-1.3,10-2.3,10.2-10.9c0.3-19.5,0.3-39,0-58.5
		c-0.1-9-1.2-9.6-12.2-11.6c0-2,0-4.1,0-6.2C1026.5,0,1050.4,0,1074.2,0z M1040.6,7c0,5.6,0,10.8,0,16.1c0,17.4-0.1,34.7,0,52.1
		c0.1,8.6,2.8,11.2,11.4,11.3c12.1,0.1,20.3-5.7,23.9-17.6c4-13.2,4.3-26.7,0.5-40.1C1072.3,14.4,1062.4,5.2,1040.6,7z"/>
	<path class="st0" d="M387.2,0c0,7.7,0,15.4,0,23.3c-6.6,1.5-6.8,1.5-9.5-5.1c-3.1-7.7-8.4-11.5-16.8-11.1c-5.7,0.2-11.5,0-17.6,0
		c0,11.2,0,21.8,0,32.4c13.7,2.7,17.4,0.6,19.5-11c2.4,0,4.8,0,7.6,0c0,10.8,0,21.5,0,32.5c-2.4,0-4.8,0-7.2,0
		c-3.2-11.8-6.7-13.8-19.8-11.2c0,10.1-0.3,20.3,0.2,30.5c0.1,1.8,3.1,4.3,5.2,5c15.6,5.4,28.7-0.6,34.1-16.1
		c1.9-5.5,4.6-6.8,9.7-5.4c0,10.3,0,20.6,0,31.2c-29.7,0-58.9,0-88.4,0c0-2.4,0-4.7,0-7.1c0.3-0.2,0.5-0.5,0.8-0.5
		c10.7-1.1,12-2.5,12-13.2c0-17,0.2-34.1-0.1-51.1c-0.2-11.1,3.2-14.6-12.9-17.3c-0.1-1.9-0.3-3.9-0.4-5.8C331.6,0,359.4,0,387.2,0z
		"/>
	<path class="st0" d="M1209.2,0c0,7.7,0,15.5,0,23.6c-3.8,0.5-7.6,1.2-9.4-5c-2.4-8.3-8.6-12-17.4-11.5c-5.6,0.3-11.2,0.1-17.1,0.1
		c0,11.1,0,21.6,0,32.1c11.3,3.8,17.4,0.7,19.7-10.6c2.5,0,5.1,0,7.9,0c0,10.8,0,21.4,0,32.3c-2.6,0-5.1,0-7.6,0
		c-3.1-11.8-6-13.5-19.6-11.3c0,10.3-0.4,20.7,0.3,31c0.1,1.9,4.3,4.8,6.9,5.1c19.6,2.5,26.4-1,33-17.8c0.5-1.4,1-2.8,1.5-4.4
		c2.5,0,4.9,0,7.5,0c0,10.5,0,20.8,0,31.4c-29.7,0-59.1,0-88.7,0c0-2.6,0-5,0-7.3c12.6-1.9,13.3-2.8,13.3-15.6c0-16.2,0-32.4,0-48.6
		c0-14.2,0-14.2-13.3-17.7c-0.1-1.9-0.3-3.8-0.4-5.8C1153.6,0,1181.4,0,1209.2,0z"/>
	<path class="st0" d="M870.7,0c0,2,0,3.9,0,6.6c-11.4,0.9-12.2,9-12.2,18.2c0.1,13.7-0.1,27.4-0.7,41.1c-0.6,13.9-8.5,23.1-21,27.9
		c-14.2,5.5-28.5,5-42.3-1.5c-14.4-6.8-18.5-19.2-18.6-33.9c-0.1-12.4,0-24.8,0-37.2c0-12-0.7-12.8-12.4-15c0-2,0-4.1,0-6.2
		c17.2,0,34.4,0,51.6,0c-0.4,2.2-0.7,4.4-1,6.5c-10.3,0.9-12.4,2.1-12.4,10.1c-0.2,17.3,0,34.7,0.8,52c0.5,9.5,7.3,16,16.6,17.9
		c16.3,3.3,28.9-6.6,29.7-23.8c0.6-13,0.3-26.1,0.3-39.1c0-11.8-2.4-14.9-14.1-17.4c0-2,0-4.1,0-6.2C846.8,0,858.8,0,870.7,0z"/>
	<path class="st0" d="M475.5,0c0,8.9,0,17.7,0,26.4c-7.9,1.8-7.8,1.7-10.5-4.7c-3.5-8.3-8.6-15-18.5-16c-5.7-0.6-10.5,2-12.4,6.3
		c-2,4.6-0.7,10.3,3.9,13.7c3.7,2.7,7.9,4.7,12,6.8c6.1,3.2,12.6,6,18.5,9.5c11.9,7.2,17.1,20.2,13.6,33.3
		c-3.1,11.7-15.6,21.4-28.4,21.9c-11.5,0.5-18.3-2-29-10.7c-0.9,2.4-1.7,4.6-2.6,7c-2.6,0-5.2,0-8.1,0c0-11.1,0-21.9,0-32.9
		c2.8,0,5.4,0,8,0c2,4.8,3.5,9.6,5.9,14.1c4.1,7.5,10.5,12.3,19.3,13.1c6.6,0.6,11.8-2.7,13.8-8.3c1.8-5.1,0-10.7-5.5-14.1
		c-6.3-3.9-13-7.1-19.6-10.7c-3.5-1.9-7-3.7-10.2-6c-16.2-11.4-16.4-34.3-0.4-46.1c1.2-0.9,2.4-1.7,3.6-2.6C444.4,0,460,0,475.5,0z"
		/>
	<path class="st0" d="M151.9,0c9.3,22.9,18.6,45.9,27.9,68.8c0.9,2.3,1.9,4.6,2.9,6.8c2.5,5.8,5.8,10.9,13,11.7c0,2.7,0,5,0,7.7
		c-15.9,0-31.7,0-47.7,0c0-2.6,0-4.9,0-7.3c10.8-2,10.6-2,6.9-12.4c-1.6-4.6-3.7-6.5-8.8-6.1c-6.4,0.5-12.9,0.2-19.3,0.1
		c-2.7-0.1-4.5,0.5-5.1,3.4c-0.1,0.3-0.3,0.6-0.4,0.9c-4,10.1-3.1,11.9,7.6,14.1c0,2.4,0,4.8,0,7.4c-10.6,0-20.9,0-31.6,0
		c0-2.5,0-4.9,0-7.5c8.5-1.9,11.9-8.7,14.8-15.9c9-22.4,17.8-44.8,26.7-67.1c0.6-1.5,1.3-3,2-4.5C144.6,0,148.3,0,151.9,0z
		 M126.4,60.4c7.8,0,14.9,0,22.5,0c-3.8-9.2-7.5-17.9-11.6-27.7C133.5,42.4,130,51.2,126.4,60.4z"/>
	<path class="st0" d="M96.3,0c0,8.6,0,17.1,0,25.6c-7.4,1.5-7.5,1.5-9.6-5.1C83,8.9,76.2,5.6,60.6,8c0,1.7,0,3.5,0,5.2
		c0,20,0,40,0,60c0,11.7,1.5,13.3,13.6,14.2c0,2.3,0,4.7,0,7.5c-17.4,0-34.9,0-52.9,0c0-2.3,0-4.7,0-7.1c0.4-0.2,0.6-0.5,0.9-0.5
		c11.2-0.9,12.6-2.4,12.6-13.6c0-20.3,0-40.7,0-61c0-1.5,0-2.9,0-4.3C19.3,3.8,11.4,8.9,7.6,25.9c-2.5,0.3-5,0.6-7.6,0.9
		C0,17.9,0,8.9,0,0C32.1,0,64.2,0,96.3,0z"/>
	<path class="st0" d="M256.1,0c-0.3,2.1-0.6,4.2-0.9,6.2c-0.4,0.2-0.7,0.5-1,0.5c-10.6,0.8-12,2.3-12,13.1c0,18.7,0,37.3,0,56
		c0,7.3,2.2,9.7,9.5,10.5c17.2,1.9,26.4-4,31.9-20.5c1.2-3.5,1.2-3.5,8.2-2.7c0,10.6,0,21.2,0,32c-29.5,0-58.6,0-88,0
		c0-2.5,0-5,0-7.7c1.6-0.1,3.1-0.2,4.5-0.4c5.8-0.9,7.8-2.9,8-8.8c0.3-9.2,0.2-18.5,0.2-27.8c0-9.6,0-19.2,0-28.8
		c0-12.7-0.6-13.4-13.1-15.4c0-2,0-4.1,0-6.2C221.1,0,238.6,0,256.1,0z"/>
	<path class="st0" d="M539.1,0c13,8.7,17.7,18.7,14.4,31c-3.9,14.3-19,21.9-35.5,17.6c-10.9-2.8-17.3-10.1-18.8-21.1
		c-1.4-10.9,3.3-20.6,12.7-25.9c0.8-0.5,1.6-1.1,2.3-1.7C522.5,0,530.8,0,539.1,0z M513.8,23.6c0.8,4.6,1.3,9.2,2.6,13.6
		c1.4,4.7,4.9,7.4,10,7.4c5.2,0,9-2.4,10.6-7.4c2.9-8.9,2.8-17.9-0.2-26.8c-1.6-4.8-5.3-7.1-10.2-7.3c-4.7-0.2-8.8,2.7-10.4,7.7
		C515,15,514.6,19.3,513.8,23.6z"/>
	<path class="st0" d="M604.6,0c0,3.9,0,7.9,0,12.6c-1.6-0.5-3.9-0.7-4.1-1.5C597.6,2,590.4,3.8,583.3,4c0,5.3,0,10.4,0,15.8
		c3.8,0.8,7.3,1.4,8.4-3.8c0.1-0.7,1.7-1.5,2.5-1.4c0.7,0.1,1.8,1.4,1.8,2.2c0.2,4.8,0.1,9.6,0.1,15.8c-2-1.2-4.2-1.7-4.3-2.6
		c-0.8-5.4-4.4-4.9-8.7-4.3c0,5-0.3,9.9,0.2,14.7c0.1,1.4,2.4,2.6,3.8,3.8c1.1,1,2.2,2.1,3.2,3.1c-0.3,0.4-0.6,0.7-0.9,1.1
		c-8.6,0-17.1,0-27.5,0c1.7-1.9,2.5-3.6,3.6-4c3.1-0.9,4.2-2.8,4.2-5.8c0-9.8,0-19.5,0-29.3c0-3.1-0.8-5.4-4.5-6
		c-1-0.2-1.6-2.2-2.5-3.4C576.8,0,590.7,0,604.6,0z"/>
	<path class="st0" d="M888.2,108.3c0,9.4-0.4,18.8,0.3,28.2c0.2,2.8,3.7,5.3,5.7,7.9c-4.5,0-9.9,0-15.2,0c7.9-2.6,7.1-9,7.2-15.1
		c0-6.5,0-12.9,0-19.4c-0.1-7.7-0.1-7.7-7.1-9.5c0-0.4,0-0.9-0.1-1.3c3.2,0,6.5,0.4,9.6-0.1c4.9-0.8,5.6,2.9,7,5.9
		c4.4,10,8.8,19.9,13.6,30.7c1-1.8,1.7-2.9,2.3-4.1c4.1-9.2,8.2-18.4,12.1-27.7c1.4-3.5,3.1-5.4,7.2-4.8c2.9,0.4,6,0.1,9.5,0.9
		c-10.3,0-7.9,7.3-8,12.7c-0.2,6.8-0.1,13.6,0,20.3c0.1,8.5,0.1,8.5,7.5,11.3c-7.1,0-14.2,0-22.7,0c8.4-2.9,8.4-2.9,8.4-10.9
		c0-8.7,0-17.4-1-26.4c-5.6,12.6-11.3,25.3-16.9,37.9c-0.5,0-1,0.1-1.5,0.1c-5.5-12.3-11.1-24.7-16.6-37
		C888.9,108.1,888.5,108.2,888.2,108.3z"/>
	<path class="st0" d="M721.7,144.3c7.4-0.9,6.4-6.4,6.5-11.3c0-7.4,0-14.9,0-22.3c0-4.8,1.2-10.4-6.4-11.1c6.6,0,13.2,0,19.8,0
		c-4,1.2-7,2.8-6.5,7.8c0.4,3.7,0.1,7.5,0.1,11.6c7.9,0,15.3,0,23.1,0c0-4.9,0.6-9.9-0.3-14.6c-0.3-1.9-3.9-3.2-6-4.7
		c6.4,0,13.1,0,20.7,0c-7.1,3.1-7.1,3.1-7.1,11c0,7.8,0.1,15.5,0,23.3c-0.1,4.8-0.7,9.8,6.4,10.3c-6.8,0-13.6,0-21.6,0
		c8.2-3,8.2-3,8.2-11.3c0-3.4,0-6.9,0-10.6c-7.8,0-15.1,0-23,0c0,5.7-0.5,11.5,0.3,17.1c0.2,1.8,3.6,3.2,5.7,4.8
		C735,144.3,728.4,144.3,721.7,144.3z"/>
	<path class="st0" d="M256.6,143.6c-10.3,2.8-14,1.7-19.3-5c-3.3-4.3-6.4-8.8-9.9-13c-1.2-1.4-3.2-2.2-5.9-3.9
		c0,6.8-0.6,12.3,0.3,17.5c0.4,2,4.2,3.4,6.2,5c-6.3,0-13.4,0-20.5,0c8.1-0.5,6.9-6.5,6.9-11.6c0.1-7.8,0-15.5,0-23.3
		c0-4.6,0.3-9.5-7.4-8.2c0.9-1.2,1.2-1.8,1.4-1.8c8.5,0,17.1-0.5,25.6,0.2c6.3,0.6,10,5.2,10.2,10.4c0.2,5.2-2.8,9-8.8,11.2
		c-0.7,0.3-1.5,0.5-3.1,1.1C240.6,129.2,243.6,140.7,256.6,143.6z M221.4,121.1c5.4-0.6,11.4,0.7,13.5-4.8c1.3-3.5,1.1-8.8-0.6-12.1
		c-2.5-4.7-8-3.9-12.9-3.5C221.4,107.5,221.4,113.9,221.4,121.1z"/>
	<path class="st0" d="M158.2,122.2c8.5,7,11.4,18.7,23.8,21.3c-8.4,2.9-13.6,1.7-18.1-4.1c-3.6-4.5-6.8-9.3-10.5-13.8
		c-1.3-1.5-3.5-2.2-6.3-3.8c0,5,0,8.4,0,11.8c0,8.1,0,8.1,7.6,10.4c-7.1,0-14.2,0-21.2,0c0.1-0.3,0.1-0.8,0.2-0.8
		c5.6-0.3,6.8-3.6,6.6-8.6c-0.3-7.9,0-15.9-0.1-23.8c0-4.9,1.7-10.9-7.2-11c10.7-1.4,20.9-3.4,30.9,0.8c3.9,1.7,6.1,4.7,6.2,9.3
		c0,4.8-2.3,7.8-6.2,9.9C162.4,120.8,160.8,121.2,158.2,122.2z M147.4,100.7c0,6.8,0,13.3,0,20.3c5-0.2,10.2,0.7,13.3-3.9
		c2.7-4,2.6-8.7-0.1-12.7C157.5,99.7,152.5,100.4,147.4,100.7z"/>
	<path class="st0" d="M472.7,123.6c0,2.8,0,5.6,0,8.4c0,9.1,0,9.1,8.9,12.3c-8.5,0-15.6,0-23.7,0c7.9-3.2,7.9-3.2,7.9-11.3
		c0-7.8,0-15.5,0-23.3c0-7.4,0-7.4-6.5-9.4c6.4-3.3,26-2.5,31.8,1.4c6.8,4.6,6.1,14.4-1.3,18.3c-1.6,0.8-3.3,1.3-5.8,2.3
		c8.5,6.9,11.3,18.6,23.4,21.1c-6.5,3-13.1,1.9-17-3c-3.7-4.6-7-9.6-10.8-14.2c-1.4-1.7-3.6-2.6-5.4-3.9
		C473.6,122.8,473.2,123.2,472.7,123.6z M473,120.9c5.2-0.3,10.4,0.8,13.6-4.3c2.5-4.1,2.4-8.8-0.5-12.6c-3.3-4.2-8.2-3.8-13-3.3
		C473,107.7,473,114.1,473,120.9z"/>
	<path class="st0" d="M617.6,146.1c-4.4-11.8-8.8-23.6-13.8-36.9c-4.3,13.1-8.2,25-12.2,37c-0.5,0-0.9-0.1-1.4-0.1
		c-0.7-1.9-1.5-3.8-2.1-5.8c-3.2-10.4-6.2-20.9-9.7-31.2c-1.1-3.4-3.5-6.4-5.2-9.4c4.2,0,9.7,0,16.6,0c-7.8,2.7-5,7.1-3.7,11.3
		c2.3,7.5,4.6,15,7.4,23.9c4.2-12.9,8-24.3,11.8-35.8c0.6-0.1,1.2-0.1,1.9-0.2c4.2,11.4,8.5,22.8,13.3,35.7c1.1-3.5,1.8-5.7,2.4-8
		c1.7-5.9,3.3-11.8,5-17.6c1.2-3.9,1.1-7.2-3.6-9.3c3.9,0,7.7,0,11.7,0c-8.3,7.3-7.8,18.4-11.4,27.8c-2.3,6-3.7,12.2-5.5,18.4
		C618.6,145.9,618.1,146,617.6,146.1z"/>
	<path class="st0" d="M356.7,143.6c7.5-2.1,7.5-2.1,7.5-10.5c0-7.3,0-14.5,0-21.8c0-8.6,0-8.6-7.4-12.1c8.7-0.1,17.5-1,26-0.1
		c17.1,1.8,25.7,16.9,19.4,33c-2.4,6.2-6.8,10.8-13.2,11.5c-10.7,1.2-21.5,1.2-32.3,1.7C356.8,144.7,356.7,144.2,356.7,143.6z
		 M371.2,101.1c0,12.6-0.1,24.9,0.1,37.3c0,1.4,1.6,3.7,2.8,3.9c6,1,12,0.9,16.8-3.5c6.2-5.7,7.4-20.3,2.6-29.3
		C389.6,102.1,382.2,99.2,371.2,101.1z"/>
	<path class="st0" d="M99.7,98.3c15.1,0,24.9,9.2,24.9,23.5c0,14.2-9.9,23.8-24.7,23.9c-14.8,0.1-25-9.9-24.9-24.3
		C75,107.5,84.9,98.3,99.7,98.3z M117,122.4c-0.6-3.4-0.9-7.6-2.1-11.4c-2.3-7.4-7.9-10.9-15.9-10.7c-7.4,0.2-13.3,4.1-14.5,11.6
		c-1.1,6.5-1.1,13.5,0,19.9c1.4,8,7.3,11.6,15.5,11.6c7.7,0,13-3.9,15.2-11.6C116,129.1,116.3,126.1,117,122.4z"/>
	<path class="st0" d="M1087.9,98.3c15,0,24.9,9.5,24.8,23.7c0,14-10.3,23.8-24.9,23.8c-14.9-0.1-24.8-9.8-24.7-24.4
		C1063.2,107.4,1073,98.3,1087.9,98.3z M1070.7,121.9c0.5,3.2,0.7,6.4,1.5,9.4c2.1,8.2,7.3,12.1,15.7,12.2
		c7.9,0.1,13.2-3.9,15.5-11.9c1.9-6.7,1.9-13.4-0.2-20c-2.4-7.8-7.8-11.5-15.9-11.3c-7.7,0.1-12.9,4.2-15,11.9
		C1071.4,115.3,1071.2,118.7,1070.7,121.9z"/>
	<path class="st0" d="M1160,120.1c9,1.7,11.5,4.8,11.5,12.4c0,0.8,0,1.7-0.1,2.5c-0.5,7.3-0.2,7.6,6.5,5.2c-1.7,3.9-4.6,5.5-8.8,4.5
		c-4-0.9-5.1-3.8-4.7-7.5c0.3-3.1,1.3-6.3,1.1-9.3c-0.2-1.8-2-4.7-3.4-4.9c-1.5-0.3-4.1,1.6-5.1,3.3c-1.5,2.5-1.9,5.6-3,8.4
		c-1.6,4.1-2.3,7.7,3.4,9.6c-5.8,0-11.6,0-17.4,0c6.7-1.5,6.8-7.5,8.4-12.3c2.6-8,4.7-16.2,7.4-24.2c1.4-4.2,1.5-7.1-3.9-8.1
		c5.7,0,11.5,0,17.2,0c-8.9,3-6.7,11.7-9.9,17.6c0.4,0.3,0.8,0.7,1.2,1c3.9-4.1,7.5-8.4,11.7-12.2c2.9-2.7,6.3-4.8,9.7-6.8
		c1.4-0.8,3.6-1.1,5.2-0.8c1.1,0.2,2.3,1.7,2.9,2.9c0.3,0.6-0.9,2.7-1.3,2.7c-1.2-0.1-2.8-0.5-3.5-1.4c-2.2-2.9-4.3-1.2-5.9,0.2
		C1173,108.2,1167,113.8,1160,120.1z"/>
	<path class="st0" d="M946.2,143.3c6.8,0.1,7.2-4,7.1-9c-0.2-8.3,0-16.5-0.1-24.8c0-4.2,0.9-8.9-5.5-9.9c10.6,0,21.1,0,32.4,0
		c0.3,3.4,0.6,7,1,10.8c-3.1-3.3-5.2-7.3-8.5-8.6c-3.4-1.4-7.8-0.3-12.1-0.3c0,5.9,0,11.7,0,17.5c7.7,1.7,9.5,0.8,12.2-5.5
		c0,4.9,0,9.8,0,15c-4.2-7.6-4.3-7.6-12.3-6.3c0,5.5-0.3,11.1,0.2,16.6c0.1,1.5,2.7,3.6,4.4,3.9c10,1.6,13.9-0.9,17.8-10.6
		c0.2-0.6,0.7-1.1,2.3-1.5c-0.3,4.2-0.4,8.5-0.9,12.7c-0.1,0.6-1.4,1.4-2.2,1.5c-11.8,0.1-23.6,0.1-35.4,0.1
		C946.6,144.2,946.4,143.8,946.2,143.3z"/>
	<path class="st0" d="M446.5,99.7c0.3,3.6,0.6,7,1,11c-2.9-3.4-4.9-7.5-8-8.9c-3.5-1.6-8.1-0.7-12.6-0.9c0,6.3,0,12.1,0,17.9
		c7.3,1.8,8.9,1.1,12.4-6.4c0,5.8,0,10.7,0,16.1c-1.6-2.5-2.4-5.3-4.3-6.3c-2.1-1.1-5.1-0.5-8-0.7c0,6.3-0.1,12.2,0.1,18
		c0,1,1.7,2.5,2.8,2.9c8.1,2.8,15.6-0.9,18.9-8.9c0.5-1.1,1-2.2,1.6-3.3c0.4,0.1,0.8,0.2,1.3,0.3c-0.3,4.6-0.6,9.1-1,13.8
		c-12.7,0-25.1,0-37.4,0c7-0.9,6.5-6.2,6.5-10.9c0-8.6-0.1-17.2-0.1-25.8c0-3.8-0.7-7-5.4-7.9C424.8,99.7,435.4,99.7,446.5,99.7z"/>
	<path class="st0" d="M262.5,99.4c10.5,0,21,0,32.2,0c0.4,3.6,0.7,7.2,1.2,11.6c-3.1-3.6-5.1-7.8-8.2-9.1c-3.5-1.5-8-0.3-12.7-0.3
		c0,3,0,5.9,0,8.8c0,2.9,0,5.9,0,8.7c8.5,1.4,9.7,0.8,12.5-5.8c0,5,0,9.9,0,15.4c-1.4-2.4-2.1-5.3-3.9-6.3c-2.1-1.2-5.1-0.6-8.3-0.9
		c0,6.3-0.1,12.2,0.1,18c0,1.1,1.6,2.6,2.7,3c7.9,2.9,15.8-0.8,18.9-8.7c0.5-1.2,1.1-2.3,1.6-3.4c0.5,0.1,1,0.2,1.4,0.2
		c-0.3,4.6-0.7,9.1-1.1,13.9c-12.6,0-25,0-37.4,0c7.7-1.1,6.4-6.9,6.4-11.8c0-7.8,0-15.5,0-23.3C267.9,105,268.1,100.8,262.5,99.4z"
		/>
	<path class="st0" d="M46.2,121.3c0,6.4-0.6,11.8,0.3,16.9c0.4,2.4,3.6,4.2,5.3,6c-5.6,0-12.5,0-19.4,0c7.3-0.3,6.9-5.6,6.9-10.5
		c0-8.1,0-16.2,0-24.3c0-4.5,0.4-9.4-6.5-9.7c11.4,0,22.8,0,34.7,0c0,3.3,0,6.9,0,10.1c-2.5-2.7-4.6-6.9-7.9-8.2
		c-3.7-1.5-8.4-0.3-13-0.3c0,6.2,0,12.2,0,18.4c5.6,0.6,10.2,0.4,11.8-6.3c0,5.1,0,10.2,0,16.4c-1.5-3-2.1-5.9-3.8-7
		C52.5,121.5,49.5,121.8,46.2,121.3z"/>
	<path class="st0" d="M714,99.4c0,3.6,0,7,0,10.6c-2.3-3.1-3.9-7-6.7-8.3c-3.1-1.4-7.4-0.3-11.8-0.3c0,8.7,0,17.2,0,25.8
		c0,2.3,0,4.6,0,6.9c0,7.9,0,7.9,7.4,10c-7.3,0-14.6,0-22.9,0c8.5-2.8,8.5-2.8,8.5-11.6c0-10.2,0-20.5,0-30.6
		c-10.4-2.5-12.6-1.4-18.4,9c0-4.3,0-7.8,0-11.5C684.7,99.4,699.2,99.4,714,99.4z"/>
	<path class="st0" d="M1057.5,99.4c0,3.6,0,7,0,10.6c-2.3-3.1-3.9-7-6.8-8.3c-3.1-1.4-7.4-0.3-11.5-0.3c0,12.8-0.3,25.3,0.3,37.8
		c0.1,1.8,4,3.5,6,5c-6.5,0-13.9,0-21.3,0c0.1-0.4,0.2-0.8,0.3-0.9c7.5-1.4,7.5-1.4,7.5-9.2c0-10.7,0-21.5,0-32.1
		c-10.2-2.6-12.7-1.4-18.4,8.9c0-4.3,0-7.8,0-11.5C1028,99.4,1042.4,99.4,1057.5,99.4z"/>
	<path class="st0" d="M537.3,102.4c0.9-1.2,1.7-2.2,3.1-4c0,4.9,0,8.8,0,12.6c-0.3,0.1-0.6,0.2-0.9,0.2c-0.7-1.4-1.4-2.7-2.2-4.1
		c-2.3-4.2-5.6-7.5-10.5-6.8c-2.5,0.4-5.9,2.5-6.6,4.5c-0.7,2.1,0.6,6.2,2.4,7.5c4.3,3.2,9.5,5.3,14.3,7.8c4.3,2.2,7.1,5.4,7.5,10.3
		c0.4,5.1-0.7,9.7-5.3,12.5c-5.5,3.5-11.3,3.3-17,0.5c-1.5-0.7-2.7-1.8-4.2-2.8c-0.9,1.2-1.8,2.2-3.3,4.2c0-5.9,0-10.6,0-15.3
		c0.3-0.1,0.6-0.3,0.8-0.4c0.7,1.6,1.4,3.2,2,4.8c2.8,7.2,7.9,10.5,14.5,9.2c3.8-0.7,6.3-2.9,7.1-6.7c0.8-3.6-0.5-6.7-3.7-8.5
		c-4.2-2.4-8.8-3.9-12.7-6.6c-3-2-5.9-4.9-7.3-8.1c-1.9-4.5-0.9-9.2,3.3-12.5c4.5-3.5,9.5-3.3,14.5-1.2
		C534.6,100.3,535.8,101.3,537.3,102.4z"/>
	<path class="st0" d="M351,144.3c-4.9,0-10.7,0-17.9,0c7.1-2.8,6.6-2.6,4.7-9.1c-1.7-5.7-4.8-8.1-10.6-7.1c-1.1,0.2-2.3,0-3.5,0
		c-5.6,0-10.6,5.4-9.5,11c0.4,1.8,2.7,3.3,4.4,5.2c-4.3,0-8.5,0-13.2,0c9.8-8.3,11-20.7,16.2-31c2.5-4.8,4.3-9.9,6.9-16.1
		c1.3,2.4,2.2,3.8,2.8,5.3c4.4,10.5,8.7,21.1,13.3,31.5C346.3,137.6,348.9,140.9,351,144.3z M326.3,107.6c-2.7,6.6-5,12.3-7.4,18.1
		c5.2,0,9.8,0,14.9,0C331.3,119.6,328.9,114,326.3,107.6z"/>
	<path class="st0" d="M800.6,99.4c14.6,0,29,0,43.8,0c0,3.7,0,7.1,0,11.2c-7-10.4-7-10.4-18.4-9c0,12.6-0.3,25.3,0.3,37.9
		c0.1,1.7,4.2,3.3,6.4,4.8c-6.7,0-14.1,0-21.5,0c0.2-0.5,0.2-0.9,0.3-1c7.2-1.4,7.3-1.5,7.3-8.9c0.1-10.9,0-21.7,0-32.5
		c-11.3-2.5-13.5-1.5-18.4,9.4C800.6,106.6,800.6,103.3,800.6,99.4z"/>
	<path class="st0" d="M494.3,68.3c1.6-1.6,2.2-2.8,3.2-3.2c1-0.4,2.3-0.1,3.4-0.1c34.2,0,68.4,0,102.7,0c1.2,0,2.4-0.2,3.4,0.1
		c0.7,0.2,1.3,1.1,1.9,1.7c-0.6,0.6-1.1,1.3-1.8,1.7c-0.5,0.3-1.3,0.1-2,0.1c-35.7,0-71.4,0-107.1,0
		C497.4,68.7,496.7,68.5,494.3,68.3z"/>
	<path class="st0" d="M1289.8,133.5c-1,3.2-2,6.5-3.2,9.7c-0.3,0.7-1.4,1.5-2.2,1.5c-11.3,0.1-22.6,0.1-34.4-0.6
		c8-0.9,8.1-7.4,9.8-12.6c2.5-8,4.8-16.2,7.4-24.2c1.2-3.7,1.5-6.6-3.6-7.6c6,0,12,0,18,0c-7.6,0.6-7.7,6.9-9.3,12
		c-2.5,8.2-5.1,16.4-7.5,24.6c-1.6,5.3-0.6,6.2,5,6.6c8.5,0.7,14.8-2.4,18.6-10.4C1288.9,132.9,1289.3,133.2,1289.8,133.5z"/>
	<path class="st0" d="M1249.2,133.3c-1.1,3.5-2.1,6.9-3.4,10.1c-0.2,0.6-1.5,1.2-2.3,1.2c-11.2,0.1-22.4,0.1-34-0.5
		c9.4-1.7,8.4-9.9,10.6-15.9c2.4-6.7,4.2-13.5,6.2-20.3c1.7-5.7,1.7-5.7-4.5-8.4c7.2,0,13.2,0,19.1,0c-8.7,1-8,8.7-9.9,14.3
		c-2.5,7.3-4.6,14.8-6.8,22.2c-1.7,5.6-0.8,6.4,5.2,6.8c7.7,0.5,13.6-1.9,17.5-8.7c0.2-0.4,0.7-0.7,1-1
		C1248.1,133.3,1248.3,133.3,1249.2,133.3z"/>
	<path class="st0" d="M662.5,99.7c-6.2,0.4-6.8,4.4-6.8,9.1c0.1,8.7-0.1,17.5,0.1,26.2c0.1,6.8,0.3,6.8,6.8,9.2
		c-6.7,0-13.5,0-20.2,0c8.1-0.7,6.3-6.8,6.4-11.8c0.1-7.4,0-14.9,0-22.3c0-7.7,0-7.7-6.5-10.5C649,99.7,655.8,99.7,662.5,99.7z"/>
	<path class="st0" d="M872,144.4c-6.7,0-13.4,0-20.2,0c7.7-1.1,6.6-7,6.7-12c0.2-7.6,0.2-15.2,0-22.8c-0.2-7.3-0.4-7.3-6.7-10
		c6.7,0,13.5,0,20.2,0c-8.4,0.7-6.6,7-6.7,12c-0.2,7.8-0.2,15.5,0,23.3C865.5,141.8,865.7,141.8,872,144.4z"/>
	<path class="st0" d="M1195.6,99.5c5.7,0,11.5,0,17.2,0c-6.7,1.5-6.8,7.3-8.3,12c-2.5,7.9-4.8,15.8-7.2,23.6c-1.9,6.3-1.9,6.3,4.2,9
		c-6.3,0-12.5,0-18.8,0c8.2-1.2,7.7-8.5,9.5-14c2.4-7.4,4.4-14.8,6.9-22.2C1200.5,104,1201.2,100.7,1195.6,99.5z"/>
	<path class="st0" d="M1299.8,131.5c-0.7-9.4-1.6-18.9-2-28.3c-0.1-1.2,2-2.4,3.1-3.6c0.9,1.3,2.7,2.7,2.6,4
		c-0.4,9.3-1.2,18.7-1.9,28C1301,131.6,1300.4,131.5,1299.8,131.5z"/>
	<path class="st0" d="M1300.6,136.6c1.8,2.5,3.7,4,3.6,5.4c-0.1,1.4-2.2,3.6-3.5,3.6c-1.3,0-3.4-2.1-3.6-3.5
		C1297,140.8,1298.9,139.2,1300.6,136.6z"/>
</g>
</svg>
