<?xml version="1.0" encoding="utf-8"?>
<!-- Generator: Adobe Illustrator 20.1.0, SVG Export Plug-In . SVG Version: 6.00 Build 0)  -->
<svg version="1.1" id="Layer_1" xmlns="http://www.w3.org/2000/svg" xmlns:xlink="http://www.w3.org/1999/xlink" x="0px" y="0px"
	 viewBox="0 0 729.5 81.6" style="enable-background:new 0 0 729.5 81.6;" xml:space="preserve">
<style type="text/css">
	.st0{fill:#FFFFFF;}
</style>
<g>
	<path class="st0" d="M13.8,77.4h3c4.2,0,5-0.8,5-5V5.1c0-1-0.5-1-1.1-1c-8,0.1-16.3,18.4-16.3,29.5H0V0h66.8v33.6h-4.4
		c0-11.1-8.3-29.4-16.3-29.5c-0.6,0-1.1,0-1.1,1v67.2c0,4.2,0.8,5,5,5h3v4.2H13.8V77.4z"/>
	<path class="st0" d="M66.8,68.7h1.3c2.4,0,4.3-1.4,5.1-3.7l18.2-54.7h7.3l18,55.6c0.5,1.6,1.9,2.7,3.6,2.7h1.3v3.2H92.7v-3.2h2.8
		c1.7,0,2.2-1,2.2-1.9c0-0.3-0.1-0.7-0.1-0.9L94,53.9H80.2l-3.2,10.4c-0.2,0.6-0.3,1.1-0.3,1.6c0,1.7,1.1,2.7,3.5,2.7h2.2v3.1H66.8
		L66.8,68.7L66.8,68.7z M93.1,50.8l-5.8-19.1l-6,19.1H93.1z"/>
	<path class="st0" d="M123.5,68.7h2.2c3.2,0,3.8-0.6,3.8-3.8V17.6c0-3.1-0.6-3.8-3.8-3.8h-2.2v-3.1h28.9v3.1h-2.2
		c-3.2,0-3.8,0.6-3.8,3.8v45.9c0,4.1,0.8,5.4,3.1,5.4c7.1,0,14.5-12.5,15.3-21.9h3.2l-0.6,24.8h-43.8L123.5,68.7L123.5,68.7z"/>
	<path class="st0" d="M172,68.7h2.2c3.2,0,3.8-0.6,3.8-3.8V17.6c0-3.1-0.6-3.8-3.8-3.8H172v-3.1h45.8v20.1h-3.4
		c0-11-8.3-17-17.1-17.1c-0.8,0-2.3,0.1-2.3,0.6v24.5c5,0,9.4-5.5,9.4-13h3.4v29.6h-3.4c0-8.8-4.3-13.3-9.4-13.3l-0.1,22.9
		c0,3,0.6,4.1,3.4,4.1c9.1,0,16.9-12.2,17.3-21.6h3.4l-0.8,24.4H172V68.7z"/>
	<path class="st0" d="M232.2,67.6c-1.9,0-2.1,1.9-2.2,4.3h-3.2V47.7h3.1C230.4,60,237.7,68,244.4,68c3.8,0,7.7-2.7,7.7-8.3
		c0-14.6-24.6-11.6-24.6-31.7c0-11.9,8.4-18.5,18.4-18.5c8.4,0,11.2,4.9,13.5,4.9c1.3,0,1.6-1.5,1.7-3.8h3.2v20.7H261
		c-0.1-8.6-4.6-18.1-12.8-18.1c-4.3,0-7.1,2.9-7.1,7.6c0,13.4,26.6,10.3,26.6,32.4c0,13.6-10.1,19.4-19.1,19.4
		C240,72.8,235.2,67.6,232.2,67.6z"/>
	<path class="st0" d="M277,41.2c0-12.4,7.4-21,16.9-21c9.5,0,17,8.8,17,21c0,12.2-7.5,21.1-17,21.1C284.4,62.3,277,53.7,277,41.2z
		 M298.2,51.8V30.6c0-5.8-1.8-8.6-4.3-8.6c-2.5,0-4.2,2.8-4.2,8.6v21.2c0,5.8,1.8,8.7,4.2,8.7C296.5,60.5,298.2,57.6,298.2,51.8z"/>
	<path class="st0" d="M314,59.5h1.5c2.1,0,2.5-0.4,2.5-2.5V25.4c0-2.1-0.4-2.5-2.5-2.5H314v-2.1h30.7v13.8h-2.2
		c0-7.3-5.9-11.7-11.6-11.7c-0.6,0-1.6,0-1.6,0.4v17.3c3.9,0,6.8-4,6.8-9h2.2v19.9H336c0-5.9-2.9-8.8-6.8-8.8l0,14.8
		c0.1,1.7,0.6,2,2.5,2h1.5v2.1H314V59.5z"/>
	<path class="st0" d="M362,18v54.3c0,4.2,0.8,5,5,5h3v4.2h-21v-4.2h3c4.1,0,5-0.7,5.1-5L357.3,8c-0.2-3.2-1.2-3.8-5-3.8h-3V0h31.6
		l12.9,49.4L406.4,0h30.8v4.2h-3c-4.2,0-5,0.8-5,5v63.1c0,4.2,0.8,5,5,5h3v4.2h-38v-4.2h3c4.2,0,5-0.8,5-5V17L390,81.5l-11.2,0.1
		L362,18z"/>
	<path class="st0" d="M451.4,56.9V17.9c0-3.2-0.6-3.8-3.8-3.8h-2.2V11h28.3v3.1h-1.9c-3.1,0-3.8,0.6-3.8,3.8v40.6
		c0,6.2,3.3,9.2,7.8,9.2s7.9-3,7.9-10V17.9c0-3.2-0.6-3.8-3.8-3.8H479V11h13.8v3.1h-1.5c-3.2,0-3.8,0.6-3.8,3.8v39.8
		c0,9.6-5.5,15.2-18.1,15.2C455.6,73,451.4,65.3,451.4,56.9z"/>
	<path class="st0" d="M528.5,56.6c-1.3-8.8-2.8-14.7-8.4-14.7c-0.7,0-0.8,0-1,0.1v23.2c0,3.2,0.6,3.8,3.8,3.8h2.2v3.2h-28.5v-3.2
		h2.2c3.1,0,3.8-0.6,3.8-3.8V17.9c0-3.2-0.6-3.8-3.8-3.8h-2.2V11h27.6c14.8,0,22.5,4.3,22.5,14.7c0,8.7-5.3,14.5-13.1,15.4v0.3
		c12.4,2.2,13.6,15.5,13.9,18.9c0.1,1.4-0.1,3.8,1.5,3.8c1.6,0,2.5-2.5,2.8-6.4l3.2,0.5c-0.3,8.8-4.6,14.9-13,14.9
		C531,73.1,529.4,62.9,528.5,56.6z M529.4,26.6c0-8.3-2.6-13-8.4-13c-0.7,0-1.3,0.1-1.8,0.2v25.3c0.5,0.2,1.1,0.3,1.9,0.3
		C526.9,39.4,529.4,34.7,529.4,26.6z"/>
	<path class="st0" d="M556.7,9.4L556.7,9.4L556.7,9.4L556.7,9.4z M558.2,69h2.2c3.2,0,3.8-0.6,3.8-3.8V17.9c0-3.2-0.6-3.8-3.8-3.8
		h-2.2V11h26.6c15.5,0,26.4,9.4,26.4,30.4c0,19.7-9.8,30.8-26.4,30.8h-26.6V69z M593.6,41.6c0-18.2-2.9-27.7-10.4-27.7
		c-0.7,0-1.5,0.1-2,0.2v54.8c0.5,0.2,2,0.2,2.5,0.2C590.6,69.2,593.6,59.9,593.6,41.6z"/>
	<path class="st0" d="M616.6,69h2.2c3.2,0,3.8-0.6,3.8-3.8V17.9c0-3.2-0.6-3.8-3.8-3.8h-2.2V11h45.7v20.1h-3.4
		c0-11-8.3-17-17.1-17.1c-0.8,0-2.3,0.1-2.3,0.6v24.5c5,0,9.4-5.5,9.4-13h3.4v29.6h-3.4c0-8.8-4.3-13.4-9.4-13.4l-0.1,23
		c0,3,0.6,4.1,3.4,4.1c9.1,0,16.9-12.2,17.3-21.6h3.4l-0.8,24.4h-46.1L616.6,69L616.6,69z"/>
	<path class="st0" d="M703.1,56.6c-1.3-8.8-2.8-14.7-8.4-14.7c-0.7,0-0.8,0-1,0.1v23.2c0,3.2,0.6,3.8,3.8,3.8h2.2v3.2h-28.5v-3.2
		h2.2c3.1,0,3.8-0.6,3.8-3.8V17.9c0-3.2-0.6-3.8-3.8-3.8h-2.2V11h27.6c14.8,0,22.5,4.3,22.5,14.7c0,8.7-5.3,14.5-13.1,15.4v0.3
		c12.4,2.2,13.6,15.5,13.9,18.9c0.1,1.4-0.1,3.8,1.5,3.8c1.6,0,2.5-2.5,2.8-6.4l3.1,0.5c-0.3,8.8-4.6,14.9-13.1,14.9
		C705.6,73.1,704,62.9,703.1,56.6z M704,26.6c0-8.3-2.6-13-8.4-13c-0.7,0-1.3,0.1-1.8,0.2v25.3c0.5,0.2,1.1,0.3,1.9,0.3
		C701.5,39.4,704,34.7,704,26.6z"/>
</g>
</svg>
