<?xml version="1.0" encoding="utf-8"?>
<!-- Generator: Adobe Illustrator 20.1.0, SVG Export Plug-In . SVG Version: 6.00 Build 0)  -->
<svg version="1.1" id="Layer_1" xmlns="http://www.w3.org/2000/svg" xmlns:xlink="http://www.w3.org/1999/xlink" x="0px" y="0px"
	 viewBox="0 0 1274.7 90.8" style="enable-background:new 0 0 1274.7 90.8;" xml:space="preserve">
<style type="text/css">
	.st0{fill:#242424;}
</style>
<g>
	<path class="st0" d="M582.5,90.8c0-2.3,0-4.7,0-6.9c11.4-4.2,12.3-5.2,12.4-17.2c0.2-15.4,0.1-30.8,0-46.3c0-11.6-0.7-12.4-12-14.6
		C582.8,4,582.6,2,582.5,0c12.9,0,25.8,0,38.8,0c0.4,1.3,0.7,2.7,1.3,4c6.6,14.2,13.3,28.4,20,42.6c1.8,3.8,3.6,7.5,5.6,11.9
		c9.6-20,18.8-39.2,28-58.5c12.6,0,25.2,0,37.8,0c0,2,0,4,0,5.9c-11.2,1.4-12.8,1-12.8,14.7c0,16.5,0,33,0,49.6c0,10.8,1.2,12,12,13
		c0.2,0,0.5,0.3,0.8,0.6c0,2.3,0,4.6,0,6.9c-16.7,0-33.4,0-50.1,0c0-2.5,0-5,0-7.4c11.7-1.2,12.8-2.3,12.8-13.8c0-14.5,0-29,0-43.5
		c0-1.5-0.2-3.1-0.3-4.6c-0.3,0-0.7,0-1,0c-10.8,23.1-21.5,46.2-32.3,69.2c-1.9,0-3.8,0-5.7,0c-11.1-23.1-22.1-46.1-33.2-69.2
		c-0.9,13.9-0.9,27.4-0.9,41c0,3.3,0,6.6,0.4,9.9c0.7,6,3.1,8.6,8.9,10.1c1.2,0.3,2.4,0.6,3.9,1c0,2.5,0,4.8,0,7.2
		C605.2,90.8,593.9,90.8,582.5,90.8z"/>
	<path class="st0" d="M891.7,90.8c-16.7,0-33.4,0-50.1,0c0.1-2.5,0.3-4.9,0.4-7.3c11.8-1.5,12.8-2.6,12.8-14.3c0-16.8,0-33.7,0-50.5
		c0-9.8-1.7-11.5-11.2-12.3c-0.6,0-1.1-0.4-1.7-0.6c-0.1-2.1-0.2-3.9-0.3-5.8c23,0,46,0,69,0c1.5,0.8,3,1.6,4.5,2.4
		c8.6,4.4,13.2,11.6,13.2,21.2c0,9.6-5,16.3-13.6,20.3c-1.3,0.6-2.6,1.3-3.3,1.6c6.1,8.9,12.1,17.5,18.1,26.1
		c3.8,5.5,7.4,11.1,15.2,11.7c0,2.8,0,5.1,0,7.4c-10.1,0-20.2,0-30.3,0c-7-11.9-13.9-23.9-21-35.6c-3.2-5.2-8.4-5.1-14.1-4.5
		c0,6.9,0,13.5,0,20.1c0,10.2,1.3,11.6,11.5,12.5c0.2,0,0.5,0.3,0.9,0.7C891.7,86.1,891.7,88.4,891.7,90.8z M879.4,41.6
		c8.4-0.2,16.9,1.3,21.6-7.7c3.3-6.4,2.5-17.9-1.7-21.9c-5.6-5.4-12.7-4.8-19.8-4.4C879.4,19.1,879.4,30,879.4,41.6z"/>
	<path class="st0" d="M1222.7,90.8c-16.7,0-33.4,0-50.1,0c0-2.5,0-4.9,0-7.4c11.6-1.4,12.4-2.3,12.5-14c0-16.2,0-32.4,0-48.6
		c0-12.7-0.2-12.9-12.5-14.9c0-1.9,0-3.9,0-5.9c22.7,0,45.4,0,68.1,0c2,1,4,1.8,5.9,2.9c8.2,4.7,12.4,11.8,12.1,21.4
		c-0.2,9.1-5,15.3-12.9,19.3c-1.5,0.7-3,1.4-4.5,2.1c2.9,3.6,5.8,6.9,8.3,10.5c4.6,6.5,9.1,13.2,13.6,19.8c2.8,4.1,6.6,6.7,11.6,7.2
		c0,2.5,0,5,0,7.6c-9.8,0-19.5,0-29.3,0c-6.9-11.5-13.7-23-20.7-34.3c-3.6-5.8-7.9-7.2-15.2-5.4c0,6.2,0,12.5,0,18.8
		c0,10.9,1.2,12.2,11.8,13.4c0.3,0,0.5,0.4,0.7,0.6C1222.2,86.1,1222.4,88.5,1222.7,90.8z M1209.6,41.6c8.3-0.3,16.8,1.4,21.6-7.4
		c3.4-6.2,2.6-17.5-1.3-22c-3.6-4.1-13.8-6.2-20.3-4C1209.6,19,1209.6,30,1209.6,41.6z"/>
	<path class="st0" d="M955.1,0c22.7,0,45.4,0,68.1,0c0.7,0.4,1.3,0.8,2,1.1c19.6,7.8,29.9,22.6,30.2,43.5
		c0.4,22.9-13.9,40.7-35.9,44.9c-2.2,0.4-4.5,0.9-6.7,1.3c-19.2,0-38.5,0-57.7,0c0-2.5,0-4.9,0-7.3c10.7-1.8,11.7-3,11.8-13.8
		c0.1-9.4,0.1-18.8,0-28.3c-0.1-8.9,0-17.9-0.4-26.8c-0.2-5.6-2.3-7.4-7.9-8c-1.1-0.1-2.1-0.2-3.5-0.3C955.1,4,955.1,2,955.1,0z
		 M991.2,6.9c0,3.9,0,8,0,12c0,17.5-0.1,35,0,52.4c0,8.5,2.7,10.9,11.1,10.9c11.3,0,19-5.4,22.4-16.6c4-13.1,4.3-26.4,0.2-39.5
		C1020.4,11.6,1006.1,3.5,991.2,6.9z"/>
	<path class="st0" d="M289.4,90.8c0.1-2.3,0.2-4.7,0.3-6.9c0.4-0.3,0.7-0.6,0.9-0.6c10.4-1.1,11.5-2.4,11.5-13
		c0-16.1,0.2-32.2-0.1-48.2c-0.2-11.1,2.6-14-12.3-16.5c-0.1-1.8-0.2-3.7-0.4-5.5c26.5,0,53,0,79.4,0c0,7.4,0,14.7,0,22.2
		c-6.3,1.4-6.5,1.5-9.1-4.8c-3-7.3-8-10.9-16-10.6c-5.5,0.2-10.9,0-16.7,0c0,10.6,0,20.6,0,30.6c10.9,3.7,16.6,0.6,18.6-10.2
		c2.3,0,4.6,0,7.2,0c0,10.4,0,20.5,0,31c-2.4,0-4.6,0-6.9,0c-2.9-11.5-4.6-12.4-19.3-10.9c0,4,0,8.2,0,12.4c0,4.9,0.1,9.8,0.1,14.6
		c0,4.1,2.1,6.2,5.9,7.3c15.3,4.4,26.9-0.9,32.1-15.8c1.9-5.4,4.5-6.3,9.6-4.9c0,9.9,0,19.9,0,29.9
		C346.1,90.8,317.7,90.8,289.4,90.8z"/>
	<path class="st0" d="M1151.8,0c0,7.4,0,14.7,0,22.5c-3.6,0.5-7.2,1.2-8.9-4.8c-2.3-7.9-8.2-11.5-16.6-11
		c-5.3,0.3-10.6,0.1-16.3,0.1c0,10.6,0,20.6,0,30.6c10.8,3.7,16.6,0.7,18.7-10.1c2.4,0,4.8,0,7.5,0c0,10.3,0,20.3,0,30.8
		c-2.4,0-4.8,0-7.3,0c-3-11.3-5.7-12.8-18.7-10.7c0,9.8-0.3,19.7,0.3,29.5c0.1,1.8,4.1,4.6,6.5,4.9c18.7,2.4,25.2-0.9,31.5-16.9
		c0.5-1.3,0.9-2.7,1.4-4.2c2.4,0,4.7,0,7.4,0c0,10.1,0,20.2,0,30.2c-28.4,0-56.7,0-85.1,0c0.1-2.5,0.3-4.9,0.4-7.3
		c11.7-1.5,12.7-2.6,12.7-14.4c0-16.7,0-33.4,0-50c0-10.1-1.1-11.3-10.7-12.8c-0.6-0.1-1.2-0.3-2-0.5c-0.1-1.9-0.3-3.8-0.4-5.6
		C1098.8,0,1125.3,0,1151.8,0z"/>
	<path class="st0" d="M727.2,0c16.4,0,32.8,0,49.2,0c-0.3,2.1-0.7,4.2-1,6.2c-9.8,0.9-11.8,2-11.8,9.6c-0.2,16.5,0,33,0.8,49.5
		c0.4,9.1,7,15.3,15.8,17.1c15.5,3.2,27.6-6.2,28.3-22.6c0.5-12.4,0.3-24.9,0.3-37.3c0-11.3-2.3-14.2-13.4-16.5c0-1.9,0-3.9,0-5.9
		c11.3,0,22.7,0,34,0c0,2,0,4,0,5.9c-9.6,2.9-11.4,5.3-11.5,15.3c-0.1,11.5,0,22.9,0,34.4c-0.1,12.7-3.3,24-15.1,31
		c-2.7,1.6-5.6,2.8-8.4,4.2c-10.7,0-21.4,0-32.2,0c-1.6-0.9-3.2-1.8-4.9-2.6C746.1,83,740.4,74.1,739.5,62c-0.4-5.3-0.4-10.7-0.5-16
		c-0.1-10.5,0-21-0.4-31.5c-0.2-5.7-2.2-7.2-7.9-7.9c-1.1-0.1-2.1-0.2-3.5-0.4C727.2,4,727.2,2,727.2,0z"/>
	<path class="st0" d="M417,90.8c-4.1-2.5-8.2-5.1-12.4-7.7c-1,1.9-1.5,4.8-3.3,5.9c-1.6,1.1-4.5,0.2-7,0.2c0-10.6,0-20.8,0-31.3
		c2.7,0,5.2,0,7.7,0c1.9,4.5,3.4,9.2,5.7,13.4c3.9,7.1,10,11.6,18.4,12.3c6.1,0.5,10.9-2.4,12.8-7.6c1.9-5,0.2-10.5-5.2-13.8
		c-6.1-3.8-12.7-6.9-19-10.4c-3.2-1.7-6.4-3.4-9.3-5.5c-15.4-10.9-15.5-32.7-0.4-43.9c1.1-0.8,2.3-1.7,3.4-2.5c14.8,0,29.6,0,44.4,0
		c0,8.4,0,16.9,0,25.1c-7.5,1.8-7.4,1.7-10-4.4c-3.4-7.8-8.2-14.3-17.5-15.3c-5.6-0.6-10.4,2-12,6.3c-1.7,4.4-0.3,9.8,4.1,13
		c3.7,2.6,7.9,4.4,11.9,6.6c5.3,2.8,10.8,5.2,15.9,8.2c20.2,12,20,37.6-0.2,49.5c-0.9,0.5-1.7,1.2-2.6,1.8
		C434,90.8,425.5,90.8,417,90.8z"/>
	<path class="st0" d="M144.7,0c8.9,21.9,17.7,43.7,26.6,65.6c0.9,2.2,1.8,4.3,2.8,6.5c2.4,5.6,5.5,10.3,12.3,11.1
		c0.3,2.7,0.6,5.2,0.9,7.6c-15.4,0-30.9,0-46.3,0c0-2.5,0-4.9,0-7.3c10.1-1.5,10.4-1.9,6.7-11.3c-0.5-1.2-0.6-2.6-1.4-3.5
		c-1-1.1-2.4-2.5-3.7-2.5c-7.5-0.2-15.1-0.2-22.6-0.1c-1,0-2.7,0.4-2.8,1c-1.2,4-3.2,8.1-2.9,12c0.3,4,5,3.4,8,4.2
		c0.3,0.1,0.5,0.4,0.8,0.6c0,2.2,0,4.6,0,6.9c-10.1,0-20.2,0-30.3,0c0-2.3,0-4.7,0-7.3c8.2-1.9,11.5-8.4,14.3-15.4
		c8.7-21.8,17.4-43.7,26.1-65.5c0.3-0.9,0.8-1.7,1.2-2.5C137.7,0,141.2,0,144.7,0z M141.8,57.6c-3.7-8.7-7.1-17.1-11-26.4
		c-3.6,9.2-7,17.6-10.4,26.4C127.7,57.6,134.4,57.6,141.8,57.6z"/>
	<path class="st0" d="M91.7,0c0,8.2,0,16.3,0,24.4c-7,1.5-7.1,1.4-9.1-4.8c-3.1-9.6-7-12.4-17.3-12.5c-2.3,0-4.7,0-7.6,0
		c0,2.1,0,3.8,0,5.4c0,18.7,0,37.4,0,56.1c0,12.5,0.8,13.3,13.2,14.8c0,2.4,0,4.9,0,7.3c-17,0-34,0-51.1,0c0.1-2.5,0.3-4.9,0.4-7.3
		c12.3-1.5,13-2.3,13-14.4c0-18.9,0-37.7,0-56.6c0-1.7,0-3.3,0-4.9C15.6,5.4,12.6,7.4,6.9,24.8C4.6,25,2.3,25.3,0,25.5
		C0,17,0,8.5,0,0C30.6,0,61.2,0,91.7,0z"/>
	<path class="st0" d="M193.9,90.8c0-2.3,0-4.7,0-6.8c0.5-0.4,0.7-0.7,0.9-0.7c10.1-0.9,11.5-2.4,11.5-12.6c0.1-16.7,0-33.4,0-50
		c0-12.1-0.6-12.8-12.5-14.7c0-1.9,0-3.9,0-5.9c16.7,0,33.4,0,50.1,0c-0.3,2-0.6,4-0.9,5.9c-0.4,0.2-0.7,0.5-0.9,0.5
		c-10.1,0.7-11.4,2.2-11.4,12.4c0,17.8,0,35.5,0,53.3c0,7,2.1,9.3,8.9,10.1c16.3,1.9,25.5-3.7,30.4-19.3c1.5-5,4.9-2.3,8-3.2
		c0,10.7,0,20.9,0,31.2C250,90.8,221.9,90.8,193.9,90.8z"/>
	<path class="st0" d="M513.5,0c12.4,8.3,16.9,17.9,13.7,29.6c-3.7,13.7-18.1,20.8-33.8,16.8c-10.4-2.7-16.5-9.6-17.9-20.1
		c-1.3-10.4,3.2-19.6,12.1-24.7c0.8-0.4,1.5-1.1,2.2-1.6C497.7,0,505.6,0,513.5,0z M489.4,22.5c0.8,4.4,1.3,8.9,2.5,13
		c1.4,4.5,4.7,7,9.6,7c5,0,8.6-2.4,10.1-7.1c2.7-8.5,2.6-17.1-0.3-25.5c-1.5-4.5-5.1-6.8-9.8-6.8c-4.7,0-8.3,2.3-9.7,6.9
		C490.7,14.1,490.2,18.3,489.4,22.5z"/>
	<path class="st0" d="M575.9,0c0,3.7,0,7.5,0,12c-1.5-0.5-3.7-0.6-3.9-1.4c-2.7-8.7-9.6-7-16.3-6.8c0,5,0,9.9,0,15.1
		c3.6,0.8,7,1.3,8-3.6c0.1-0.6,1.6-1.5,2.3-1.3c0.7,0.1,1.7,1.3,1.7,2.1c0.2,4.5,0.1,9.1,0.1,15c-1.9-1.1-4-1.6-4.1-2.5
		c-0.8-5.2-4.2-4.6-8.3-4.1c0,4.7-0.3,9.4,0.2,14c0.1,1.3,2.3,2.4,3.6,3.7c1,1,2.1,2,3.1,2.9c-0.3,0.3-0.6,0.7-0.8,1
		c-8.2,0-16.3,0-26.2,0c1.6-1.8,2.3-3.5,3.5-3.8c3-0.9,4-2.7,4-5.5c0-9.3,0-18.6,0-27.9c0-3-0.8-5.1-4.3-5.7
		c-0.9-0.2-1.6-2.1-2.3-3.2C549.4,0,562.6,0,575.9,0z"/>
	<path class="st0" d="M470.9,65.1c1.4-1.5,2-2.6,2.9-3c0.9-0.4,2.2-0.1,3.3-0.1c32.6,0,65.2,0,97.8,0c0.9,0,2-0.2,2.8,0.1
		c0.9,0.3,1.6,1.1,2.3,1.6c-0.7,0.6-1.4,1.3-2.2,1.7c-0.5,0.3-1.2,0.1-1.9,0.1c-33.4,0-66.8,0-100.1,0
		C474.6,65.4,473.4,65.2,470.9,65.1z"/>
</g>
</svg>
