<?xml version="1.0" encoding="utf-8"?>
<!-- Generator: Adobe Illustrator 20.1.0, SVG Export Plug-In . SVG Version: 6.00 Build 0)  -->
<svg version="1.1" id="Layer_1" xmlns="http://www.w3.org/2000/svg" xmlns:xlink="http://www.w3.org/1999/xlink" x="0px" y="0px"
	 viewBox="0 0 1338 146.1" style="enable-background:new 0 0 1338 146.1;" xml:space="preserve">
<style type="text/css">
	.st0{fill:#FFFFF0;}
</style>
<g>
	<path class="st0" d="M573,0.1c0,36.8,0,73.5,0,110.6c-15,0-29.7,0-45,0c0-36.9,0-73.8,0-110.6C543,0.1,558,0.1,573,0.1z
		 M534.3,25.1c1,4.3,1.6,8.6,3,12.6c2.2,6.1,7,9.1,13,8.9c5.9-0.1,10.4-3.4,12.6-9.6c2.8-7.9,2.8-16-0.1-23.9
		c-2.1-5.9-6.2-8.9-11.8-9c-7.1-0.2-11.3,2.1-13.7,8.4C535.9,16.4,535.4,20.8,534.3,25.1z M559.3,65.2c-6.1,0-11.7,0-17.6,0
		c0,13.6,0,27,0,40.6c3.9,0,7.5,0,11.6,0c0-5.3,0-10.3,0-15.4c2.3-0.3,4.1-0.5,5.8-0.7c0-3.1,0-5.8,0-8.5c-2.1-0.3-3.9-0.6-5.9-0.9
		c0.1-1.9,0.2-3.5,0.2-5.1c2.2-0.3,3.9-0.6,5.8-0.9C559.3,71.3,559.3,68.5,559.3,65.2z"/>
	<path class="st0" d="M1000,81.1c0,8.8,0,17.6,0,26.7c-9.8,0-19.4,0-29.2,0c0-34.4,0-68.6,0-103.5c18.8-3.3,37.4-3.9,54.1,7.5
		c17.3,11.9,18.5,37.5,2.7,52.2c-2.8,2.6-2.8,4.5-1.4,7.6c4.8,10.4,9.4,20.9,14.1,31.4c0.7,1.5,1.2,3,2,4.9c-11,0-21.4,0-32.1,0
		c-3-9-6.1-18.1-9.1-27.1C1000.7,80.9,1000.4,81,1000,81.1z M1000.4,49.8c6.4-0.2,9.3-3.9,9.1-11.1c-0.2-6.6-3.2-9.8-9.1-9.7
		C1000.4,35.9,1000.4,42.9,1000.4,49.8z"/>
	<path class="st0" d="M757.2,4.3c13.5-2.6,26.7-3,39.8,0.8c29.6,8.6,37.2,38.4,15.6,60.4c-0.9,1-1.1,3.6-0.5,5
		c4.6,10.9,9.6,21.6,14.4,32.4c0.7,1.5,1.2,3,2,5c-10.8,0-21.2,0-32.1,0c-2.9-8.5-5.8-17.2-8.7-25.9c-0.4,0.1-0.8,0.1-1.2,0.2
		c0,8.5,0,17.1,0,25.8c-10.1,0-19.5,0-29.4,0C757.2,73.4,757.2,39.1,757.2,4.3z M786.7,50c6.6-0.8,9.5-4.9,9.1-11.6
		c-0.4-6.2-3.3-9.2-9.1-9.4C786.7,35.9,786.7,42.8,786.7,50z"/>
	<path class="st0" d="M676.3,4.5c10.1,0,19.7,0,29.9,0c0,2,0,3.8,0,5.6c0,20.3,0,40.7,0,61c0,1.5-0.2,3,0.1,4.5
		c0.6,2.7,0,6.6,4.4,6.5c4.1-0.1,3.7-3.7,4.1-6.3c0.4-2.5,0.2-5,0.2-7.5c0-19.3,0-38.7,0-58c0-1.8,0-3.6,0-5.7c10,0,19.6,0,29.5,0
		c0.2,0.8,0.5,1.7,0.5,2.7c0,21.5,0,43-0.2,64.5c0,3.3-0.4,6.7-1,9.9c-4.2,24.3-28.2,36.1-50.3,24.8c-7.1-3.6-11.7-9.4-14.1-16.8
		c-1.5-4.9-3-10-3-15.1C676.1,51.4,676.3,28.3,676.3,4.5z"/>
	<path class="st0" d="M615.1,107.9c-10.4,0-20,0-29.9,0c0-34.5,0-68.7,0-103.1c3.3-1.4,5.2,0.1,7,2.7c9.3,13.4,18.7,26.7,28.1,40.1
		c1.3,1.9,2.7,3.7,4.4,6.1c4.8-6.9,9.4-13.4,14-19.9c6.2-8.9,12.3-17.8,18.7-26.5c1.2-1.7,3.5-2.5,6.4-4.5c0,36.1,0,70.3,0,105
		c-9.4,0-19,0-29.1,0c0-8.1,0-16.3,0-24.6c-0.4-0.2-0.8-0.3-1.2-0.5c-2.9,3.8-5.8,7.6-8.8,11.7c-3.1-4.2-5.9-8-9.5-13
		C615.1,91,615.1,99.3,615.1,107.9z"/>
	<path class="st0" d="M834.8,108.1c0-34.8,0-69,0-103.6c18.5-1.5,36.3-0.8,51.9,10.1c17,11.8,21.2,29.2,18.7,48.5
		c-3.4,27-20.7,42.9-48.3,45C849.9,108.5,842.6,108.1,834.8,108.1z M865.2,31.4c0,16.1,0,31.8,0,47.5c6-0.9,9.6-7,10.7-17.6
		C877.5,46.1,873.5,34.3,865.2,31.4z"/>
	<path class="st0" d="M452,81.6c4.9,0,9.5,0,14.5,0c0,8.9,0,17.3,0,26.1c-14.7,0-29.6,0-44.7,0c0-34.2,0-68.5,0-103.1
		c14.9,0,29.6,0,44.7,0c0,8,0,15.9,0,24.3c-4.8,0-9.5,0-14.6,0c0,5.2,0,9.9,0,15.1c4.9,0,9.7,0,14.7,0c0,7.8,0,15,0,22.9
		c-4.7,0-9.4,0-14.6,0C452,72,452,76.4,452,81.6z"/>
	<path class="st0" d="M915.1,4.5c15,0,29.6,0,44.5,0c0,8.1,0,16,0,24.4c-4.6,0-9.4,0-14.5,0c0,5.2,0,9.9,0,15.1c4.8,0,9.5,0,14.5,0
		c0,7.9,0,15.3,0,23.3c-4.9,0-9.7,0-14.6,0c0,5,0,9.4,0,14.3c5,0,9.8,0,14.7,0c0,9,0,17.5,0,26.2c-14.9,0-29.6,0-44.7,0
		C915.1,73.5,915.1,39.2,915.1,4.5z"/>
	<path class="st0" d="M289.3,108.1c5.7-17.5,11.1-34.2,16.6-51c5.3-16.4,10.6-32.9,16.1-49.3c0.5-1.4,2.4-3.1,3.8-3.3
		c0.9-0.2,2.9,1.8,3.4,3.2c10.7,32.5,21.2,65.1,31.8,97.7c0.2,0.7,0.3,1.6,0.4,2.7c-8.6,0-16.9,0-25.2,0c-0.7,0-1.7,0-1.9-0.3
		c-2.8-6.3-8.4-2.6-12.7-3.4c-1-0.2-2.4,1.1-3.5,1.8c-1.2,0.6-2.3,1.8-3.4,1.8C306.5,108.2,298.3,108.1,289.3,108.1z M328.5,88.6
		c-1-3.4-1.8-6.2-3-10.4c-1.1,4.3-1.9,7.2-2.8,10.4C324.7,88.6,326.1,88.6,328.5,88.6z"/>
	<path class="st0" d="M296.9,4.6c0,8.2,0,16.1,0,24.5c-4.9,0-9.7,0-14.8,0c0,26.4,0,52.4,0,78.7c-10.1,0-19.8,0-29.9,0
		c0-25.9,0-51.9,0-78.3c-5.1,0-9.8,0-15,0c0-8.5,0-16.5,0-24.8C257.1,4.6,276.9,4.6,296.9,4.6z"/>
	<path class="st0" d="M367.8,107.8c0-34.3,0-68.5,0-103.2c9.7,0,19.3,0,29.4,0c0,25.3,0,50.6,0,76.8c5.5,0,10.3,0,15.3,0
		c0,9.2,0,17.6,0,26.3C397.6,107.8,382.8,107.8,367.8,107.8z"/>
	<path class="st0" d="M516.3,15.6c-12.6,11.5-10.7,24.7-5.7,38.1c3,8.2,6.1,16.2,5.4,25.1c-0.9,11.7-5.2,21.9-13.7,30.1
		c-2.1,2-3.8,2.4-6.5,0.7c-7.1-4.5-14.5-8.7-22.1-13.3c1.1-1.4,2-2.6,2.9-3.7c7.9-10.6,9.9-21.9,4.1-34.2c-6.4-13.5-7.8-27.4-2-41.6
		c0.8-2,1.8-3.9,2.9-5.8c6.6-10.7,8.6-11.2,19.2-4.9C505.8,9.2,510.8,12.3,516.3,15.6z"/>
	<path class="st0" d="M680.5,140.3c-4.8,0-8.9,0-13.1,0c0-7.2,0-14.1,0-21.3c4.3,0,8.4,0,12.8,0c0.1,2-0.1,3.8,0.4,5.5
		c0.2,0.9,1.5,1.6,2.3,2.4c0.6-0.8,1.7-1.5,1.8-2.3c0.3-1.8,0.1-3.6,0.1-5.7c4.6,0,8.6,0,13,0c0,7.2,0,14.1,0,21.4
		c-4.1,0-8.2,0-13,0c0-2.1,0.2-4-0.1-5.9c-0.2-0.9-1.5-1.6-2.3-2.4c-0.6,0.8-1.7,1.5-1.8,2.3C680.3,136.1,680.5,137.9,680.5,140.3z"
		/>
	<path class="st0" d="M383.6,139.6c-6,0-13,4.3-17.2-4.8c-0.4,2.4-0.6,3.7-0.9,5.4c-4,0-8.1,0-12.6,0c0-7,0-14.1,0-22.5
		c7.4,0.6,14.6,0.7,21.7,2c3,0.5,6.3,3.1,7.9,5.7c0.6,1-2.9,4.7-4.8,7.6C379.3,134.7,381.4,137.1,383.6,139.6z"/>
	<path class="st0" d="M330.4,133c1.7,1.9,3.9,4.3,7,7.8c-7-1.2-13.8,2.9-18.1-5.7c-0.6,2.2-1,3.7-1.4,5.2c-4.1,0-8,0-12.7,0
		c0-6.8-0.1-13.3,0.1-19.9c0-0.8,1.7-2.2,2.5-2.1c6.8,0.3,13.6,0.4,20.2,1.6c2.8,0.5,5.9,3.1,7.2,5.7
		C335.9,126.8,332.5,130.1,330.4,133z"/>
	<path class="st0" d="M506.2,140.2c0-7.1,0-14.1,0-21.7c9-0.7,17.8-1.1,26.2,2.7c1.7,0.7,4,3.4,3.7,4.5c-0.7,2.4-2.9,4.4-4.9,7.1
		c1.6,1.8,3.8,4.4,7,8.1c-7-1.4-14.1,3.3-18.4-6.7c-0.5,2.9-0.7,4.3-0.9,6C514.7,140.2,510.6,140.2,506.2,140.2z"/>
	<path class="st0" d="M764.4,117.4c5.2,3.5,9.5,5.9,13.3,9c3.2,2.6,5.5,2.4,8.6,0c3.8-3,8.1-5.4,13.1-8.7c0,8.3,0,15.3,0,22.6
		c-4,0-8.1,0-12.4,0c-0.3-1.5-0.6-2.9-0.7-3.8c-2.7,0-5.3,0-8.4,0c-0.2,0.7-0.5,2.2-0.9,3.8c-4.3,0-8.3,0-12.6,0
		C764.4,133,764.4,126.1,764.4,117.4z"/>
	<path class="st0" d="M931.7,118.9c0.1,1.7,0.3,3.4,0.5,6.4c3.9-10,11.1-5.9,18-6.7c-7.8,7.8-8.4,14.6,0.9,20.7
		c-8.6,3.2-13.7,1.5-18.8-6.1c-0.2,2.6-0.4,4.6-0.6,7c-4.2,0-8.3,0-12.7,0c0-7.2,0-14.1,0-21.3C923.4,118.9,927.5,118.9,931.7,118.9
		z"/>
	<path class="st0" d="M885.5,117.5c3.5,0.8,6.9,1.3,10.2,2.5c4.4,1.5,6.7,4.9,6.7,9.5c0,4.6-2.2,7.9-6.5,9.7
		c-6.8,2.7-13.6,2.8-20.4,0.1c-4.3-1.7-6.6-4.9-6.7-9.6c0-4.7,2.3-8,6.5-9.6C878.6,118.9,882.1,118.4,885.5,117.5z M890.1,129.6
		c-1.7-2.2-3-3.8-4.3-5.4c-1.1,1.9-2.9,3.8-3,5.7c-0.1,1.7,1.9,3.4,3,5.2C887,133.4,888.3,131.8,890.1,129.6z"/>
	<path class="st0" d="M284.1,141.9c-3.9-1.1-8-1.7-11.4-3.5c-7.1-3.7-7.2-13.6-0.2-17.5c7.6-4.2,15.8-4.2,23.4-0.1
		c7.3,3.8,7.1,14.1-0.3,17.8C292.3,140.3,288.2,140.8,284.1,141.9z M279.9,129.4c1.7,2.3,2.9,4,4.2,5.6c1.1-1.7,3.1-3.4,3.1-5.1
		c0-1.9-1.8-3.9-2.9-5.8C283,125.7,281.7,127.3,279.9,129.4z"/>
	<path class="st0" d="M445.3,140.7c0-7.7,0-14.7,0-22.2c8.9-0.3,17.4-0.2,25.5,3.3c3.3,1.4,6.8,3.8,5.9,7.6
		c-0.7,2.9-3.1,6.4-5.8,7.8C463,141.3,454.2,141.2,445.3,140.7z M458.8,134c0.5,0.3,1,0.5,1.4,0.8c1.2-1.7,3.1-3.4,3.3-5.2
		c0.3-2.7-1.3-4.8-4.8-4.9C458.8,128,458.8,131,458.8,134z"/>
	<path class="st0" d="M572.1,118.3c7.5,1.3,15.6-3.7,17.8,7.7c1.6-1.7,2.7-2.9,4.5-4.7c0.9,1.5,1.7,2.9,3.3,5.7
		c2.9-11.5,10.5-7.9,18.2-8.2c-4.7,7.5-8.9,14.2-13.3,20.7c-0.3,0.5-3,0.2-3.8-0.5c-1.7-1.5-2.8-3.6-4.4-5.8
		c-0.8,0.9-1.5,1.5-2.1,2.3c-5,6.7-5,6.7-9.4-0.2C579.5,130,576.3,124.8,572.1,118.3z"/>
	<path class="st0" d="M407.3,118.9c0,1.8,0,3.1,0,4.6c-2.2,0.3-4.2,0.6-6.3,0.8c-0.1,0.5-0.2,1.1-0.3,1.6c2,0.5,4,0.9,6.4,1.5
		c0,1.1,0,2.5,0,3.6c-2.3,0.9-4.2,1.6-6.2,2.3c1.9,0.8,3.7,1.7,6.2,2.8c0,0.7,0,2.2,0,4.1c-6.3,0-12.6,0-19.2,0c0-7.1,0-14.1,0-21.4
		C394.3,118.9,400.6,118.9,407.3,118.9z"/>
	<path class="st0" d="M805.4,140.3c0-7.2,0-14.1,0-21.4c6.5,0,12.8,0,19.4,0c0.1,1.5,0.2,2.9,0.3,4.5c-2.3,0.4-4.3,0.7-6.3,1
		c-0.1,0.5-0.2,1-0.3,1.4c1.9,0.5,3.8,1,6.3,1.7c0.1,0.8,0.2,2.2,0.3,2.8c-2.5,1.5-4.4,2.7-6.3,3.8c1.8,0.5,3.7,0.9,6.1,1.5
		c0.1,1.1,0.2,2.7,0.3,4.6C818.4,140.3,812,140.3,805.4,140.3z"/>
	<path class="st0" d="M481.1,140.3c0-7.3,0-14.1,0-21.3c6.5,0,12.9,0,19.6,0c0.1,1.3,0.2,2.8,0.3,4.4c-2.4,0.4-4.6,0.7-6.7,1
		c-0.1,0.5-0.2,1.1-0.2,1.6c2.1,0.4,4.1,0.9,6.7,1.4c0.1,1.1,0.1,2.5,0.2,3.8c-2.5,0.6-4.7,1.2-6.9,1.7c0.1,0.6,0.1,1.2,0.2,1.8
		c2,0.2,4,0.4,6.5,0.6c0.1,1.5,0.2,3,0.3,4.9C494.3,140.3,487.9,140.3,481.1,140.3z"/>
	<path class="st0" d="M721.1,140.2c0-5.5,0-10.7,0-16c-2.1-0.2-3.9-0.3-6.2-0.5c-0.1-1.4-0.2-3-0.3-4.8c8.9,0,17.3,0,26.3,0
		c0.1,1.5,0.2,3,0.2,4.7c-2.2,0.2-4,0.4-6.4,0.6c0,5.2,0,10.4,0,16C730,140.2,725.9,140.2,721.1,140.2z"/>
	<path class="st0" d="M442,140.3c-10.9,0-20.9,0-32,0c5-7.2,9.5-14,14.3-20.5c0.4-0.5,3.2-0.2,3.8,0.6
		C432.7,126.6,437,133.1,442,140.3z"/>
	<path class="st0" d="M861.4,140.4c-4.9,0-8.9,0-13.3,0c0-5.5,0-10.7,0-16.2c-2.4-0.2-4.3-0.3-6.6-0.5c-0.1-1.6-0.1-3-0.2-4.8
		c8.9,0,17.5,0,26.5,0c0.1,1.4,0.2,2.8,0.3,4.6c-2.2,0.2-4.1,0.4-6.6,0.7C861.4,129.4,861.4,134.7,861.4,140.4z"/>
	<path class="st0" d="M656.3,124.3c0,5.2,0,10.3,0,15.9c-4.5,0-8.5,0-13.1,0c0-5.2,0-10.4,0-15.9c-2.4-0.2-4.3-0.3-6.6-0.5
		c-0.1-1.5-0.3-2.9-0.4-4.7c8.9,0,17.5,0,26.6,0c0.1,1.4,0.1,2.9,0.2,4.6C660.6,123.8,658.6,124,656.3,124.3z"/>
	<path class="st0" d="M256.9,140.3c-4.3,0-8.4,0-12.7,0c0-7.2,0-14.1,0-21.4c6.5,0,12.9,0,19.6,0c0,1.5,0,3,0,4.6
		c-2.2,0.3-4.4,0.6-6.5,0.8c-0.1,0.5-0.1,1.1-0.2,1.6c2.1,0.5,4.2,0.9,6.6,1.4c0,1.2,0,2.6,0,4.2c-2.1,0.2-4.1,0.4-6.2,0.6
		C257.3,135,257.1,137.5,256.9,140.3z"/>
	<path class="st0" d="M997.7,140.3c0-7.4,0-14.1,0-21.3c4.3,0,8.5,0,13.1,0c0,5.3,0,10.4,0,15.8c2.3,0.2,4.2,0.3,6.4,0.4
		c0,1.7,0,3.3,0,5C1010.6,140.3,1004.4,140.3,997.7,140.3z"/>
	<path class="st0" d="M986.4,134.9c2.6,0.1,4.4,0.2,6.5,0.3c0,1.8,0,3.3,0,5.1c-6.5,0-12.7,0-19.3,0c0-7.1,0-14,0-21.3
		c4.1,0,8.2,0,12.9,0C986.4,124.3,986.4,129.4,986.4,134.9z"/>
	<path class="st0" d="M758.5,140.3c-4.3,0-8.3,0-12.7,0c0-7.2,0-14.1,0-21.3c4.2,0,8.3,0,12.7,0
		C758.5,125.9,758.5,132.8,758.5,140.3z"/>
	<path class="st0" d="M954.8,140.2c0-7.2,0-14.1,0-21.3c4.3,0,8.4,0,12.7,0c0,7.1,0,14,0,21.3C963.5,140.2,959.4,140.2,954.8,140.2z
		"/>
	<path class="st0" d="M539.9,138.1c4.6-2.9,5.1-5.5,2.3-9.2c-1.2-1.6-1.5-5.3-0.5-6.6c1.6-2,4.7-3.6,7.4-3.8
		c2.6-0.2,5.3,1.4,8.9,2.5c-4.7,2.9-3.5,5.7-1.6,9.1c1.1,1.9,1.5,5.7,0.4,6.9c-1.8,2-5.1,3.4-7.9,3.7
		C546.4,140.9,543.7,139.2,539.9,138.1z"/>
	<path class="st0" d="M619.2,118.9c4.1,0,8.2,0,12.5,0c0,7.1,0,14,0,21.3c-4.1,0-8.1,0-12.5,0C619.2,133.2,619.2,126.2,619.2,118.9z
		"/>
	<path class="st0" d="M1021.3,140.3c0.8-3,1.4-5.5,2.1-7.9c0.4,0.1,0.9,0.2,1.3,0.3c-1.6-4.3-3.2-8.7-5-13.6c5,0,9.6,0,14.9,0
		c-1.6,4.5-3.2,8.8-4.3,12c1.1,3.5,1.9,6,2.9,9.3C1028.7,140.3,1025.5,140.3,1021.3,140.3z"/>
	<path class="st0" d="M549.7,14.8c3.9,4.5,4.1,15.6,0.5,20.5C546.4,31.7,546,20.9,549.7,14.8z"/>
</g>
</svg>
