<?xml version="1.0" encoding="utf-8"?>
<!-- Generator: Adobe Illustrator 20.1.0, SVG Export Plug-In . SVG Version: 6.00 Build 0)  -->
<svg version="1.1" id="Layer_1" xmlns="http://www.w3.org/2000/svg" xmlns:xlink="http://www.w3.org/1999/xlink" x="0px" y="0px"
	 viewBox="0 0 1350.4 172" style="enable-background:new 0 0 1350.4 172;" xml:space="preserve">
<style type="text/css">
	.st0{fill:#242424;}
</style>
<g>
	<path class="st0" d="M715.4,22.9C710,34.4,704.6,46,699.2,57.5c-5.4,11.6-10.8,23.3-16.4,34.8c-0.8,1.7-2.9,3.2-4.7,3.9
		c-3,1.1-3.9-1.6-4.9-3.7c-10.7-22.4-21.4-44.8-32.1-67.2c-0.4-0.7-0.8-1.5-1.5-2.9c-0.3,1.2-0.5,1.7-0.5,2.2
		c0,15.7-0.1,31.4,0.1,47.1c0.2,12.1,1.7,13.7,13.5,17c0,2.2,0,4.6,0,7.2c-11.6,0-23.2,0-35.2,0c0-2.4,0-4.8,0-7.2
		c11.3-3.8,12.5-5.1,12.6-17.6c0.2-16.9,0.1-33.7,0-50.6c0-11.2-1.2-12.4-12.6-14c0-1.9,0-3.8,0-6.4c5.6,0,11.4,0,17.2,0
		c6,0,12,0.2,18-0.1c3.5-0.2,5.2,0.9,6.7,4.2c8.3,18.2,16.9,36.2,25.4,54.3c0.4,0.9,0.9,1.7,1.7,3.4c4-8.3,7.7-16,11.4-23.7
		c5.4-11.4,10.7-22.9,16.3-34.3c0.7-1.5,2.6-3.5,3.9-3.6c12.5-0.3,25-0.2,37.7-0.2c0,2.3,0,4.2,0,6.1c-0.3,0.2-0.5,0.5-0.8,0.6
		c-11.2,1-12.4,2.3-12.4,13.4c0,18,0,36.1,0,54.1c0,11.7,1.2,13.1,13.3,14.1c0.1,1.2,0.3,2.5,0.3,3.8c0,1.2-0.1,2.3-0.2,3.8
		c-17.5,0-35,0-52.8,0c0-2.4,0-4.8,0-7.2c0.2-0.1,0.4-0.5,0.7-0.5c11-0.9,12.5-2.5,12.5-13.5c0-15.7,0-31.4,0-47.1
		c0-1.6-0.2-3.1-0.3-4.7C716.1,23,715.7,23,715.4,22.9z"/>
	<path class="st0" d="M1000.4,88.3c0,2.9,0,5,0,8c-7.1,0-14.3-0.6-21.3,0.2c-7.8,0.9-12.2-2.1-15.7-8.8
		c-4.7-9.2-10.4-17.8-15.4-26.9c-3.6-6.5-9.2-7.9-16.4-7.1c0,9.2-0.2,18.1,0.1,27.1c0.1,3.9,2.6,6.4,6.7,6.9c1.9,0.2,3.9,0.5,6,0.8
		c0,2.4,0,4.7,0,7.4c-17.3,0-34.7,0-52.4,0c0-2.4,0-4.8,0-7.2c13.1-2.4,13.5-2.9,13.6-16.6c0-16.7,0-33.4,0-50
		c0-12.8-0.8-13.8-13.5-15.6c-0.1-0.9-0.3-1.8-0.3-2.7c0-1,0.1-2,0.2-3.6c1.9,0,3.7,0,5.4,0c20.4,0,40.7,0,61.1,0
		c11.7,0,21.9,8,24.4,19c2.7,11.7-2.2,21.7-13.3,27.2c-1.5,0.7-3,1.4-4,1.9c7,10.1,14,20.2,21,30.3
		C989.8,83.5,993.6,87.9,1000.4,88.3z M931.6,44.3c8.9-0.2,17.9,1.4,22.8-8.2c3.5-6.7,2.7-19-1.8-23.3c-6-5.7-13.5-5.1-21-4.6
		C931.6,20.4,931.6,32,931.6,44.3z"/>
	<path class="st0" d="M1242.3,6.9c0-2.2,0-4.2,0-6.7c1.6,0,3.2,0,4.9,0c20.7,0,41.4,0,62.1,0c10.8,0,20.4,7.6,23.3,18.5
		c3,10.9-1.4,21.2-11.3,26.8c-2,1.1-4.2,2.1-5.9,2.9c7.2,10.3,14.3,20.6,21.6,30.9c3.2,4.6,7,8.6,13.2,9c0,2.7,0,5.1,0,8.1
		c-9.8,0-19.5,0.2-29.1-0.2c-1.5,0-3.3-2-4.2-3.6c-6.2-10.3-12.5-20.5-18.3-31c-3.8-6.9-9.4-8.9-17-7.9c0,9-0.2,17.9,0.1,26.9
		c0.1,4.1,2.8,6.6,7,7.2c1.8,0.2,3.6,0.5,5.7,0.7c0,2.4,0,4.8,0,7.6c-17.4,0-34.6,0-52.1,0c0-2.6,0-5,0-7.6c1.5-0.1,2.7-0.2,4-0.3
		c6.6-0.8,8.9-3.1,9-9.7c0.1-20.5,0.1-41,0-61.6c0-7-2.5-9.3-9.3-9.8C1244.8,7,1243.7,6.9,1242.3,6.9z M1281.4,44
		c13.4,1.1,19.6-1.1,23-7.7c3.4-6.7,2.6-18.6-1.6-23.3c-3.8-4.4-15-6.5-21.4-4.1C1281.4,20.4,1281.4,32,1281.4,44z"/>
	<path class="st0" d="M1011.8,96.1c0-2.7,0-5.1,0-7.6c1.7-0.3,3.1-0.6,4.6-0.7c5-0.5,7.3-3.5,7.5-8.3c0.1-3.8,0.3-7.7,0.3-11.5
		c0-15.9,0.1-31.7,0-47.6c-0.1-11-1.3-12.3-12.3-13.7c0-1.9,0-3.8,0-6.4c1.6,0,3.4,0,5.1,0c18.9,0,37.7,0.3,56.6-0.1
		c17.2-0.3,29.4,8.1,37.7,22.1c12.9,21.7,9.2,58.5-23.2,70.4c-6.9,2.5-14.7,3.2-22.1,3.5c-17,0.5-34,0.3-51.1,0.3
		C1013.9,96.3,1013,96.2,1011.8,96.1z M1049.9,7.5c0,7.7,0,15.5,0,23.3c0,15.2-0.1,30.4,0,45.5c0.1,8.4,2.9,11,11.2,11.1
		c12.3,0.1,20.6-5.5,24.3-17.5c4.3-13.8,4.5-28,0.2-41.9C1081,12.5,1066.1,4,1049.9,7.5z"/>
	<path class="st0" d="M306.7,6.1c0-1.9,0-3.6,0-5.6c27.7,0,55.3,0,83.4,0c0.5,7.7,0.9,15.3,1.3,22.9c-7.3,1.8-7.8,1.8-10.5-4.8
		c-3.1-7.7-8.4-11.6-16.9-11.3c-5.8,0.2-11.6,0-17.8,0c0,11.3,0,22,0,32.7c13.8,2.8,17.6,0.6,19.7-11.1c2.4,0,4.9,0,7.7,0
		c0,10.9,0,21.7,0,32.8c-2.5,0-4.9,0-7.3,0c-3.2-12.1-4.9-13.2-20.1-11.6c-0.1,1.5-0.3,3.1-0.3,4.6c0,8,0.1,16,0.1,24
		c0,4.3,2.2,6.6,6.3,7.8c16.3,4.7,28.5-1,34-16.7c2-5.7,4.8-6.7,10.2-5.2c0,5,0,10.1,0,15.3c0,5.3,0,10.6,0,16.1
		c-30.5,0-59.9,0-89.7,0c0-2.6,0-5,0-7.4c12.7-2.1,13.1-2.6,13.1-15.4c0-16.9,0.2-33.7-0.1-50.6C319.8,12.2,322.5,8.3,306.7,6.1z"/>
	<path class="st0" d="M1136.3,6.1c0-1.8,0-3.5,0-5.5c27.6,0,55.2,0,83.4,0c0.5,7.5,1,15.3,1.4,23c-5.5,1.6-8.9,0.7-10.8-5.2
		c-2.5-7.9-8.4-11.5-16.9-11.2c-5.8,0.3-11.6,0-17.7,0c0,11.2,0,21.8,0,32.4c11.6,3.7,17.4,0.7,19.9-10.7c2.5,0,5.1,0,7.9,0
		c0,11,0,21.6,0,32.6c-2.6,0-5.2,0-7.8,0c-2.8-11.8-6.3-13.8-19.8-11.3c0,10.3-0.2,20.5,0.1,30.8c0.1,4.1,4,5.3,7.3,5.7
		c19.8,2.3,26.6-1.1,33.3-18.2c0.5-1.4,1-2.8,1.5-4.3c2.6,0,5,0,7.6,0c0,10.7,0,21.1,0,31.7c-29.9,0-59.4,0-89.3,0
		c0-2.4,0-4.8,0-7.2c0.2-0.2,0.5-0.5,0.8-0.5c11.1-1.1,12.5-2.7,12.5-14.1c0-17.2,0-34.4,0-51.6C1149.8,9,1149.7,8.9,1136.3,6.1z"/>
	<path class="st0" d="M842.5,6.8c0-2.2,0-4.1,0-6.3c11.9,0,23.7,0,35.8,0c0,2,0,3.9,0,5.8c-11,4.2-11.9,5.8-12.1,18.1
		c-0.1,14-0.1,28-0.7,42c-0.5,13.8-8.1,23.1-20.6,28.2c-13.9,5.8-28.1,5.4-41.9-0.5c-15.3-6.5-20.3-19.3-20.3-34.8
		c0-12.7,0-25.4,0-38.1c0-11.7-0.9-12.8-12.3-14.7c0-1.9,0-3.8,0-6.1c16.9,0,33.8,0,51.1,0c0,2,0,3.9,0,5.7
		c-0.3,0.3-0.6,0.6-0.9,0.6c-10.5,1-12.2,2.6-12.1,13.4c0.1,15.7,0,31.4,0.8,47c0.7,12.7,9.4,20.5,21.8,20.9
		c12.3,0.4,22.8-7.3,24.2-19.2c1.3-10.9,0.9-22,1.2-33c0.1-4.7,0.1-9.4,0-14C856.5,12,853,8.2,842.5,6.8z"/>
	<path class="st0" d="M468.1,4.9c3-5.3,3.1-5.3,10.9-4.2c0,8.7,0,17.5,0,26.3c-7.1,1.8-7.1,1.6-9.8-4.8C465.7,14,460.8,7.3,451.1,6
		c-6.2-0.8-11.4,2-13.2,6.7c-1.8,4.9-0.2,10.7,4.8,14.1c4.1,2.8,8.8,4.8,13.2,7.1c5.6,2.9,11.4,5.5,16.8,8.8
		c12.1,7.3,17.3,20.3,13.8,33.6c-3.1,12-15.9,21.7-29.1,22.2c-11,0.5-20.5-3-28.9-11c-0.9,2.7-1.7,4.8-2.5,7.2c-2.6,0-5.2,0-8.5,0
		c0-5.6,0-11,0-16.5c0-5.5,0-10.9,0-16.7c3.1,0,5.7,0,8.6,0c1.2,3.3,2.2,6.7,3.6,10c3.9,9.1,10.1,15.7,20.4,17.1
		c7.3,1,12.8-2.1,14.9-8c2-5.4-0.1-11.2-6.2-14.9c-6.9-4.1-14.1-7.5-21.1-11.4c-4-2.3-8.2-4.6-11.6-7.8C412.9,34.1,414.3,13.6,429,3
		c2.2-1.6,5.4-2.5,8.2-2.7c5.5-0.4,11,0,16.5-0.2C458.9,0,464.1-0.2,468.1,4.9z"/>
	<path class="st0" d="M197.5,88.3c0,3,0,5.2,0,7.8c-16.2,0-32.1,0-48.2,0c0-2.6,0-5.1,0-7.4c10.9-1.9,10.7-1.9,7-12.5
		c-1.6-4.7-3.8-6.5-8.9-6.1c-6.5,0.5-13,0.3-19.5,0.1c-2.7-0.1-4.5,0.6-5.1,3.4c-0.1,0.3-0.3,0.6-0.4,0.9c-4,10.2-3.1,11.9,7.7,14.2
		c0,2.4,0,4.8,0,7.5c-10.7,0-21.1,0-31.9,0c0-2.6,0-5,0-7.6c8.6-1.9,12.1-8.8,15-16.1c8.9-22.3,17.9-44.5,26.4-66.9
		c1.7-4.4,3.9-5.5,8.3-5.5c4.2,0,6,1.5,7.5,5.3c8.8,22.1,17.8,44.2,26.7,66.2c0.7,1.7,1.4,3.4,2.2,5.1
		C186.8,82.4,190.1,87.5,197.5,88.3z M150.2,61.2c-3.9-9.3-7.6-18.1-11.7-28c-3.9,10.1-7.4,18.9-11,28
		C135.4,61.2,142.5,61.2,150.2,61.2z"/>
	<path class="st0" d="M97,0.5c0,8.7,0,17.2,0,25.5c-7.5,1.5-7.5,1.5-9.6-5.2C83.6,9.1,76.6,5.7,61,8.3c0,1.7,0,3.5,0,5.3
		c0,20,0,40,0,60.1c0,12.4,1.3,13.9,13.8,14.8c0,2.4,0,4.8,0,7.6c-17.6,0-35.3,0-53.4,0c0-2.4,0-4.8,0-7.1c0.3-0.2,0.4-0.4,0.5-0.4
		C34.6,86.6,35.1,86,35.1,73c0-19.7,0-39.4,0-59.1c0-1.8,0-3.6,0-5.3c-16-4.5-23.6,0.4-27.6,17.8c-2.3,0-4.7,0-7.4,0
		c0-8.7,0-17.1,0-25.9C32.2,0.5,64.3,0.5,97,0.5z"/>
	<path class="st0" d="M205.4,6.5c0-2.1,0-3.9,0-6c17.4,0,34.6,0,52.2,0c0,2,0,4,0,5.8c-0.5,0.3-0.7,0.6-1,0.6
		c-10.9,0.9-12.2,2.3-12.2,13.1c0,18.8,0,37.7,0,56.5c0,7.5,2.2,9.8,9.5,10.7c17.3,2,27-4,32.2-20.6c1.7-5.3,5.2-2.4,8.4-3.3
		c0,11.1,0,21.8,0,32.7c-29.9,0-59.3,0-89,0c0-2.7,0-5.1,0-7.7c1.7-0.2,3.2-0.2,4.6-0.4c5.8-0.9,8.1-2.9,8.1-8.9c0.2-21,0.2-42,0-63
		C218.1,9.2,216.3,8.1,205.4,6.5z"/>
	<path class="st0" d="M529.4,0.2c17.7,0,25.3,4.7,28.8,16.6c5,16.9-6.7,33.1-24.3,33.4c-3.8,0.1-7.7-0.1-11.4-1
		c-9.8-2.3-16.1-8.4-18.4-18.3c-2.3-10.1,0.4-18.7,7.8-26C517.6-0.7,524.7,0,529.4,0.2z M544.3,24.8c-0.8-4.5-1.3-9.2-2.6-13.7
		c-1.4-5.1-5.3-7.7-10.5-7.7c-5.2,0-8.9,2.7-10.5,7.8c-2.7,8.9-2.6,17.8,0.3,26.6c1.5,4.7,5,7.4,10.2,7.4c5.3,0,9.1-2.5,10.6-7.5
		C543,33.6,543.4,29.3,544.3,24.8z"/>
	<path class="st0" d="M969.3,169.6c-7.2,0-14.4,0-21.8,0c0.2-0.9,0.2-1.5,0.3-1.5c6.1-0.8,6.8-5,6.6-10.1c-0.2-6.3,0.1-12.7-0.1-19
		c-0.3-9-7.2-12.5-14.8-7.5c-4.5,2.9-7.8,6.4-7.1,12.6c0.6,5.3,0.3,10.7,0.1,16c-0.1,3.9,0.4,7,5.2,7.5c0.4,0,0.7,0.9,1.5,2.1
		c-7.6,0-14.6,0-21.6,0c0.1-0.9,0.1-1.5,0.2-1.5c6.6-0.9,7.2-5.3,6.9-10.8c-0.3-6.2,0.1-12.3-0.1-18.5c-0.3-8.4-6.8-12.1-14.1-8
		c-4.8,2.7-8.6,6.1-7.8,12.6c0.5,4.1,0.1,8.3,0.1,12.5c0,8.9,0,8.9,6.5,12.7c-3,2.4-18.1,2.4-21,0c6.5-3.6,6.5-3.6,6.5-12
		c0-6-0.2-12,0.1-18c0.3-5-0.5-8.7-7-8.5c0-0.6,0.1-1.2,0.1-1.7c4.2-1,8.5-2.1,13.3-3.3c0.7,2.7,1.3,5,1.6,6.2
		c5.1-2,10.2-4.9,15.7-5.8c6.3-1.1,11.2,2.1,13.4,8c4-2.5,7.5-5.5,11.5-7.1c10.2-4,18.5,1.7,18.8,12.5c0.2,6,0,12,0,18
		c0,5.3-0.9,11.3,8.3,10.9C970,168.4,969.7,169,969.3,169.6z"/>
	<path class="st0" d="M34.1,167.9c-4.4,3.3-31.5,3.1-34.1,0.7c0.2-0.3,0.3-0.7,0.5-0.7c10.3-1.6,10.5-1.6,10.5-12.2
		c0.1-15,0-30-0.1-45.1c-0.1-7.9-0.5-8.1-8.6-9c-0.6-0.1-1.2-0.4-1.9-0.6c2.4-2.3,44.8-3.2,55-1.3c0,5.6,0,11.3,0,17
		c-0.3,0.2-0.6,0.3-0.9,0.5c-0.7-1.2-1.6-2.2-2-3.5c-2.9-9.4-6.3-12-16.3-12c-4.6,0-9.3,0-14.2,0c0,10.1,0,19.7,0,30.2
		c4.2-0.4,8.9,0.2,12.1-1.6c2.8-1.6,4.1-6.1,6-9.2c2.2,1.5,2.7,20.9,0.1,25c-1.9-3.7-2.8-8.6-5.7-10.5c-3-2-7.9-1-12.4-1.4
		c0,9.9-0.3,19.2,0.3,28.5c0.1,1.7,3.3,3.6,5.4,4.7C29.2,167.9,31.2,167.6,34.1,167.9z"/>
	<path class="st0" d="M380.3,130.5c0-7.9-0.1-15.2,0-22.5c0.1-5.4-4.8-4.4-7.8-7.3c5-0.9,10-1.9,15.8-2.9c0,2.3,0,4,0,5.8
		c0,18.5,0.1,37,0,55.5c0,4.6-0.3,8.9,6.2,8.9c0.2,0,0.5,0.4,0.6,0.7c0.1,0.3,0.1,0.6,0.1,1.5c-4.5,0.5-9,1-13.7,1.5
		c-0.4-2.1-0.8-3.9-1-4.8c-5.7,1.6-11.3,4.1-17.1,4.7c-6.4,0.7-11.3-3.2-15.1-8.3c-6.5-8.9-6-23,1.2-31.1
		C357.1,123.8,366.6,123.1,380.3,130.5z M380.4,148.3c0-3.5,0-7,0-10.5c0-1.1-0.1-2.4-0.7-3.3c-5.6-8.2-20.5-7.3-24.4,1.7
		c-3.6,8.2-3.4,16.9,0.5,25.1c2.7,5.7,8.8,8.1,14.7,6.5c6.9-1.8,10-5.7,10-12.7C380.4,152.9,380.4,150.6,380.4,148.3z"/>
	<path class="st0" d="M746.7,167.9c-4.3,3.2-19.9,3.1-22.6,1c2.2-1.5,5.3-2.7,6.4-4.8c1.2-2.3,0.5-5.5,0.5-8.4c0-13.3,0-26.7,0-40
		c0-9.6,0-9.6-7.8-14.7c5.5-1,10.2-1.9,15.6-2.9c0,11.4,0,22.6,0,35.1c5.5-5.8,10.9-8.5,17.7-7.8c7.2,0.8,11.3,4.5,11.8,11.7
		c0.4,6.1,0.2,12.3,0.4,18.5c0.1,5.6-1.6,12.2,7.8,12.5c-3.3,2.8-19,3-23.1,0.9c0.1-0.3,0.1-0.8,0.2-0.9c7.3-2.5,7.4-2.5,7.3-10.9
		c0-6.7,0.1-13.4-0.4-20c-0.6-6.9-5.9-10-12.5-7.9c-5.4,1.7-9.1,6.7-9.1,12.3c0,5.7,0.2,11.4-0.1,17
		C738.7,163.8,739.4,167.7,746.7,167.9z"/>
	<path class="st0" d="M567.5,47.8c1-1,1.9-2.5,3.1-2.8c3.2-0.9,4.3-2.8,4.3-5.8c0-9.8,0-19.7,0-29.5c0-3.1-0.7-5.5-4.5-6.1
		c-1-0.1-1.8-1.5-3.7-3.2c15.4,0,29.1,0,43.3,0c0,3.9,0,7.6,0,12.4c-1.5-0.6-4-0.8-4.2-1.7c-3-9.2-10.3-7.1-17.3-7
		c0,5.4,0,10.7,0,16c3.8,0.6,7.2,1.4,8.5-3.6c0.2-0.8,1.7-1.6,2.7-1.7c0.5-0.1,1.6,1.5,1.7,2.3c0.2,4.8,0.1,9.6,0.1,16
		c-2.1-1.4-4.2-2-4.4-2.9c-0.9-5.4-4.5-4.8-8.8-4.2c0,4.8-0.3,9.6,0.2,14.4c0.2,1.6,2.5,2.9,3.9,4.3c1,1.1,2.1,2.1,3.2,3.2
		c-0.3,0.3-0.6,0.7-0.9,1c-8.8,0-17.6,0-26.3,0C568,48.6,567.8,48.2,567.5,47.8z"/>
	<path class="st0" d="M647,128.9c-6.8,1.3-7.5,7-9.4,11.8c-3.5,9-7,18-10.7,26.9c-0.6,1.5-2,2.6-3.1,4c-0.9-1.3-2.1-2.4-2.7-3.8
		c-3.6-9.3-7.1-18.6-11-29.1c-1.3,3-2.2,5-3,7.1c-2.9,7.6-5.8,15.3-8.8,22.8c-0.5,1.2-1.8,2-2.7,3c-0.8-1-1.8-1.8-2.3-2.9
		c-3.8-9.6-7.4-19.3-11.2-28.9c-1.8-4.4-2.1-10-9.2-10.7c0.3-0.5,0.6-1,0.9-1.4c6.6,0,13.1,0,19.8,0c-0.2,0.7-0.1,1.2-0.3,1.3
		c-6,2.5-5.9,2.5-3.6,8.7c2.8,7.3,5.5,14.6,8.7,22.9c4.7-11.8,9-22.8,13.4-33.8c0.6,0,1.3-0.1,1.9-0.1c4.2,10.9,8.3,21.7,13,34
		c2.1-5.4,3.7-9.7,5.4-14c0.9-2.3,1.9-4.6,2.8-7c2.7-7.1,2.7-7.1-3.5-11.9c5.5,0,10.2,0,14.8,0C646.5,128,646.8,128.4,647,128.9z"/>
	<path class="st0" d="M1210.8,102.9c-3-0.4-4.6-0.6-6.2-0.8c-0.1-0.5-0.2-1-0.3-1.5c4.6-0.9,9.2-1.7,14.7-2.7
		c-4.5,15.1-8.9,29.5-13.2,43.9c0.5,0.4,0.9,0.8,1.4,1.1c2.5-2.9,4.8-6.1,7.6-8.6c3.3-2.9,7-5.6,10.9-7.8c1.6-0.9,4.3-0.8,6.2-0.3
		c1,0.3,2.1,2.8,1.8,3.8c-0.3,1-3,2.5-3.7,2.1c-6.2-3.7-9.5,0.9-13.5,4.1c-2.2,1.8-4.5,3.5-7.7,6c10.6,3,9.8,10.6,11.1,17.3
		c0.5,2.5,1.6,4.9,2.4,7.4c1.9-2.1,3.8-4.3,5.7-6.4c0.7-0.8,1.2-1.7,2.1-3c0.8,6.5-3.7,13.1-9.1,14.1c-4.4,0.9-7.7-1.1-8.1-5.8
		c-0.4-4.4,0.2-9,0.3-13.5c0.1-2.6,0.6-6.4-2.9-6.3c-2.3,0-5.8,2.3-6.8,4.5c-2.4,5.1-4,10.6-5.3,16.1c-1.1,4.6-3.4,5.4-7.9,3.9
		C1197.2,148,1203.9,125.7,1210.8,102.9z"/>
	<path class="st0" d="M316.2,165c-4.9,2.1-9.4,4.4-14.1,5.9c-5.4,1.6-10.7-0.8-12.9-5.1c-2.1-4.2-0.8-9.9,4.2-13.1
		c5.9-3.7,12.4-6.4,18.5-9.8c1.7-0.9,4.3-2.7,4.1-3.8c-0.4-3.2-1.1-7.3-3.3-9.2c-5.1-4.5-12.6-1.7-15.2,4.6
		c-0.6,1.6-2.4,2.9-3.9,3.9c-0.5,0.3-2.8-0.7-2.8-1.1c0.1-2,0-4.5,1.1-5.9c5.5-7.6,23.6-8.5,29.3-1.2c2,2.6,2.7,6.7,2.9,10.2
		c0.4,6.8,0,13.7,0.2,20.5c0.1,2,1.4,4,2.2,6c1.6-1.3,3.3-2.7,4.9-4c0.4-0.3,0.8-0.4,1.6-0.9c0.7,4.4-0.7,7.3-4.7,8.7
		C323.1,172.6,319.2,170.7,316.2,165z M316.3,143.1c-6.1,3.8-11.4,6.5-15.9,10.1c-3.2,2.6-4.5,7.1-1.7,10.7c1.3,1.7,5,3,7.1,2.5
		c4.3-1,9.5-2.4,10.3-7.8C316.8,154.1,316.3,149.5,316.3,143.1z"/>
	<path class="st0" d="M79,125.2c13,0.1,22.9,10.2,22.9,23.4c0,13.6-9.9,23.5-23.4,23.3c-13.5-0.2-22.8-9.9-22.7-23.8
		C55.9,134.8,65.7,125.1,79,125.2z M93,149.1c-0.6-4-0.8-7.8-1.8-11.5c-1.8-6.5-6.4-9.8-12.8-9.6c-6.3,0.2-11.3,3.4-12.1,9.7
		c-0.9,7.3-0.8,14.9,0,22.2c0.7,5.7,6,9.1,12,9.3c5.9,0.3,10.9-2.8,12.7-8.5C92.1,156.9,92.4,152.9,93,149.1z"/>
	<path class="st0" d="M1102.7,148.5c0-13.4,9.6-23.2,22.9-23.2c13.3,0,23.3,10.1,23.2,23.6c-0.1,13.4-9.6,23-23,23.1
		C1112.3,172,1102.7,162.2,1102.7,148.5z M1111.3,149c0.6,3.6,1,7.9,2.3,12c1.7,5.4,6.6,8.4,12.4,8.2c5.9-0.1,10.3-3.2,12.1-8.7
		c2.3-7.3,2.2-14.8,0.4-22.2c-1.7-6.9-6.3-10.4-12.8-10.4c-6.6,0-11.1,3.5-12.7,10.4C1112.1,141.6,1111.9,144.9,1111.3,149z"/>
	<path class="st0" d="M273.3,160c-1.6,9.2-11.7,13.8-21.5,11.3c-11.5-3-17.9-14.6-15.5-28.2c2.1-11.6,11.7-18.9,23.4-17.7
		c8.3,0.9,14.1,7.1,14.8,16.2c-8.3,0-16.6,0.2-24.9-0.1c-3.7-0.1-5.3,1.1-4.8,4.8c0.6,4.4,0.8,9,2,13.3c1.2,4.6,4.2,8,9.3,8.8
		c5.4,0.9,10.3-0.4,13.9-4.8C271,162.3,272.2,161.2,273.3,160z M265.2,139.2c0.3-7.1-2.4-10.8-8.1-11.2c-6.2-0.5-10.2,3.4-11.4,11.2
		C252.1,139.2,258.5,139.2,265.2,139.2z"/>
	<path class="st0" d="M1019.7,160.5c-3,8.6-11.9,12.9-21.7,11c-12-2.4-18.9-14.1-16.5-27.7c2.2-12.6,12.2-20.1,24.3-18.2
		c8,1.2,13.9,7.9,13.7,16c-9.4,0-18.9,0-28.9,0c-1.1,8.4-0.9,16.3,4.2,23c4.8,6.3,15.1,5.5,20.6-1c0.8-1,1.6-2,2.5-3
		C1018,160.3,1018.7,160.5,1019.7,160.5z M1010.5,139.2c0.2-7.1-2.5-10.7-8.2-11.2c-6.3-0.5-10.4,3.5-11.4,11.2
		C997.3,139.2,1003.7,139.2,1010.5,139.2z"/>
	<path class="st0" d="M444.6,141.6c-9.9,0-19.6,0-29.6,0c-0.8,7.5-0.5,14.4,2.9,20.8c4.3,8.1,16,8.6,22,1.1c1.1-1.3,2.4-2.4,3.9-3.2
		c-2.4,8.7-11.7,13.2-21.5,11c-11.3-2.5-18.3-13.9-16.5-26.7c1.8-12.3,10.9-20.1,22.6-19.4C437.3,125.9,443.2,131.6,444.6,141.6z
		 M415.8,139.1c6.4,0,12.9,0,19.3,0c0.5-6.8-2.5-10.7-8.1-11.1C420.5,127.5,416.1,131.8,415.8,139.1z"/>
	<path class="st0" d="M214.3,169.6c-7.6,0-15.2,0-22.9,0c0.2-0.9,0.2-1.5,0.3-1.5c6.3-0.7,7.5-4.6,7.1-10.2
		c-0.4-5.3-0.1-10.7-0.1-16c0-8.5,0-8.5-8.5-12.8c5.2-1.5,9.5-2.7,14.4-4c0.7,3,1.3,5.6,1.8,7.9c3.1-2.3,5.9-5.2,9.4-6.9
		c4.8-2.4,10.1-0.4,11.1,4c0.4,1.5-1,3.4-1.5,5.2c-1.7-0.6-4-0.7-4.9-1.9c-3.8-4.9-5-5.4-8.8-0.7c-2.3,2.9-3.8,6.9-4.5,10.6
		c-0.8,4.2-0.3,8.6-0.3,13C206.7,165.4,206.7,165.4,214.3,169.6z"/>
	<path class="st0" d="M137.6,168.4c-3.6,2.6-20.1,2.6-23.7-0.1c1.3-0.4,2.5-0.5,3.2-1.1c1.6-1.4,4.1-3,4.2-4.6c0.4-9,0.4-18,0.1-27
		c-0.1-1.5-2.2-3.1-3.7-4.4c-0.9-0.7-2.3-0.8-3.4-1.2c0-0.4,0-0.9-0.1-1.3c4.3-1.2,8.6-2.3,13.4-3.6c0.6,2.9,1.2,5.5,1.7,8.2
		c2.6-2.2,4.9-4.8,7.7-6.5c4.6-2.9,10-2.1,11.9,1.8c0.8,1.7-0.3,4.4-0.5,6.6c-1.9-0.8-4.4-1.1-5.5-2.5c-3-4-3.8-4.3-7.7-1.1
		c-4.2,3.5-5.5,8.2-5.6,13.4c-0.1,4,0,8,0,12C129.6,165.9,129.6,165.9,137.6,168.4z"/>
	<path class="st0" d="M1324.3,157.9c-1.3,5.2-3.7,9.9-8.7,12.3c-2.3,1.1-6.4,1.2-8.2-0.1c-1.8-1.3-3-5.4-2.4-7.7
		c4.6-17,9.8-33.9,14.7-50.9c0.2-0.8,0.5-1.6,0.7-2.4c1.8-6.3,1.8-6.3-4.4-7.1c-0.1-0.5-0.2-1-0.3-1.5c4.7-0.9,9.3-1.7,14.8-2.8
		c-3,10.1-5.8,19.4-8.6,28.7c-3.3,11-6.9,21.9-10,33c-0.7,2.5,0.1,5.5,0.3,8.3c2.4-1.7,5.1-3.2,7.3-5.2c1.6-1.5,2.5-3.7,3.8-5.5
		C1323.6,157.4,1324,157.6,1324.3,157.9z"/>
	<path class="st0" d="M508.6,167.6c-1.1,1.6-1.9,2.8-2.7,4c-0.3-0.1-0.6-0.1-1-0.2c0-4.6,0-9.2,0-13.9c0.3-0.1,0.6-0.3,1-0.4
		c0.7,1.3,1.4,2.6,2,4c2,4.1,4.7,7.3,9.5,8.1c3.6,0.6,6.7-0.3,8.4-3.8c1.8-3.6,1.2-6.9-1.9-9.4c-2.3-1.8-5.1-3.1-7.6-4.7
		c-2.4-1.5-5-2.8-7.2-4.5c-5.6-4.4-6.4-11.2-2.3-16.9c3.8-5.3,10.5-6.2,16.4-2.3c0.7,0.4,1.3,1,1.9,1.5c1-1.1,2-2.1,3.6-3.9
		c0,5.4,0,9.7,0,14.1c-0.4,0.1-0.8,0.2-1.1,0.3c-0.6-1.4-1-3-2-4.2c-1.8-2.3-3.6-5-6-6.4c-3.2-1.9-7-1.5-9.2,2.1
		c-2.3,3.7-0.9,6.9,2.5,9c3.4,2.1,7,3.8,10.5,5.7c4.1,2.2,7.4,5.1,8.4,9.9c1.1,5.5,0.2,10.4-4.6,13.8c-4.8,3.3-10,3.3-15.1,0.5
		C511,169.3,510,168.5,508.6,167.6z"/>
	<path class="st0" d="M1293.8,158.5c-2.4,3.5-4.5,7.2-7.3,10.3c-2.6,2.9-6.4,3.9-10,1.9c-3.7-2-3.8-5.7-2.8-9.2
		c5-16.9,10-33.9,15-50.8c0.1-0.5,0.3-0.9,0.5-1.4c1.9-6.4,1.9-6.4-4.7-7.4c-0.1-0.4-0.2-0.9-0.3-1.3c4.8-0.9,9.6-1.8,15.1-2.8
		c-5.4,17.7-10.6,34.7-15.7,51.7c-1.3,4.3-2.8,8.6-3.8,12.9c-0.4,1.6,0.4,3.4,0.7,5.1c1.7-0.6,3.9-0.8,5.2-1.9
		c1.7-1.5,2.7-3.7,4-5.6c0.7-1,1.6-2,2.4-3C1292.7,157.5,1293.2,158,1293.8,158.5z"/>
	<path class="st0" d="M480.2,169.7c-7.5,0-15,0-22.7,0c0.2-1,0.3-1.5,0.3-1.6c6.5-0.6,7.3-4.7,6.9-10.1c-0.4-5.3-0.1-10.7-0.1-16
		c0-8.3,0-8.3-8.3-12.8c5.2-1.4,9.4-2.6,14.1-3.9c0.7,2.8,1.2,5.3,1.9,8c2.7-2.3,4.9-4.6,7.6-6.4c4.1-2.6,9.2-2.3,11.4,0.9
		c1.1,1.6,1.2,3.9,1.2,5.9c0,0.6-2,2.1-2.5,1.8c-1.6-0.7-3.7-1.7-4.4-3.1c-1.9-3.7-3.9-3.4-6.7-1.3c-4,3-6.1,7.1-6.2,12
		c-0.2,6.3-0.1,12.7-0.1,19c0,3.2,1.5,5,4.7,5.3c1.1,0.1,2.1,0.6,3.2,0.9C480.5,168.8,480.4,169.2,480.2,169.7z"/>
	<path class="st0" d="M825.3,130c-2.6-0.3-4.4-0.5-6.2-0.8c-0.3-0.3-0.5-0.7-0.8-1c7.2-2.7,11.7-7.5,12.9-15.3
		c0.5,0.2,1,0.4,1.5,0.6c0,4.2,0,8.4,0,12.9c4.8,0.4,9,0.7,13.1,1c0,0.7-0.1,1.4-0.1,2.1c-3,0-6.1,0.1-9.1,0
		c-2.4-0.1-3.8,0.5-3.7,3.3c0.1,9-0.2,18,0.3,27c0.1,2.5,1.9,6.3,3.9,7.1c1.9,0.8,5.1-1.4,7.7-2.4c0.5-0.2,1-0.5,2.6-1.3
		c-0.7,2-0.8,3-1.3,3.8c-2.7,3.8-8.8,5.8-13.5,4.3c-4.8-1.6-7.3-5.1-7.3-10.2C825.3,150.9,825.3,140.6,825.3,130z"/>
	<path class="st0" d="M1078.6,113.7c0,4.2,0,8.4,0,12.8c4.7,0.3,8.8,0.5,12.9,0.8c0,0.6,0,1.2,0,1.8c-4,0-8.1,0-12.5,0
		c0,11.8-0.4,22.7,0.2,33.6c0.2,4.9,5.8,6.5,9.9,3.4c1-0.7,1.9-1.5,3.9-1.7c-0.4,1-0.7,2.2-1.3,3c-2.7,3.6-8.6,5.4-13.1,4
		c-4.9-1.6-7.3-5.2-7.4-10.1c-0.2-8.5-0.2-17-0.2-25.5c0-1.8,0-3.6,0-5.7c-2.1-0.3-4-0.6-5.9-0.8c-0.4-0.4-0.7-0.8-1.1-1.2
		c7.7-2.3,12-7.3,13-15C1077.4,113.3,1078,113.5,1078.6,113.7z"/>
	<path class="st0" d="M700.8,113.6c0,4.2,0,8.3,0,12.9c4.7,0.3,8.9,0.6,13.1,0.9c0,0.6-0.1,1.2-0.1,1.8c-4,0-8,0-12.4,0
		c0,11.6-0.4,22.6,0.2,33.5c0.3,5,5.8,6.6,9.9,3.4c1-0.7,1.8-1.6,3.7-1.8c-0.3,0.9-0.4,2-1,2.8c-2.7,3.8-8.3,5.7-13,4.3
		c-4.7-1.3-7.4-4.6-7.6-9.4c-0.4-8.3-0.3-16.7-0.4-25c0-2.3,0-4.6,0-7c-2.3-0.3-4.1-0.6-6-0.9c-0.2-0.4-0.5-0.7-0.7-1.1
		c7.5-2.3,11.8-7.4,12.9-15.2C699.8,113.1,700.3,113.3,700.8,113.6z"/>
	<path class="st0" d="M498.7,69.2c1.4-1.7,1.9-2.9,2.8-3.3c1-0.4,2.3-0.2,3.5-0.2c34.7,0,69.4,0,104.1,0c1.2,0,2.4-0.2,3.5,0.1
		c0.7,0.2,1.2,1.2,1.8,1.8c-0.6,0.6-1.2,1.3-2,1.6c-0.5,0.3-1.3,0.1-2,0.1c-35.9,0-71.7,0-107.6,0C502,69.5,501.2,69.4,498.7,69.2z"
		/>
	<path class="st0" d="M677.3,168.6c-4.3,2.7-21.2,2.4-23.5-0.1c7.8-2.9,7.8-2.9,7.8-11.9c0-5.2,0-10.3,0-15.5c0-8.7-0.1-8.7-8-12.4
		c5-1.1,10-2.2,15.7-3.5c0,7.9,0,15.4,0,22.8c0,3.2-0.1,6.3,0,9.5C669.6,165.7,669.6,165.7,677.3,168.6z"/>
	<path class="st0" d="M854.4,128.4c5.1-1,10.1-2,16.1-3.2c0,3.1,0,6,0,8.9c0,7.7,0,15.3,0,23c0,8.5,0,8.5,7.3,11.4
		c-2.6,2.9-21.1,2.8-23.2-0.2c8-2.3,8-2.3,8-11.5c0-6.2-0.1-12.3,0-18.5c0.1-4.7-1.2-7.9-6.6-7.8c-0.5,0-1.1-0.5-1.6-0.7
		C854.4,129.4,854.4,128.9,854.4,128.4z"/>
	<path class="st0" d="M1262.7,159.7c-3.2,3.5-6.1,7.4-9.8,10.2c-1.8,1.4-5.8,1.7-7.7,0.6c-1.8-1.1-3.3-4.7-3-7
		c0.7-4.7,2.5-9.2,4.1-13.8c1.9-5.5,4.1-10.9,5.9-16.4c0.3-1-0.2-2.4-0.3-3.6c-1.2,0.3-2.7,0.2-3.6,1c-1.6,1.4-2.9,3.2-4.3,4.8
		c-0.9,1-1.8,2.1-3.2,3.7c0.2-6.4,7.3-13.7,12.3-13.7c4.2,0,6.9,3.7,5.5,8.6c-1.7,6.1-4,12-6.1,17.9c-1.2,3.6-2.7,7.2-3.6,10.9
		c-0.3,1.3,0.5,3,0.7,4.4c1.5-0.5,3.3-0.6,4.4-1.6c1.8-1.7,3-3.9,4.7-5.8c0.6-0.7,1.7-1.1,2.5-1.6
		C1261.8,158.7,1262.3,159.2,1262.7,159.7z"/>
	<path class="st0" d="M1344.6,150c-0.4-0.9-1.1-1.7-1.2-2.6c-1.1-13.1-2.2-26.2-3.1-39.3c-0.3-3.7-0.5-7.8,4.6-8.4
		c3.3-0.4,5.2,3.4,4.7,8.9c-1.1,12.8-2.1,25.5-3.2,38.3c-0.1,1-0.3,1.9-0.5,2.8C1345.5,149.8,1345.1,149.9,1344.6,150z"/>
	<path class="st0" d="M1343.4,160.2c5.2,0.5,7,2.2,7,5.9c0,3.8-2,5.6-5.4,5.7c-3.7,0.1-6.3-2.3-5.6-5.9
		C1339.8,163.5,1342.3,161.6,1343.4,160.2z"/>
	<path class="st0" d="M670.1,103.5c-0.3,3.4-2,5.7-5.6,5.6c-3.5-0.1-5.5-2.2-5.4-5.8c0-3.4,2-5.3,5.3-5.4
		C668,97.8,669.8,99.9,670.1,103.5z"/>
	<path class="st0" d="M860.1,103.8c0.2-3.5,1.8-5.8,5.5-5.8c3.6-0.1,5.6,2.2,5.6,5.6c0.1,3.2-1.8,5.4-5.2,5.6
		C862.4,109.3,860.5,107.3,860.1,103.8z"/>
	<path class="st0" d="M1267.3,102.1c-3.2,2.5-5,5-6.6,4.9c-1.7-0.1-4.5-2.6-4.6-4.2c-0.1-1.5,2.4-4.3,4.1-4.6
		C1261.8,97.9,1263.9,100.1,1267.3,102.1z"/>
</g>
</svg>
