<?xml version="1.0" encoding="utf-8"?>
<!-- Generator: Adobe Illustrator 20.1.0, SVG Export Plug-In . SVG Version: 6.00 Build 0)  -->
<svg version="1.1" id="atticus_xA0_Image_1_" xmlns="http://www.w3.org/2000/svg" xmlns:xlink="http://www.w3.org/1999/xlink"
	 x="0px" y="0px" viewBox="0 0 141.9 214.4" style="enable-background:new 0 0 141.9 214.4;" xml:space="preserve">
<style type="text/css">
	.st0{fill:#8B0000;}
</style>
<g>
	<path class="st0" d="M67.2,3.9c1.6-0.8,3.2-1.7,4.9-2.2c2.5-0.7,5-1.3,7.6-1.5c2.5-0.3,5-0.2,7.6,0c6,0.4,11.9,1.4,16.9,5
		c4.1,2.9,7.4,6.6,10.1,10.9c2.3,3.6,4.1,7.5,5.4,11.6c0.3,1,0.7,2,0.6,3c-0.2,0.9-0.9,1.9-1.5,2.7c-1.8,2.3-4.3,3.3-7.2,3.4
		c-3.9,0.1-7.8,0-11.5-1.4c-2.4-0.9-4.5-2.2-6.3-4c-3.2-3-6.3-6.1-9.7-8.9c-1.8-1.5-4-2.3-6.5-1.6c-1.7,0.5-2.9,1.7-3.9,3.2
		c0.7-0.4,1.3-0.8,2-1.1c2.1-1,4.1-0.9,5.9,0.7c1.5,1.3,2.8,2.8,4.2,4.3c2.8,2.8,5.3,6,8.4,8.3c4.3,3.3,9.4,4.1,14.7,3.4
		c1.3-0.2,2.7-0.4,4-0.7c3.6-0.7,5.8-2.9,7.1-6.2c0.3,1.4-1.4,4.3-4.4,6.2c0.3,1.1,0.6,2.3,0.8,3.3c1.4-0.3,2.7-0.8,4-1
		c2-0.3,3.2,0.9,3.7,2.5c0.7,2.2,1.1,4.5,0.6,6.9c-0.3,1.7-0.3,3.5-0.5,5.3c-0.5,3.2-1,6.4-1.7,9.6c-2.3,9.9-5.2,19.7-8.6,29.2
		c-1.4,3.9-2.8,7.9-4.6,11.7c-1.3,2.7-3.3,5.1-5.2,7.6c-2.5,3.3-5.2,6.4-7.9,9.6c-1.4,1.7-2.8,3.3-4.4,5.2c6.7-13.9,8.1-28.4,8-43.2
		c-0.3,2.4-0.5,4.9-0.8,7.3c-0.5,3.9-0.9,7.7-1.5,11.6c-1,6-2,12-4.1,17.8c-1,2.8-2.3,5.6-3.5,8.3c-1.1,2.4-2.8,4.6-3.4,7.2
		c-0.7,2.5-0.4,5.3-0.5,7.9c0,0.7,0.5,1.2,1.3,1.5c1.4,0.5,2.8,1.1,4.2,1.8c0.8,0.4,1.5,0.4,2.4,0c5.5-2.6,11.1-5,17.1-6.5
		c0.2,0,0.4-0.1,0.6-0.1c2.3,0.1,3.8-1.2,5.4-2.7c4.9-4.8,8.8-10.2,11.5-16.5c2-4.5,3.3-9.2,4.1-14c0.7-4.1,1.2-8.3,1.2-12.5
		c0-2.7,0.2-5.4,0.2-8.1c0-23.6,0-47.1,0-70.7c0-0.5,0-0.9,0-1.6c-0.6,0-1.2,0-1.7,0c-2.8,0-5.5,0-8.3,0c-2.1,0-4.3-0.1-6.4-0.3
		c-0.4,0-0.9-0.3-1-0.6c-1.4-2.6-3-5.1-5.2-7.1c0,0,0-0.1,0-0.4c10.2,0.2,20.4,0.3,30.7,0.5c0,0.4,0,0.9,0,1.3
		c0,29.2,0,58.5-0.1,87.7c0,3.8-0.7,7.7-1.1,11.5c-0.5,4.8-1.8,9.5-3.5,14c-2.1,5.7-4.9,11.1-8.8,15.9c-2,2.4-4.2,4.8-6.4,7.1
		c-1.4,1.4-3,2.6-4.5,3.9c0.7,1.9,1.3,3.9,2.6,5.7c1.8,2.4,2.5,5.2,2.8,8.2c0.4,3.7-0.3,7.2-2,10.4c-1,1.9-2.4,3.5-3.9,5.2
		c1.6-9.2-1.3-17.2-6.4-24.7c-0.9,0.5-1.8,1.1-2.6,1.6c0.7,2.7,1.4,5.2,1.9,7.8c0.3,1.5,0.3,3,0.1,4.5c-0.3,2.6-0.7,5.1-1.4,7.6
		c-0.8,3-3.4,4.8-6.8,5.1c0.7-1.4,1.4-2.7,2.1-4c1.3-2.5,2.5-5,2.8-7.8c0.1-1,0-2-0.3-2.9c-0.6-2-6.9-12.1-8.5-13.7
		c-1.1,0.7-2.2,1.5-3.4,2c-1.7,0.7-2,1.9-2,3.5c0,1.2,0,2.5,0,3.7c0,0.9-0.3,1.9-0.2,2.8c0.3,3.1-0.4,6.3,1,9.1
		c0.9,2,2.4,3.9,3.6,5.7c0.4,0.6,1,1.2,1.4,1.8c-0.1,0.1-0.1,0.2-0.2,0.3c-2.4-0.7-4.7-1.4-7.1-2.1c0.2,2.5,0.5,5.1,0.5,7.7
		c-0.2,6.7-1.2,13.2-4.5,19.2c-0.9,1.6-2,3.2-3.2,4.9c-1.5-1.6-2.8-3.1-4.2-4.5c-1.4,2.5-3,4.9-5.7,6.4c-2.8,1.5-5.5,1.1-8.3-0.2
		c0-1.1,0-2.2,0-3.4c-0.2,0-0.3-0.1-0.5-0.1c-0.4,1-0.7,2-1.2,3c-1.6-0.7-3.2-1.5-4.8-2.3c3.4-4.4,4.7-9.6,5.8-14.8
		c-0.2-0.1-0.3-0.1-0.5-0.2c-1.8,4.8-3.6,9.5-5.5,14.3c-0.4-0.1-0.8,0-1.2-0.2c-0.9-0.4-1.4-0.9-1.4-2.1c0.1-3.5,0-6.9,0-10.7
		c-0.9,1.2-1.7,2.1-2.4,3c4.8-8.2,9.7-16.4,12.3-25.6c-2.4,4.5-4.8,9-7.2,13.6c-2.5,4.7-4.9,9.5-7.2,14.2c-0.5,0.9-0.9,0.9-1.7,0.4
		c-2.4-1.4-3.8-3.6-5.3-5.8c-1.9-3-3.6-6.1-5.4-9.2c-0.4-0.7-0.3-1.2,0.1-1.8c3.1-4.9,6.1-9.9,9.1-14.8c0.1-0.1,0.1-0.2,0.1-0.2
		c-0.8-1-1.5-0.8-2.4,0c-2.2,1.6-4.8,2.4-7.5,3c-0.3,0.1-0.7,0.2-1.4,0.3c0.7-1,1.3-1.6,1.8-2.4c1.3-2.1,2.5-4.1,3.6-6.3
		c0.4-0.8,0.5-1.8,0.5-2.8c0.1-2.9,0-5.8,0-8.6c0-1.6-0.1-3.2-0.2-4.8c-0.1-0.8-0.3-1.5-1.2-1.9c-1.4-0.7-2.8-1.6-4.3-2.5
		c-1.1,1.6-2.3,3.2-3.3,4.9c-1.6,2.7-3.1,5.5-4.6,8.2c-1,1.7-0.9,3.3-0.3,5.1c1.1,3.7,2.9,7,4.8,10.3c-3-0.1-6-1.8-6.9-5
		c-0.7-2.4-1.1-4.9-1.5-7.4c-0.7-4.7,0.9-9,2.3-13.3c0.4-1.3,1.2-2.5,1.4-3.8c0.1-0.7-0.4-1.6-0.8-2.4c-3.4,4.4-6.2,9-8.2,14
		c-2,5.1-2.2,10.5-1.4,16.2c-2.4-2-3.8-4.2-4.9-6.6c-1.2-2.7-1.7-5.6-1.4-8.5c0.3-3.3,1.1-6.4,3.1-9.1c0.3-0.4,0.6-0.9,0.9-1.4
		c0.6-1.1,0.6-1.9-0.4-3c-3.3-3.5-6.1-7.4-8.4-11.6c-3-5.4-5-11.1-6.3-17.1c-0.6-2.7-0.9-5.4-1.3-8.1C-0.3,99.1,0,92.3,0,85.6
		C0,60.4,0,35.2,0,10c0-0.5,0-1,0-1.7c8.3,0,16.5,0,24.9,0c-3.2,1.7-5.1,4.4-5.8,7.9c-3.7,0-7.4,0-11.2,0c0,0.5,0,1,0,1.5
		c0,26-0.1,52.1,0.1,78.1c0,7.1,1,14.1,3.1,20.9c1.9,6.2,4.7,11.9,8.7,16.9c0.1,0.1,0.2,0.3,0.3,0.6c2.2-0.9,4.4-0.2,6.4,0.5
		c5.4,1.9,10.8,4,16.1,6.1c0.3,0.1,0.7,0.3,0.9,0.2c2.4-1.1,4.8-2.2,7.1-3.2c-1.7-2.2-3.5-4.2-4.9-6.5c-2-3.3-3.7-6.9-5.6-10.3
		c-0.2-0.5-0.6-0.8-1.1-1.2c-3.4-21.1-3.1-42,3.8-62.6c-0.1,0-0.2-0.1-0.3-0.1c-1.1,3-2.3,6.1-3.2,9.1C37.6,72,36.5,78,36.1,84
		c-0.4,5.8-0.6,11.7-0.2,17.6c0.4,6,1.6,11.9,2.6,17.9c0.1,0.7,0.1,1-0.7,1.1c-1.4,0.2-2.7,0.4-4.2,0.6c1.3-5.9-0.9-10.9-3.1-15.8
		c-2.5-5.6-5.3-11-7.9-16.6c-1.7-3.7-3.7-7.3-4.4-11.3c-0.6-3.4-1.1-6.8-1.4-10.2c-0.2-2.6-0.2-5.2,0-7.8c0.2-3.4,0.6-6.8,0.9-10.3
		c0.3-2.8,0.6-5.6,1-8.4c0.4-2.8,0.8-5.7,1.2-8.5c0.2-1.9,0.4-3.9,0.5-5.8c0.1-3.4,0.6-6.7,1.5-10c0.7-2.6,1.9-4.6,4.2-5.8
		c1.4-0.7,3-1.2,4.5-1.4C32.4,9,34.2,9.1,35.9,9c0.2,0,0.4,0,0.6-0.1c2.5-1.4,4.7-0.2,6.8,1.1c1.5,0.9,2.9,2,4.3,3
		c0.2-3.4,0.4-6.7,0.7-10c0.1,0,0.2,0,0.4-0.1c1.4,3.7,4.6,4.7,8,5.5c2.1,0.5,4.1,0.4,6.2-0.2C63.4,8,64,7.7,64.4,7.3
		c0.8-0.8,1.5-1.7,2.2-2.6C66.7,4.4,67,4.2,67.2,3.9z M96.1,49.1c-2.4-2-4.8-4-7.4-6.2c0.1,1,0,1.8,0.2,2.4c0.8,2.6,1.5,5.2,2.5,7.7
		c1.9,4.9,4,9.8,7.3,14c1.4,1.8,2.4,3.8,2.9,6.1c0.3,1.2,0.3,2.5,0.5,3.8c5.1-10.1,6.8-21.1,8.9-32.3c-2.2,1.2-4,2.3-5.9,3.3
		c-0.8-1.6-1.5-3.1-2.4-4.8C100.5,45.1,98.4,47.1,96.1,49.1z M54.5,161.5c1.6-3.2,3.3-6.4,4.7-9.6c0.6-1.4,1.2-3,0.6-4.7
		c-0.5-1.2-1.1-2.4-1.7-3.8c-2.2,1.7-4.1,3.1-6.1,4.6c-0.6,0.5-1,1-1.1,1.8c-0.5,2.9-1.1,5.8-1.7,8.8
		C50.9,159.5,52.6,160.4,54.5,161.5z M76.9,128.5c-0.1,0-0.2,0-0.3,0c-0.2,5.2-0.3,10.4-0.5,15.5c-0.1,2.1-0.2,4.1-0.1,6.2
		c0,0.5,0.3,1.2,0.7,1.6c2.6,2.2,5.3,4.3,7.9,6.5c0.4,0.3,0.8,0.8,0.8,1.2c0,1.9-0.3,3.9-0.1,5.8c0.3,4.3,2,8,4.7,11.3
		c-0.1-0.3-0.2-0.6-0.3-0.9c-2.7-5.2-3.8-10.6-2.4-16.3c0.2-0.9-0.1-1.4-0.7-1.9c-2.7-2.2-5.4-4.4-8.1-6.7c-0.3-0.2-0.5-0.6-0.5-0.9
		c-0.2-4.7-0.3-9.3-0.5-14C77.2,133.4,77,130.9,76.9,128.5z M86.2,28.9c-1.3,1.5-2.7,1.6-3.9,0.6c-1.2-1-1-2.7,0.5-4.3
		c-0.5-0.5-1.1-0.9-1.6-1.4c-0.2-0.2-0.5-0.4-0.8-0.5c-1.2-0.6-2.8,0.4-2.6,1.5c0.9,6.3,5.9,8.6,11.2,7.1C88,31,87.1,29.9,86.2,28.9
		z M49.2,123.8c-0.4,4.7,0.1,9.3,2.1,13.7C51.8,132.7,51,128.2,49.2,123.8z M78.4,207.1c2.7-2.9,0.4-9.4-2-12.1
		C76.9,199,79.2,202.7,78.4,207.1z M29.5,43.5c-4.7,8.7-3.7,17.9-2.9,27.1c0.1-0.6,0.1-1.3,0.1-1.9c-0.1-2.9-0.3-5.7-0.2-8.6
		c0.1-3,0.3-6,0.8-8.9C27.7,48.6,28.7,46.1,29.5,43.5z M61.6,26.1c-1.2,1.5-2.1,1.9-6.1,3c3.3,0,5.7-1.2,7-3.5
		c-2.9-0.1-5.8,0-8.5-1.4C56.1,26,58.8,26,61.6,26.1z M69.3,7.2c-0.1-0.1-0.1-0.1-0.2-0.2c-0.6,0.5-1.2,0.9-1.7,1.4
		c-2.2,2-4.4,3.9-7.5,4.3C58,12.9,56.2,13,54.6,13c-0.1,0,0.2,0,0.4,0.1c3.6,0.6,7.1,0.3,10.1-2C66.6,9.9,67.9,8.5,69.3,7.2z
		 M112.9,66.5c-0.3,2.3-0.6,4.6-1,6.9s-1,4.6-1.5,6.9C111.8,75.8,113.7,71.3,112.9,66.5z M120.2,50.7c0.9,4.6-0.8,9-1.3,13.5
		C120.2,59.8,121.7,55.4,120.2,50.7z M111.7,91.5c1.3-3.4,2.2-6.8,2-10.5C113,84.5,112.3,88,111.7,91.5z M32.8,23.9
		c-3.2,1.4-4.8,4.3-6.3,7.3C28.5,28.7,30,25.8,32.8,23.9z M92.8,10c2.7,2,6.2,2.6,8.7,5C99.4,12,95.8,11.5,92.8,10z M101.1,23.2
		c-1.6-3-5.3-2.7-7.8-4.4c1.3,0.9,2.7,1.5,4,2.2C98.6,21.7,99.8,22.4,101.1,23.2z M67.7,51.3c0.1,0,0.2,0,0.3,0
		c0.5-2.9,1.7-5.7,1.1-8.7C68.6,45.5,68.1,48.4,67.7,51.3z M98.3,6c-2.6-1.2-5.3-2.3-8-1.6C92.8,4.8,95.5,5.4,98.3,6z M31.3,16.8
		c2.6-0.6,5.2-1.1,7.8-1.6C36.3,15,33.7,15.3,31.3,16.8z M64.7,37.4c-1,2.5-3.1,4.1-5,5.8C62.2,42,64.2,40.3,64.7,37.4z M56.1,36.7
		c2.7-0.3,5.5-2.1,5.9-3.6c-0.9,0.6-1.8,1.4-2.8,2C58.3,35.7,57.2,36.2,56.1,36.7z M81.1,8.4C81,8.5,81,8.7,80.9,8.8
		c2.2,0.8,4.5,1.5,6.7,2.3c0-0.1,0.1-0.3,0.1-0.4C85.5,9.9,83.3,9.1,81.1,8.4z M75.7,56.4c-0.6-2.3-1.1-4.3-1.6-6.4
		C74,52.2,74.3,54.3,75.7,56.4z M108.1,19.4c1.4,1.4,2.8,2.9,4.2,4.3C111.5,21.7,109.8,20.6,108.1,19.4z"/>
	<path class="st0" d="M67.2,3.9c-0.2,0.2-0.5,0.5-0.7,0.7c-0.3,0.1-0.7,0.2-1,0.4c-3,2.1-7.2,2.3-10.6,0.4c4.4-1,8.7-2,12.9-2.9
		C67.6,3,67.4,3.5,67.2,3.9z"/>
	<path class="st0" d="M46,6.8c0,1.3,0,2.5,0,4c-1-1.2-1.9-2.3-3-3.6C44.2,7,45.1,6.9,46,6.8z"/>
</g>
</svg>
