<?xml version="1.0" encoding="utf-8"?>
<!-- Generator: Adobe Illustrator 20.1.0, SVG Export Plug-In . SVG Version: 6.00 Build 0)  -->
<svg version="1.1" id="Layer_1" xmlns="http://www.w3.org/2000/svg" xmlns:xlink="http://www.w3.org/1999/xlink" x="0px" y="0px"
	 viewBox="0 0 1366 768" style="enable-background:new 0 0 1366 768;" xml:space="preserve">
<style type="text/css">
	.st0{fill:#7F7F7F;}
</style>
<g>
	<path class="st0" d="M724.5,240.7c-5.4,11.5-10.8,23.1-16.2,34.6c-5.4,11.6-10.8,23.3-16.4,34.8c-0.8,1.7-2.9,3.2-4.7,3.9
		c-3,1.1-3.9-1.6-4.9-3.7c-10.7-22.4-21.4-44.8-32.1-67.2c-0.4-0.7-0.8-1.5-1.5-2.9c-0.3,1.2-0.5,1.7-0.5,2.2
		c0,15.7-0.1,31.4,0.1,47.1c0.2,12.1,1.7,13.7,13.5,17c0,2.2,0,4.6,0,7.2c-11.6,0-23.2,0-35.2,0c0-2.4,0-4.8,0-7.2
		c11.3-3.8,12.5-5.1,12.6-17.6c0.2-16.9,0.1-33.7,0-50.6c0-11.2-1.2-12.4-12.6-14c0-1.9,0-3.8,0-6.4c5.6,0,11.4,0,17.2,0
		c6,0,12,0.2,18-0.1c3.5-0.2,5.2,0.9,6.7,4.2c8.3,18.2,16.9,36.2,25.4,54.3c0.4,0.9,0.9,1.7,1.7,3.4c4-8.3,7.7-16,11.4-23.7
		c5.4-11.4,10.7-22.9,16.3-34.3c0.7-1.5,2.6-3.5,3.9-3.6c12.5-0.3,25-0.2,37.7-0.2c0,2.3,0,4.2,0,6.1c-0.3,0.2-0.5,0.5-0.8,0.6
		c-11.2,1-12.4,2.3-12.4,13.4c0,18,0,36.1,0,54.1c0,11.7,1.2,13.1,13.3,14.1c0.1,1.2,0.3,2.5,0.3,3.8c0,1.2-0.1,2.3-0.2,3.8
		c-17.5,0-35,0-52.8,0c0-2.4,0-4.8,0-7.2c0.2-0.1,0.4-0.5,0.7-0.5c11-0.9,12.5-2.5,12.5-13.5c0-15.7,0-31.4,0-47.1
		c0-1.6-0.2-3.1-0.3-4.7C725.2,240.8,724.9,240.8,724.5,240.7z"/>
	<path class="st0" d="M1009.5,306.1c0,2.9,0,5,0,8c-7.1,0-14.3-0.6-21.3,0.2c-7.8,0.9-12.2-2.1-15.7-8.8
		c-4.7-9.2-10.4-17.8-15.4-26.9c-3.6-6.5-9.2-7.9-16.4-7.1c0,9.2-0.2,18.1,0.1,27.1c0.1,3.9,2.6,6.4,6.7,6.9c1.9,0.2,3.9,0.5,6,0.8
		c0,2.4,0,4.7,0,7.4c-17.3,0-34.7,0-52.4,0c0-2.4,0-4.8,0-7.2c13.1-2.4,13.5-2.9,13.6-16.6c0-16.7,0-33.4,0-50
		c0-12.8-0.8-13.8-13.5-15.6c-0.1-0.9-0.3-1.8-0.3-2.7c0-1,0.1-2,0.2-3.6c1.9,0,3.7,0,5.4,0c20.4,0,40.7,0,61.1,0
		c11.7,0,21.9,8,24.4,19c2.7,11.7-2.2,21.7-13.3,27.2c-1.5,0.7-3,1.4-4,1.9c7,10.1,14,20.2,21,30.3
		C998.9,301.3,1002.7,305.7,1009.5,306.1z M940.7,262.1c8.9-0.2,17.9,1.4,22.8-8.2c3.5-6.7,2.7-19-1.8-23.3c-6-5.7-13.5-5.1-21-4.6
		C940.7,238.2,940.7,249.8,940.7,262.1z"/>
	<path class="st0" d="M1251.4,224.7c0-2.2,0-4.2,0-6.7c1.6,0,3.2,0,4.9,0c20.7,0,41.4,0,62.1,0c10.8,0,20.4,7.6,23.3,18.5
		c2.9,10.9-1.4,21.2-11.3,26.8c-2,1.1-4.2,2.1-5.9,2.9c7.2,10.3,14.3,20.6,21.6,30.9c3.2,4.6,7,8.6,13.2,9c0,2.7,0,5.1,0,8.1
		c-9.8,0-19.5,0.2-29.1-0.2c-1.5,0-3.3-2-4.2-3.6c-6.2-10.3-12.5-20.5-18.3-31c-3.8-6.9-9.4-8.9-17-7.9c0,9-0.2,17.9,0.1,26.9
		c0.1,4.1,2.8,6.6,7,7.2c1.8,0.2,3.6,0.5,5.7,0.7c0,2.4,0,4.8,0,7.6c-17.4,0-34.6,0-52.1,0c0-2.6,0-5,0-7.6c1.5-0.1,2.7-0.2,4-0.3
		c6.6-0.8,8.9-3.1,9-9.7c0.1-20.5,0.1-41,0-61.6c0-7-2.5-9.3-9.3-9.8C1253.9,224.8,1252.8,224.8,1251.4,224.7z M1290.5,261.8
		c13.4,1.1,19.6-1.1,23-7.7c3.4-6.7,2.6-18.6-1.6-23.3c-3.8-4.4-15-6.5-21.4-4.1C1290.5,238.3,1290.5,249.9,1290.5,261.8z"/>
	<path class="st0" d="M1020.9,314c0-2.7,0-5.1,0-7.6c1.7-0.3,3.1-0.6,4.6-0.7c5-0.5,7.3-3.5,7.5-8.3c0.1-3.8,0.3-7.7,0.3-11.5
		c0-15.9,0.1-31.7,0-47.6c-0.1-11-1.3-12.3-12.3-13.7c0-1.9,0-3.8,0-6.4c1.6,0,3.4,0,5.1,0c18.9,0,37.7,0.3,56.6-0.1
		c17.2-0.3,29.4,8.1,37.7,22.1c12.9,21.7,9.2,58.5-23.2,70.4c-6.9,2.5-14.7,3.2-22.1,3.5c-17,0.5-34,0.3-51.1,0.3
		C1023.1,314.2,1022.1,314,1020.9,314z M1059.1,225.3c0,7.7,0,15.5,0,23.3c0,15.2-0.1,30.4,0,45.5c0.1,8.4,2.9,11,11.2,11.1
		c12.3,0.1,20.6-5.5,24.3-17.5c4.3-13.8,4.5-28,0.2-41.9C1090.1,230.3,1075.2,221.8,1059.1,225.3z"/>
	<path class="st0" d="M315.9,223.9c0-1.9,0-3.6,0-5.6c27.7,0,55.3,0,83.4,0c0.5,7.7,0.9,15.3,1.3,22.9c-7.3,1.8-7.8,1.8-10.5-4.8
		c-3.1-7.7-8.4-11.6-16.9-11.3c-5.8,0.2-11.6,0-17.8,0c0,11.3,0,22,0,32.7c13.8,2.8,17.6,0.6,19.7-11.1c2.4,0,4.9,0,7.7,0
		c0,10.9,0,21.7,0,32.8c-2.5,0-4.9,0-7.3,0c-3.2-12.1-4.9-13.2-20.1-11.6c-0.1,1.5-0.3,3.1-0.3,4.6c0,8,0.1,16,0.1,24
		c0,4.3,2.2,6.6,6.3,7.8c16.3,4.7,28.5-1,34-16.7c2-5.7,4.8-6.7,10.2-5.2c0,5,0,10.1,0,15.3c0,5.3,0,10.6,0,16.1
		c-30.5,0-59.9,0-89.7,0c0-2.6,0-5,0-7.4c12.7-2.1,13.1-2.6,13.1-15.4c0-16.9,0.2-33.7-0.1-50.6C328.9,230,331.6,226.2,315.9,223.9z
		"/>
	<path class="st0" d="M1145.4,224c0-1.8,0-3.5,0-5.5c27.6,0,55.2,0,83.4,0c0.5,7.5,1,15.3,1.4,23c-5.5,1.6-8.9,0.7-10.8-5.2
		c-2.5-7.9-8.4-11.5-16.9-11.2c-5.8,0.3-11.6,0-17.7,0c0,11.2,0,21.8,0,32.4c11.6,3.7,17.4,0.7,19.9-10.7c2.5,0,5.1,0,7.9,0
		c0,11,0,21.6,0,32.6c-2.6,0-5.2,0-7.8,0c-2.8-11.8-6.3-13.8-19.8-11.3c0,10.3-0.2,20.5,0.1,30.8c0.1,4.1,4,5.3,7.3,5.7
		c19.8,2.3,26.6-1.1,33.3-18.2c0.5-1.4,1-2.8,1.5-4.3c2.6,0,5,0,7.6,0c0,10.7,0,21.1,0,31.7c-29.9,0-59.4,0-89.3,0
		c0-2.4,0-4.8,0-7.2c0.2-0.2,0.5-0.5,0.8-0.5c11.1-1.1,12.5-2.7,12.5-14.1c0-17.2,0-34.4,0-51.6
		C1158.9,226.8,1158.8,226.7,1145.4,224z"/>
	<path class="st0" d="M851.6,224.6c0-2.2,0-4.1,0-6.3c11.9,0,23.7,0,35.8,0c0,2,0,3.9,0,5.8c-11,4.2-11.9,5.8-12.1,18.1
		c-0.1,14-0.1,28-0.7,42c-0.5,13.8-8.1,23.1-20.6,28.2c-13.9,5.8-28.1,5.4-41.9-0.5c-15.3-6.5-20.3-19.3-20.3-34.8
		c0-12.7,0-25.4,0-38.1c0-11.7-0.9-12.8-12.3-14.7c0-1.9,0-3.8,0-6.1c16.9,0,33.8,0,51.1,0c0,2,0,3.9,0,5.7
		c-0.3,0.3-0.6,0.6-0.9,0.6c-10.5,1-12.2,2.6-12.1,13.4c0.1,15.7,0,31.4,0.8,47c0.7,12.7,9.4,20.5,21.8,20.9
		c12.3,0.4,22.8-7.3,24.2-19.2c1.3-10.9,0.9-22,1.2-33c0.1-4.7,0.1-9.4,0-14C865.6,229.8,862.2,226,851.6,224.6z"/>
	<path class="st0" d="M477.2,222.7c3-5.3,3.1-5.3,10.9-4.2c0,8.7,0,17.5,0,26.3c-7.1,1.8-7.1,1.6-9.8-4.8
		c-3.5-8.1-8.4-14.9-18.1-16.1c-6.2-0.8-11.4,2-13.2,6.7c-1.8,4.9-0.2,10.7,4.8,14.1c4.1,2.8,8.8,4.8,13.2,7.1
		c5.6,2.9,11.4,5.5,16.8,8.8c12.1,7.3,17.3,20.3,13.8,33.6c-3.1,12-15.9,21.7-29.1,22.2c-11,0.5-20.5-3-28.9-11
		c-0.9,2.7-1.7,4.8-2.5,7.2c-2.6,0-5.2,0-8.5,0c0-5.6,0-11,0-16.5c0-5.5,0-10.9,0-16.7c3.1,0,5.7,0,8.6,0c1.2,3.3,2.2,6.7,3.6,10
		c3.9,9.1,10.1,15.7,20.4,17.1c7.3,1,12.8-2.1,14.9-8c2-5.4-0.1-11.2-6.2-14.9c-6.9-4.1-14.1-7.5-21.1-11.4c-4-2.3-8.2-4.6-11.6-7.8
		c-13.3-12.4-11.9-32.9,2.8-43.5c2.2-1.6,5.4-2.5,8.2-2.7c5.5-0.4,11,0,16.5-0.2C468.1,217.8,473.3,217.7,477.2,222.7z"/>
	<path class="st0" d="M206.6,306.1c0,3,0,5.2,0,7.8c-16.2,0-32.1,0-48.2,0c0-2.6,0-5.1,0-7.4c10.9-1.9,10.7-1.9,7-12.5
		c-1.6-4.7-3.8-6.5-8.9-6.1c-6.5,0.5-13,0.3-19.5,0.1c-2.7-0.1-4.5,0.6-5.1,3.4c-0.1,0.3-0.3,0.6-0.4,0.9c-4,10.2-3.1,11.9,7.7,14.2
		c0,2.4,0,4.8,0,7.5c-10.7,0-21.1,0-31.9,0c0-2.6,0-5,0-7.6c8.6-1.9,12.1-8.8,15-16.1c8.9-22.3,17.9-44.5,26.4-66.9
		c1.7-4.4,3.9-5.5,8.3-5.5c4.2,0,6,1.5,7.5,5.3c8.8,22.1,17.8,44.2,26.7,66.2c0.7,1.7,1.4,3.4,2.2,5.1
		C196,300.3,199.3,305.3,206.6,306.1z M159.3,279c-3.9-9.3-7.6-18.1-11.7-28c-3.9,10.1-7.4,18.9-11,28
		C144.6,279,151.6,279,159.3,279z"/>
	<path class="st0" d="M106.1,218.4c0,8.7,0,17.2,0,25.5c-7.5,1.5-7.5,1.5-9.6-5.2c-3.8-11.7-10.8-15.2-26.4-12.6c0,1.7,0,3.5,0,5.3
		c0,20,0,40,0,60.1c0,12.4,1.3,13.9,13.8,14.8c0,2.4,0,4.8,0,7.6c-17.6,0-35.3,0-53.4,0c0-2.4,0-4.8,0-7.1c0.3-0.2,0.4-0.4,0.5-0.4
		c12.6-1.8,13.2-2.5,13.2-15.5c0-19.7,0-39.4,0-59.1c0-1.8,0-3.6,0-5.3c-16-4.5-23.6,0.4-27.6,17.8c-2.3,0-4.7,0-7.4,0
		c0-8.7,0-17.1,0-25.9C41.4,218.4,73.5,218.4,106.1,218.4z"/>
	<path class="st0" d="M214.5,224.3c0-2.1,0-3.9,0-6c17.4,0,34.6,0,52.2,0c0,2,0,4,0,5.8c-0.5,0.3-0.7,0.6-1,0.6
		c-10.9,0.9-12.2,2.3-12.2,13.1c0,18.8,0,37.7,0,56.5c0,7.5,2.2,9.8,9.5,10.7c17.3,2,27-4,32.2-20.6c1.7-5.3,5.2-2.4,8.4-3.3
		c0,11.1,0,21.8,0,32.7c-29.9,0-59.3,0-89,0c0-2.7,0-5.1,0-7.7c1.7-0.2,3.2-0.2,4.6-0.4c5.8-0.9,8.1-2.9,8.1-8.9c0.2-21,0.2-42,0-63
		C227.2,227,225.4,225.9,214.5,224.3z"/>
	<path class="st0" d="M538.5,218c17.7,0,25.3,4.7,28.8,16.6c5,16.9-6.7,33.1-24.3,33.4c-3.8,0.1-7.7-0.1-11.4-1
		c-9.8-2.3-16.1-8.4-18.4-18.3c-2.3-10.1,0.4-18.7,7.8-26C526.8,217.1,533.9,217.9,538.5,218z M553.4,242.6
		c-0.8-4.5-1.3-9.2-2.6-13.7c-1.4-5.1-5.3-7.7-10.5-7.7c-5.2,0-8.9,2.7-10.5,7.8c-2.7,8.9-2.6,17.8,0.3,26.6c1.5,4.7,5,7.4,10.2,7.4
		c5.3,0,9.1-2.5,10.6-7.5C552.1,251.5,552.6,247.1,553.4,242.6z"/>
	<path class="st0" d="M978.4,387.5c-7.2,0-14.4,0-21.8,0c0.2-0.9,0.2-1.5,0.3-1.5c6.1-0.8,6.8-5,6.6-10.1c-0.2-6.3,0.1-12.7-0.1-19
		c-0.3-9-7.2-12.5-14.8-7.5c-4.5,2.9-7.8,6.4-7.1,12.6c0.6,5.3,0.3,10.7,0.1,16c-0.1,3.9,0.4,7,5.2,7.5c0.4,0,0.7,0.9,1.5,2.1
		c-7.6,0-14.6,0-21.6,0c0.1-0.9,0.1-1.5,0.2-1.5c6.6-0.9,7.2-5.3,6.9-10.8c-0.3-6.2,0.1-12.3-0.1-18.5c-0.3-8.4-6.8-12.1-14.1-8
		c-4.8,2.7-8.6,6.1-7.8,12.6c0.5,4.1,0.1,8.3,0.1,12.5c0,8.9,0,8.9,6.5,12.7c-3,2.4-18.1,2.4-21,0c6.5-3.6,6.5-3.6,6.5-12
		c0-6-0.2-12,0.1-18c0.3-5-0.5-8.7-7-8.5c0-0.6,0.1-1.2,0.1-1.7c4.2-1,8.5-2.1,13.3-3.3c0.7,2.7,1.3,5,1.6,6.2
		c5.1-2,10.2-4.9,15.7-5.8c6.3-1.1,11.2,2.1,13.4,8c4-2.5,7.5-5.5,11.5-7.1c10.2-4,18.5,1.7,18.8,12.5c0.2,6,0,12,0,18
		c0,5.3-0.9,11.3,8.3,10.9C979.2,386.2,978.8,386.8,978.4,387.5z"/>
	<path class="st0" d="M43.2,385.7c-4.4,3.3-31.5,3.1-34.1,0.7c0.2-0.3,0.3-0.7,0.5-0.7c10.3-1.6,10.5-1.6,10.5-12.2
		c0.1-15,0-30-0.1-45.1c-0.1-7.9-0.5-8.1-8.6-9c-0.6-0.1-1.2-0.4-1.9-0.6c2.4-2.3,44.8-3.2,55-1.3c0,5.6,0,11.3,0,17
		c-0.3,0.2-0.6,0.3-0.9,0.5c-0.7-1.2-1.6-2.2-2-3.5c-2.9-9.4-6.3-12-16.3-12c-4.6,0-9.3,0-14.2,0c0,10.1,0,19.7,0,30.2
		c4.2-0.4,8.9,0.2,12.1-1.6c2.8-1.6,4.1-6.1,6-9.2c2.2,1.5,2.7,20.9,0.1,25c-1.9-3.7-2.8-8.6-5.7-10.5c-3-2-7.9-1-12.4-1.4
		c0,9.9-0.3,19.2,0.3,28.5c0.1,1.7,3.3,3.6,5.4,4.7C38.3,385.8,40.3,385.4,43.2,385.7z"/>
	<path class="st0" d="M389.5,348.3c0-7.9-0.1-15.2,0-22.5c0.1-5.4-4.8-4.4-7.8-7.3c5-0.9,10-1.9,15.8-2.9c0,2.3,0,4,0,5.8
		c0,18.5,0.1,37,0,55.5c0,4.6-0.3,8.9,6.2,8.9c0.2,0,0.5,0.4,0.6,0.7c0.1,0.3,0.1,0.6,0.1,1.5c-4.5,0.5-9,1-13.7,1.5
		c-0.4-2.1-0.8-3.9-1-4.8c-5.7,1.6-11.3,4.1-17.1,4.7c-6.4,0.7-11.3-3.2-15.1-8.3c-6.5-8.9-6-23,1.2-31.1
		C366.2,341.6,375.8,341,389.5,348.3z M389.5,366.1c0-3.5,0-7,0-10.5c0-1.1-0.1-2.4-0.7-3.3c-5.6-8.2-20.5-7.3-24.4,1.7
		c-3.6,8.2-3.4,16.9,0.5,25.1c2.7,5.7,8.8,8.1,14.7,6.5c6.9-1.8,10-5.7,10-12.7C389.5,370.8,389.5,368.4,389.5,366.1z"/>
	<path class="st0" d="M755.8,385.7c-4.3,3.2-19.9,3.1-22.6,1c2.2-1.5,5.3-2.7,6.4-4.8c1.2-2.3,0.5-5.5,0.5-8.4c0-13.3,0-26.7,0-40
		c0-9.6,0-9.6-7.8-14.7c5.5-1,10.2-1.9,15.6-2.9c0,11.4,0,22.6,0,35.1c5.5-5.8,10.9-8.5,17.7-7.8c7.2,0.8,11.3,4.5,11.8,11.7
		c0.4,6.1,0.2,12.3,0.4,18.5c0.1,5.6-1.6,12.2,7.8,12.5c-3.3,2.8-19,3-23.1,0.9c0.1-0.3,0.1-0.8,0.2-0.9c7.3-2.5,7.4-2.5,7.3-10.9
		c0-6.7,0.1-13.4-0.4-20c-0.6-6.9-5.9-10-12.5-7.9c-5.4,1.7-9.1,6.7-9.1,12.3c0,5.7,0.2,11.4-0.1,17
		C747.8,381.6,748.5,385.5,755.8,385.7z"/>
	<path class="st0" d="M576.6,265.7c1-1,1.9-2.5,3.1-2.8c3.2-0.9,4.3-2.8,4.3-5.8c0-9.8,0-19.7,0-29.5c0-3.1-0.7-5.5-4.5-6.1
		c-1-0.1-1.8-1.5-3.7-3.2c15.4,0,29.1,0,43.3,0c0,3.9,0,7.6,0,12.4c-1.5-0.6-4-0.8-4.2-1.7c-3-9.2-10.3-7.1-17.3-7
		c0,5.4,0,10.7,0,16c3.8,0.6,7.2,1.4,8.5-3.6c0.2-0.8,1.7-1.6,2.7-1.7c0.5-0.1,1.6,1.5,1.7,2.3c0.2,4.8,0.1,9.6,0.1,16
		c-2.1-1.4-4.2-2-4.4-2.9c-0.9-5.4-4.5-4.8-8.8-4.2c0,4.8-0.3,9.6,0.2,14.4c0.2,1.6,2.5,2.9,3.9,4.3c1,1.1,2.1,2.1,3.2,3.2
		c-0.3,0.3-0.6,0.7-0.9,1c-8.8,0-17.6,0-26.3,0C577.2,266.4,576.9,266.1,576.6,265.7z"/>
	<path class="st0" d="M656.2,346.7c-6.8,1.3-7.5,7-9.4,11.8c-3.5,9-7,18-10.7,26.9c-0.6,1.5-2,2.6-3.1,4c-0.9-1.3-2.1-2.4-2.7-3.8
		c-3.6-9.3-7.1-18.6-11-29.1c-1.3,3-2.2,5-3,7.1c-2.9,7.6-5.8,15.3-8.8,22.8c-0.5,1.2-1.8,2-2.7,3c-0.8-1-1.8-1.8-2.3-2.9
		c-3.8-9.6-7.4-19.3-11.2-28.9c-1.8-4.4-2.1-10-9.2-10.7c0.3-0.5,0.6-1,0.9-1.4c6.6,0,13.1,0,19.8,0c-0.2,0.7-0.1,1.2-0.3,1.3
		c-6,2.5-5.9,2.5-3.6,8.7c2.8,7.3,5.5,14.6,8.7,22.9c4.7-11.8,9-22.8,13.4-33.8c0.6,0,1.3-0.1,1.9-0.1c4.2,10.9,8.3,21.7,13,34
		c2.1-5.4,3.7-9.7,5.4-14c0.9-2.3,1.9-4.6,2.8-7c2.7-7.1,2.7-7.1-3.5-11.9c5.5,0,10.2,0,14.8,0C655.7,345.9,655.9,346.3,656.2,346.7
		z"/>
	<path class="st0" d="M1219.9,320.7c-3-0.4-4.6-0.6-6.2-0.8c-0.1-0.5-0.2-1-0.3-1.5c4.6-0.9,9.2-1.7,14.7-2.7
		c-4.5,15.1-8.9,29.5-13.2,43.9c0.5,0.4,0.9,0.8,1.4,1.1c2.5-2.9,4.8-6.1,7.6-8.6c3.3-2.9,7-5.6,10.9-7.8c1.6-0.9,4.3-0.8,6.2-0.3
		c1,0.3,2.1,2.8,1.8,3.8c-0.3,1-3,2.5-3.7,2.1c-6.2-3.7-9.5,0.9-13.5,4.1c-2.2,1.8-4.5,3.5-7.7,6c10.6,3,9.8,10.6,11.1,17.3
		c0.5,2.5,1.6,4.9,2.4,7.4c1.9-2.1,3.8-4.3,5.7-6.4c0.7-0.8,1.2-1.7,2.1-3c0.8,6.5-3.7,13.1-9.1,14.1c-4.4,0.9-7.7-1.1-8.1-5.8
		c-0.4-4.4,0.2-9,0.3-13.5c0.1-2.6,0.6-6.4-2.9-6.3c-2.3,0-5.8,2.3-6.8,4.5c-2.4,5.1-4,10.6-5.3,16.1c-1.1,4.6-3.4,5.4-7.9,3.9
		C1206.3,365.8,1213,343.6,1219.9,320.7z"/>
	<path class="st0" d="M325.3,382.8c-4.9,2.1-9.4,4.4-14.1,5.9c-5.4,1.6-10.7-0.8-12.9-5.1c-2.1-4.2-0.8-9.9,4.2-13.1
		c5.9-3.7,12.4-6.4,18.5-9.8c1.7-0.9,4.3-2.7,4.1-3.8c-0.4-3.2-1.1-7.3-3.3-9.2c-5.1-4.5-12.6-1.7-15.2,4.6
		c-0.6,1.6-2.4,2.9-3.9,3.9c-0.5,0.3-2.8-0.7-2.8-1.1c0.1-2,0-4.5,1.1-5.9c5.5-7.6,23.6-8.5,29.3-1.2c2,2.6,2.7,6.7,2.9,10.2
		c0.4,6.8,0,13.7,0.2,20.5c0.1,2,1.4,4,2.2,6c1.6-1.3,3.3-2.7,4.9-4c0.4-0.3,0.8-0.4,1.6-0.9c0.7,4.4-0.7,7.3-4.7,8.7
		C332.3,390.4,328.3,388.6,325.3,382.8z M325.4,360.9c-6.1,3.8-11.4,6.5-15.9,10.1c-3.2,2.6-4.5,7.1-1.7,10.7c1.3,1.7,5,3,7.1,2.5
		c4.3-1,9.5-2.4,10.3-7.8C326,372,325.4,367.3,325.4,360.9z"/>
	<path class="st0" d="M88.1,343.1c13,0.1,22.9,10.2,22.9,23.4c0,13.6-9.9,23.5-23.4,23.3c-13.5-0.2-22.8-9.9-22.7-23.8
		C65,352.6,74.8,343,88.1,343.1z M102.1,366.9c-0.6-4-0.8-7.8-1.8-11.5c-1.8-6.5-6.4-9.8-12.8-9.6c-6.3,0.2-11.3,3.4-12.1,9.7
		c-0.9,7.3-0.8,14.9,0,22.2c0.7,5.7,6,9.1,12,9.3c5.9,0.3,10.9-2.8,12.7-8.5C101.2,374.8,101.5,370.7,102.1,366.9z"/>
	<path class="st0" d="M1111.8,366.3c0-13.4,9.6-23.2,22.9-23.2c13.3,0,23.3,10.1,23.2,23.6c-0.1,13.4-9.6,23-23,23.1
		C1121.5,389.9,1111.8,380,1111.8,366.3z M1120.4,366.8c0.6,3.6,1,7.9,2.3,12c1.7,5.4,6.6,8.4,12.4,8.2c5.9-0.1,10.3-3.2,12.1-8.7
		c2.3-7.3,2.2-14.8,0.4-22.2c-1.7-6.9-6.3-10.4-12.8-10.4c-6.6,0-11.1,3.5-12.7,10.4C1121.2,359.4,1121,362.7,1120.4,366.8z"/>
	<path class="st0" d="M282.5,377.8c-1.6,9.2-11.7,13.8-21.5,11.3c-11.5-3-17.9-14.6-15.5-28.2c2.1-11.6,11.7-18.9,23.4-17.7
		c8.3,0.9,14.1,7.1,14.8,16.2c-8.3,0-16.6,0.2-24.9-0.1c-3.7-0.1-5.3,1.1-4.8,4.8c0.6,4.4,0.8,9,2,13.3c1.2,4.6,4.2,8,9.3,8.8
		c5.4,0.9,10.3-0.4,13.9-4.8C280.2,380.1,281.3,379,282.5,377.8z M274.3,357c0.3-7.1-2.4-10.8-8.1-11.2c-6.2-0.5-10.2,3.4-11.4,11.2
		C261.2,357,267.6,357,274.3,357z"/>
	<path class="st0" d="M1028.8,378.3c-3,8.6-11.9,12.9-21.7,11c-12-2.4-18.9-14.1-16.5-27.7c2.2-12.6,12.2-20.1,24.3-18.2
		c8,1.2,13.9,7.9,13.7,16c-9.4,0-18.9,0-28.9,0c-1.1,8.4-0.9,16.3,4.2,23c4.8,6.3,15.1,5.5,20.6-1c0.8-1,1.6-2,2.5-3
		C1027.2,378.1,1027.8,378.3,1028.8,378.3z M1019.6,357c0.2-7.1-2.5-10.7-8.2-11.2c-6.3-0.5-10.4,3.5-11.4,11.2
		C1006.5,357,1012.9,357,1019.6,357z"/>
	<path class="st0" d="M453.7,359.5c-9.9,0-19.6,0-29.6,0c-0.8,7.5-0.5,14.4,2.9,20.8c4.3,8.1,16,8.6,22,1.1c1.1-1.3,2.4-2.4,3.9-3.2
		c-2.4,8.7-11.7,13.2-21.5,11c-11.3-2.5-18.3-13.9-16.5-26.7c1.8-12.3,10.9-20.1,22.6-19.4C446.4,343.7,452.4,349.4,453.7,359.5z
		 M424.9,356.9c6.4,0,12.9,0,19.3,0c0.5-6.8-2.5-10.7-8.1-11.1C429.6,345.3,425.2,349.6,424.9,356.9z"/>
	<path class="st0" d="M223.4,387.5c-7.6,0-15.2,0-22.9,0c0.2-0.9,0.2-1.5,0.3-1.5c6.3-0.7,7.5-4.6,7.1-10.2
		c-0.4-5.3-0.1-10.7-0.1-16c0-8.5,0-8.5-8.5-12.8c5.2-1.5,9.5-2.7,14.4-4c0.7,3,1.3,5.6,1.8,7.9c3.1-2.3,5.9-5.2,9.4-6.9
		c4.8-2.4,10.1-0.4,11.1,4c0.4,1.5-1,3.4-1.5,5.2c-1.7-0.6-4-0.7-4.9-1.9c-3.8-4.9-5-5.4-8.8-0.7c-2.3,2.9-3.8,6.9-4.5,10.6
		c-0.8,4.2-0.3,8.6-0.3,13C215.9,383.3,215.9,383.3,223.4,387.5z"/>
	<path class="st0" d="M146.7,386.3c-3.6,2.6-20.1,2.6-23.7-0.1c1.3-0.4,2.5-0.5,3.2-1.1c1.6-1.4,4.1-3,4.2-4.6c0.4-9,0.4-18,0.1-27
		c-0.1-1.5-2.2-3.1-3.7-4.4c-0.9-0.7-2.3-0.8-3.4-1.2c0-0.4,0-0.9-0.1-1.3c4.3-1.2,8.6-2.3,13.4-3.6c0.6,2.9,1.2,5.5,1.7,8.2
		c2.6-2.2,4.9-4.8,7.7-6.5c4.6-2.9,10-2.1,11.9,1.8c0.8,1.7-0.3,4.4-0.5,6.6c-1.9-0.8-4.4-1.1-5.5-2.5c-3-4-3.8-4.3-7.7-1.1
		c-4.2,3.5-5.5,8.2-5.6,13.4c-0.1,4,0,8,0,12C138.7,383.7,138.7,383.7,146.7,386.3z"/>
	<path class="st0" d="M1333.5,375.7c-1.3,5.2-3.7,9.9-8.7,12.3c-2.3,1.1-6.4,1.2-8.2-0.1c-1.8-1.3-3-5.4-2.4-7.7
		c4.6-17,9.8-33.9,14.7-50.9c0.2-0.8,0.5-1.6,0.7-2.4c1.8-6.3,1.8-6.3-4.4-7.1c-0.1-0.5-0.2-1-0.3-1.5c4.7-0.9,9.3-1.7,14.8-2.8
		c-3,10.1-5.8,19.4-8.6,28.7c-3.3,11-6.9,21.9-10,33c-0.7,2.5,0.1,5.5,0.3,8.3c2.4-1.7,5.1-3.2,7.3-5.2c1.6-1.5,2.5-3.7,3.8-5.5
		C1332.7,375.2,1333.1,375.5,1333.5,375.7z"/>
	<path class="st0" d="M517.7,385.4c-1.1,1.6-1.9,2.8-2.7,4c-0.3-0.1-0.6-0.1-1-0.2c0-4.6,0-9.2,0-13.9c0.3-0.1,0.6-0.3,1-0.4
		c0.7,1.3,1.4,2.6,2,4c2,4.1,4.7,7.3,9.5,8.1c3.6,0.6,6.7-0.3,8.4-3.8c1.8-3.6,1.2-6.9-1.9-9.4c-2.3-1.8-5.1-3.1-7.6-4.7
		c-2.4-1.5-5-2.8-7.2-4.5c-5.6-4.4-6.4-11.2-2.3-16.9c3.8-5.3,10.5-6.2,16.4-2.3c0.7,0.4,1.3,1,1.9,1.5c1-1.1,2-2.1,3.6-3.9
		c0,5.4,0,9.7,0,14.1c-0.4,0.1-0.8,0.2-1.1,0.3c-0.6-1.4-1-3-2-4.2c-1.8-2.3-3.6-5-6-6.4c-3.2-1.9-7-1.5-9.2,2.1
		c-2.3,3.7-0.9,6.9,2.5,9c3.4,2.1,7,3.8,10.5,5.7c4.1,2.2,7.4,5.1,8.4,9.9c1.1,5.5,0.2,10.4-4.6,13.8c-4.8,3.3-10,3.3-15.1,0.5
		C520.1,387.1,519.1,386.3,517.7,385.4z"/>
	<path class="st0" d="M1303,376.3c-2.4,3.5-4.5,7.2-7.3,10.3c-2.6,2.9-6.4,3.9-10,1.9c-3.7-2-3.8-5.7-2.8-9.2
		c5-16.9,10-33.9,15-50.8c0.1-0.5,0.3-0.9,0.5-1.4c1.9-6.4,1.9-6.4-4.7-7.4c-0.1-0.4-0.2-0.9-0.3-1.3c4.8-0.9,9.6-1.8,15.1-2.8
		c-5.4,17.7-10.6,34.7-15.7,51.7c-1.3,4.3-2.8,8.6-3.8,12.9c-0.4,1.6,0.4,3.4,0.7,5.1c1.7-0.6,3.9-0.8,5.2-1.9
		c1.7-1.5,2.7-3.7,4-5.6c0.7-1,1.6-2,2.4-3C1301.8,375.4,1302.4,375.8,1303,376.3z"/>
	<path class="st0" d="M489.3,387.5c-7.5,0-15,0-22.7,0c0.2-1,0.3-1.5,0.3-1.6c6.5-0.6,7.3-4.7,6.9-10.1c-0.4-5.3-0.1-10.7-0.1-16
		c0-8.3,0-8.3-8.3-12.8c5.2-1.4,9.4-2.6,14.1-3.9c0.7,2.8,1.2,5.3,1.9,8c2.7-2.3,4.9-4.6,7.6-6.4c4.1-2.6,9.2-2.3,11.4,0.9
		c1.1,1.6,1.2,3.9,1.2,5.9c0,0.6-2,2.1-2.5,1.8c-1.6-0.7-3.7-1.7-4.4-3.1c-1.9-3.7-3.9-3.4-6.7-1.3c-4,3-6.1,7.1-6.2,12
		c-0.2,6.3-0.1,12.7-0.1,19c0,3.2,1.5,5,4.7,5.3c1.1,0.1,2.1,0.6,3.2,0.9C489.6,386.6,489.5,387,489.3,387.5z"/>
	<path class="st0" d="M834.4,347.8c-2.6-0.3-4.4-0.5-6.2-0.8c-0.3-0.3-0.5-0.7-0.8-1c7.2-2.7,11.7-7.5,12.9-15.3
		c0.5,0.2,1,0.4,1.5,0.6c0,4.2,0,8.4,0,12.9c4.8,0.4,9,0.7,13.1,1c0,0.7-0.1,1.4-0.1,2.1c-3,0-6.1,0.1-9.1,0
		c-2.4-0.1-3.8,0.5-3.7,3.3c0.1,9-0.2,18,0.3,27c0.1,2.5,1.9,6.3,3.9,7.1c1.9,0.8,5.1-1.4,7.7-2.4c0.5-0.2,1-0.5,2.6-1.3
		c-0.7,2-0.8,3-1.3,3.8c-2.7,3.8-8.8,5.8-13.5,4.3c-4.8-1.6-7.3-5.1-7.3-10.2C834.4,368.7,834.4,358.4,834.4,347.8z"/>
	<path class="st0" d="M1087.7,331.5c0,4.2,0,8.4,0,12.8c4.7,0.3,8.8,0.5,12.9,0.8c0,0.6,0,1.2,0,1.8c-4,0-8.1,0-12.5,0
		c0,11.8-0.4,22.7,0.2,33.6c0.2,4.9,5.8,6.5,9.9,3.4c1-0.7,1.9-1.5,3.9-1.7c-0.4,1-0.7,2.2-1.3,3c-2.7,3.6-8.6,5.4-13.1,4
		c-4.9-1.6-7.3-5.2-7.4-10.1c-0.2-8.5-0.2-17-0.2-25.5c0-1.8,0-3.6,0-5.7c-2.1-0.3-4-0.6-5.9-0.8c-0.4-0.4-0.7-0.8-1.1-1.2
		c7.7-2.3,12-7.3,13-15C1086.6,331.1,1087.2,331.3,1087.7,331.5z"/>
	<path class="st0" d="M710,331.4c0,4.2,0,8.3,0,12.9c4.7,0.3,8.9,0.6,13.1,0.9c0,0.6-0.1,1.2-0.1,1.8c-4,0-8,0-12.4,0
		c0,11.6-0.4,22.6,0.2,33.5c0.3,5,5.8,6.6,9.9,3.4c1-0.7,1.8-1.6,3.7-1.8c-0.3,0.9-0.4,2-1,2.8c-2.7,3.8-8.3,5.7-13,4.3
		c-4.7-1.3-7.4-4.6-7.6-9.4c-0.4-8.3-0.3-16.7-0.4-25c0-2.3,0-4.6,0-7c-2.3-0.3-4.1-0.6-6-0.9c-0.2-0.4-0.5-0.7-0.7-1.1
		c7.5-2.3,11.8-7.4,12.9-15.2C708.9,330.9,709.4,331.1,710,331.4z"/>
	<path class="st0" d="M507.8,287.1c1.4-1.7,1.9-2.9,2.8-3.3c1-0.4,2.3-0.2,3.5-0.2c34.7,0,69.4,0,104.1,0c1.2,0,2.4-0.2,3.5,0.1
		c0.7,0.2,1.2,1.2,1.8,1.8c-0.6,0.6-1.2,1.3-2,1.6c-0.5,0.3-1.3,0.1-2,0.1c-35.9,0-71.7,0-107.6,0
		C511.1,287.3,510.3,287.2,507.8,287.1z"/>
	<path class="st0" d="M686.4,386.4c-4.3,2.7-21.2,2.4-23.5-0.1c7.8-2.9,7.8-2.9,7.8-11.9c0-5.2,0-10.3,0-15.5c0-8.7-0.1-8.7-8-12.4
		c5-1.1,10-2.2,15.7-3.5c0,7.9,0,15.4,0,22.8c0,3.2-0.1,6.3,0,9.5C678.7,383.6,678.7,383.6,686.4,386.4z"/>
	<path class="st0" d="M863.5,346.2c5.1-1,10.1-2,16.1-3.2c0,3.1,0,6,0,8.9c0,7.7,0,15.3,0,23c0,8.5,0,8.5,7.3,11.4
		c-2.6,2.9-21.1,2.8-23.2-0.2c8-2.3,8-2.3,8-11.5c0-6.2-0.1-12.3,0-18.5c0.1-4.7-1.2-7.9-6.6-7.8c-0.5,0-1.1-0.5-1.6-0.7
		C863.5,347.2,863.5,346.7,863.5,346.2z"/>
	<path class="st0" d="M1271.9,377.5c-3.2,3.5-6.1,7.4-9.8,10.2c-1.8,1.4-5.8,1.7-7.7,0.6c-1.8-1.1-3.3-4.7-3-7
		c0.7-4.7,2.5-9.2,4.1-13.8c1.9-5.5,4.1-10.9,5.9-16.4c0.3-1-0.2-2.4-0.3-3.6c-1.2,0.3-2.7,0.2-3.6,1c-1.6,1.4-2.9,3.2-4.3,4.8
		c-0.9,1-1.8,2.1-3.2,3.7c0.2-6.4,7.3-13.7,12.3-13.7c4.2,0,6.9,3.7,5.5,8.6c-1.7,6.1-4,12-6.1,17.9c-1.2,3.6-2.7,7.2-3.6,10.9
		c-0.3,1.3,0.5,3,0.7,4.4c1.5-0.5,3.3-0.6,4.4-1.6c1.8-1.7,3-3.9,4.7-5.8c0.6-0.7,1.7-1.1,2.5-1.6
		C1270.9,376.5,1271.4,377,1271.9,377.5z"/>
	<path class="st0" d="M1353.8,367.8c-0.4-0.9-1.1-1.7-1.2-2.6c-1.1-13.1-2.2-26.2-3.1-39.3c-0.3-3.7-0.5-7.8,4.6-8.4
		c3.3-0.4,5.2,3.4,4.7,8.9c-1.1,12.8-2.1,25.5-3.2,38.3c-0.1,1-0.3,1.9-0.5,2.8C1354.6,367.6,1354.2,367.7,1353.8,367.8z"/>
	<path class="st0" d="M1352.5,378c5.2,0.5,7,2.2,7,5.9c0,3.8-2,5.6-5.4,5.7c-3.7,0.1-6.3-2.3-5.6-5.9
		C1349,381.4,1351.4,379.4,1352.5,378z"/>
	<path class="st0" d="M679.3,321.3c-0.3,3.4-2,5.7-5.6,5.6c-3.5-0.1-5.5-2.2-5.4-5.8c0-3.4,2-5.3,5.3-5.4
		C677.1,315.7,678.9,317.7,679.3,321.3z"/>
	<path class="st0" d="M869.2,321.6c0.2-3.5,1.8-5.8,5.5-5.8c3.6-0.1,5.6,2.2,5.6,5.6c0.1,3.2-1.8,5.4-5.2,5.6
		C871.6,327.2,869.7,325.1,869.2,321.6z"/>
	<path class="st0" d="M1276.4,320c-3.2,2.5-5,5-6.6,4.9c-1.7-0.1-4.5-2.6-4.6-4.2c-0.1-1.5,2.4-4.3,4.1-4.6
		C1271,315.8,1273,318,1276.4,320z"/>
</g>
</svg>
