<?xml version="1.0" encoding="utf-8"?>
<!-- Generator: Adobe Illustrator 20.1.0, SVG Export Plug-In . SVG Version: 6.00 Build 0)  -->
<svg version="1.1" id="Layer_1" xmlns="http://www.w3.org/2000/svg" xmlns:xlink="http://www.w3.org/1999/xlink" x="0px" y="0px"
	 viewBox="0 0 758.4 143.8" style="enable-background:new 0 0 758.4 143.8;" xml:space="preserve">
<style type="text/css">
	.st0{fill:#FFFFF0;}
</style>
<g>
	<path class="st0" d="M472.8,36.5c0,1,0,2,0,3c-6.3,1-6.5,1.2-6.5,7.5c0,8.2,0,16.4,0,24.6c0,6.3,0.2,6.6,6.5,7.4c0,1.1,0,2.3,0,3.6
		c-8.5,0-16.9,0-25.4,0c0-1.3,0-2.4,0-3.6c6.1-0.8,6.4-1.2,6.4-7.5c0-7.1,0-14.3,0-21.4c0-0.9,0-1.7,0-2.6c-0.2,0-0.3-0.1-0.5-0.1
		c-0.4,0.7-0.8,1.4-1.2,2.2c-4.9,10.4-9.7,20.8-14.6,31.1c-0.4,0.8-1.3,1.6-2.2,2c-1.5,0.6-2-0.8-2.5-1.9
		c-5.1-10.7-10.2-21.4-15.3-32.1c-0.2-0.4-0.4-0.8-1-1.1c0,3.4,0,6.8,0,10.2c0,4.4,0,8.8,0.1,13.2c0.1,5.6,1,6.6,6.4,8
		c0,1.1,0,2.3,0,3.6c-5.6,0-11.2,0-16.9,0c0-1.2,0-2.3,0-3.5c0.6-0.2,1.3-0.4,1.9-0.6c2.5-0.8,4-2.4,4.1-5c0.1-9.7,0.1-19.4,0-29.1
		c0-3.1-1.2-4.1-4.2-4.4c-0.5-0.1-1.1-0.1-1.8-0.2c-0.1-1.1-0.1-2.1-0.2-3.2c6.6,0,13.2,0,19.8,0c0.2,0.7,0.3,1.4,0.6,2
		c3.4,7.2,6.8,14.5,10.2,21.7c0.9,1.9,1.8,3.8,2.9,6.1c4.9-10.2,9.6-20,14.2-29.8C460,36.5,466.4,36.5,472.8,36.5z"/>
	<path class="st0" d="M573,36.5c1,0.5,2,1,2.9,1.6c4,2.3,6.1,5.9,6.1,10.5c0,4.6-2.3,7.9-6.3,10c-0.8,0.4-1.7,0.8-2.3,1.1
		c3.3,4.8,6.6,9.6,10,14.4c1.7,2.4,3.5,4.6,6.8,4.8c0,1.3,0,2.4,0,3.8c-4.8,0-9.6,0.1-14.3-0.1c-0.6,0-1.4-1-1.8-1.7
		c-2.9-4.9-5.9-9.7-8.6-14.7c-1.8-3.2-4.4-4.5-8.1-4c0,4.6-0.3,9.2,0.1,13.8c0.3,3,3.4,2.6,5.8,2.9c0,1.1,0,2.3,0,3.6
		c-8.3,0-16.7,0-25.1,0c0-1.2,0-2.4,0-3.5c6.2-0.9,6.5-1.3,6.5-7.7c0-8,0-16,0-24.1c0-7.4-1.1-7-6.5-7.7c-0.1-1-0.1-2-0.2-3
		C549.6,36.5,561.3,36.5,573,36.5z M557,57.8c2.3-0.2,4.2-0.2,6.1-0.4c3.2-0.4,5-2.4,5.6-5.5c1.4-7.6-1-11.7-8.6-11.7
		c-0.6,0-1.2-0.3-1.6-0.1c-0.6,0.3-1.3,0.9-1.3,1.4C557,46.9,557,52.1,557,57.8z"/>
	<path class="st0" d="M741.1,36.5c3.1,1.5,6,3,7.7,6.2c3.1,5.8,1.2,12.5-4.6,15.7c-0.9,0.5-1.9,0.9-3.2,1.5
		c6.8,5.6,8.5,15.3,17.3,19.7c0,0.6,0,1.7,0,3.2c-4.7,0-9.3,0.1-14-0.1c-0.7,0-1.6-1-2.1-1.7c-3-4.9-5.9-9.9-8.8-14.9
		c-2.2-3.7-3.5-4.2-8.1-3.8c0,4.3-0.1,8.6,0,12.9c0.1,2,1.3,3.2,3.4,3.5c0.9,0.1,1.7,0.2,2.8,0.3c0,1.2,0,2.3,0,3.6
		c-8.3,0-16.6,0-25.1,0c0-1.2,0-2.4,0-3.5c6.1-1,6.3-1.2,6.3-7.6c0-8.2,0-16.4,0-24.6c0-6.2-0.1-6.4-6.3-7.4c0-1,0-2,0-3
		C718,36.5,729.6,36.5,741.1,36.5z M725.3,57.6c6.8,0.4,9.6-0.6,11.1-4c1.6-3.4,1-9-1.1-11.2c-1.9-2-7.3-2.9-10.1-1.7
		C725.3,46.2,725.3,51.8,725.3,57.6z"/>
	<path class="st0" d="M630.3,36.5c1.4,0.7,2.9,1.3,4.3,2c9.4,4.9,13.9,15.3,11.6,26.6c-1.9,9.5-10,16.6-20.3,17.1
		c-10,0.4-20,0.1-30.2,0.1c0-0.9,0-2.1,0-3.3c0.3-0.1,0.6-0.1,0.9-0.2c4.2-0.6,4.9-1.1,4.9-5.3c0.2-9.5,0.2-18.9,0-28.4
		c-0.1-4.4-0.6-4.7-5.9-5.6c0-1,0-2,0-3C607.2,36.5,618.8,36.5,630.3,36.5z M614,39.9c0,2.7,0,5.3,0,7.8c0,8.4,0,16.8,0,25.3
		c0,4.2,1.4,5.4,5.5,5.5c5.9,0,9.9-2.8,11.6-8.5c1.9-6.4,2.1-13,0.2-19.4C629.4,43.5,624.6,39,614,39.9z"/>
	<path class="st0" d="M297,36.5c0,3.7,0,7.5,0,11.3c-3.2,0.7-3.3,0.7-4.6-2.5c-1.5-3.7-4.1-5.6-8.1-5.4c-2.8,0.1-5.6,0-8.5,0
		c0,5.4,0,10.6,0,15.7c6.7,1.3,8.5,0.3,9.5-5.3c1.2,0,2.3,0,3.7,0c0,5.3,0,10.4,0,15.8c-1.2,0-2.3,0-3.5,0c-1.6-5.7-3.2-6.7-9.6-5.4
		c0,4.9-0.1,9.9,0.1,14.8c0,0.9,1.5,2.1,2.5,2.4c7.6,2.6,13.9-0.3,16.6-7.8c0.9-2.7,2.2-3.3,4.7-2.6c0,5,0,10,0,15.2
		c-14.4,0-28.6,0-42.9,0c0-1.1,0-2.3,0-3.5c0.1-0.1,0.3-0.2,0.4-0.2c5.2-0.5,5.8-1.2,5.8-6.4c0-8.3,0.1-16.5,0-24.8
		c-0.1-5.4,1.5-7.1-6.3-8.4c-0.1-0.9-0.1-1.9-0.2-2.8C270,36.5,283.5,36.5,297,36.5z"/>
	<path class="st0" d="M695.8,36.5c0,3.7,0,7.5,0,11.5c-1.8,0.2-3.7,0.6-4.6-2.4c-1.2-4-4.2-5.8-8.4-5.6c-2.7,0.2-5.4,0-8.3,0
		c0,5.4,0,10.5,0,15.6c5.5,1.9,8.4,0.3,9.6-5.2c1.2,0,2.5,0,3.8,0c0,5.3,0,10.4,0,15.7c-1.2,0-2.5,0-3.7,0c-1.5-5.7-2.9-6.6-9.5-5.5
		c0,5-0.2,10,0.2,15c0.1,0.9,2.1,2.3,3.3,2.5c9.5,1.2,12.8-0.5,16-8.6c0.3-0.7,0.5-1.4,0.7-2.1c1.2,0,2.4,0,3.7,0
		c0,5.1,0,10.1,0,15.2c-14.4,0-28.7,0-43,0c0-1.3,0-2.4,0-3.6c6.1-0.9,6.4-1.3,6.4-7.6c0-7.9,0-15.7,0-23.6c0-6.9,0-6.9-6.5-8.6
		c-0.1-0.9-0.1-1.9-0.2-2.8C668.9,36.5,682.3,36.5,695.8,36.5z"/>
	<path class="st0" d="M531.6,36.5c0,1,0,1.9,0,3.2c-5.5,0.5-5.9,4.4-5.9,8.8c0,6.7,0,13.3-0.3,20c-0.3,6.8-4.1,11.2-10.2,13.6
		c-6.9,2.7-13.8,2.4-20.5-0.7c-7-3.3-9-9.3-9-16.4c0-6,0-12,0-18c0-5.8-0.3-6.2-6-7.3c0-1,0-2,0-3c8.3,0,16.7,0,25,0
		c-0.2,1.1-0.3,2.1-0.5,3.2c-5,0.5-6,1-6,4.9c-0.1,8.4,0,16.8,0.4,25.2c0.2,4.6,3.6,7.8,8,8.7c7.9,1.6,14-3.2,14.4-11.5
		c0.3-6.3,0.1-12.7,0.1-19c0-5.7-1.2-7.2-6.8-8.4c0-1,0-2,0-3C520,36.5,525.8,36.5,531.6,36.5z"/>
	<path class="st0" d="M339.8,36.5c0,4.3,0,8.6,0,12.8c-3.8,0.9-3.8,0.8-5.1-2.3c-1.7-4-4.2-7.3-9-7.8c-2.7-0.3-5.1,1-6,3.1
		c-1,2.2-0.3,5,1.9,6.7c1.8,1.3,3.9,2.3,5.8,3.3c3,1.6,6.1,2.9,9,4.6c5.8,3.5,8.3,9.8,6.6,16.2c-1.5,5.7-7.6,10.4-13.8,10.6
		c-5.6,0.2-8.9-1-14.1-5.2c-0.4,1.2-0.8,2.2-1.2,3.4c-1.3,0-2.5,0-3.9,0c0-5.4,0-10.6,0-16c1.4,0,2.6,0,3.9,0c1,2.3,1.7,4.7,2.9,6.8
		c2,3.7,5.1,6,9.4,6.3c3.2,0.3,5.7-1.3,6.7-4c0.9-2.5,0-5.2-2.7-6.8c-3.1-1.9-6.3-3.4-9.5-5.2c-1.7-0.9-3.4-1.8-5-2.9
		c-7.9-5.5-7.9-16.7-0.2-22.4c0.6-0.4,1.2-0.8,1.7-1.3C324.7,36.5,332.3,36.5,339.8,36.5z"/>
	<path class="st0" d="M182.8,36.5c4.5,11.1,9,22.3,13.6,33.4c0.5,1.1,0.9,2.2,1.4,3.3c1.2,2.8,2.8,5.3,6.3,5.7c0,1.3,0,2.4,0,3.7
		c-7.7,0-15.4,0-23.2,0c0-1.2,0-2.4,0-3.5c5.2-1,5.1-1,3.3-6c-0.8-2.2-1.8-3.2-4.3-3c-3.1,0.3-6.3,0.1-9.4,0c-1.3,0-2.2,0.2-2.5,1.6
		c0,0.2-0.1,0.3-0.2,0.4c-1.9,4.9-1.5,5.8,3.7,6.8c0,1.1,0,2.3,0,3.6c-5.1,0-10.2,0-15.3,0c0-1.2,0-2.4,0-3.7
		c4.1-0.9,5.8-4.2,7.2-7.7c4.3-10.9,8.6-21.7,13-32.6c0.3-0.7,0.7-1.5,1-2.2C179.3,36.5,181,36.5,182.8,36.5z M170.4,65.8
		c3.8,0,7.2,0,10.9,0c-1.9-4.5-3.6-8.7-5.6-13.4C173.9,57.1,172.2,61.3,170.4,65.8z"/>
	<path class="st0" d="M155.8,36.5c0,4.2,0,8.3,0,12.4c-3.6,0.7-3.6,0.7-4.7-2.5c-1.8-5.7-5.1-7.3-12.7-6.1c0,0.8,0,1.7,0,2.5
		c0,9.7,0,19.4,0,29.1c0,5.7,0.7,6.5,6.6,6.9c0,1.1,0,2.3,0,3.6c-8.4,0-17,0-25.6,0c0-1.1,0-2.3,0-3.4c0.2-0.1,0.3-0.2,0.5-0.2
		c5.5-0.4,6.1-1.1,6.1-6.6c0-9.9,0-19.7,0-29.6c0-0.7,0-1.4,0-2.1c-7.6-2.2-11.4,0.2-13.3,8.5c-1.2,0.1-2.4,0.3-3.7,0.4
		c0-4.3,0-8.7,0-13C124.7,36.5,140.2,36.5,155.8,36.5z"/>
	<path class="st0" d="M233.4,36.5c-0.1,1-0.3,2-0.4,3c-0.2,0.1-0.3,0.2-0.5,0.2c-5.1,0.4-5.8,1.1-5.8,6.3c0,9.1,0,18.1,0,27.2
		c0,3.6,1.1,4.7,4.6,5.1c8.3,0.9,12.8-1.9,15.5-9.9c0.6-1.7,0.6-1.7,4-1.3c0,5.1,0,10.3,0,15.5c-14.3,0-28.4,0-42.7,0
		c0-1.2,0-2.4,0-3.7c0.8-0.1,1.5-0.1,2.2-0.2c2.8-0.5,3.8-1.4,3.9-4.3c0.1-4.5,0.1-9,0.1-13.5c0-4.7,0-9.3,0-14
		c0-6.1-0.3-6.5-6.3-7.5c0-1,0-2,0-3C216.4,36.5,224.9,36.5,233.4,36.5z"/>
	<path class="st0" d="M370.7,36.5c6.3,4.2,8.6,9.1,7,15.1c-1.9,7-9.2,10.6-17.2,8.6c-5.3-1.4-8.4-4.9-9.1-10.2
		c-0.7-5.3,1.6-10,6.2-12.6c0.4-0.2,0.8-0.5,1.1-0.8C362.6,36.5,366.7,36.5,370.7,36.5z M358.4,47.9c0.4,2.2,0.6,4.5,1.3,6.6
		c0.7,2.3,2.4,3.6,4.8,3.6c2.5,0,4.4-1.2,5.2-3.6c1.4-4.3,1.3-8.7-0.1-13c-0.8-2.3-2.6-3.4-5-3.5c-2.3-0.1-4.3,1.3-5,3.7
		C359,43.7,358.8,45.8,358.4,47.9z"/>
	<path class="st0" d="M402.5,36.5c0,1.9,0,3.8,0,6.1c-0.8-0.3-1.9-0.3-2-0.7c-1.4-4.4-4.9-3.6-8.3-3.5c0,2.6,0,5.1,0,7.7
		c1.9,0.4,3.5,0.7,4.1-1.9c0.1-0.3,0.8-0.8,1.2-0.7c0.4,0.1,0.9,0.7,0.9,1.1c0.1,2.3,0,4.6,0,7.7c-1-0.6-2-0.8-2.1-1.3
		c-0.4-2.6-2.1-2.4-4.2-2.1c0,2.4-0.1,4.8,0.1,7.1c0.1,0.7,1.2,1.2,1.8,1.9c0.5,0.5,1,1,1.6,1.5c-0.1,0.2-0.3,0.4-0.4,0.5
		c-4.2,0-8.3,0-13.3,0c0.8-0.9,1.2-1.8,1.8-1.9c1.5-0.4,2.1-1.4,2.1-2.8c0-4.7,0-9.5,0-14.2c0-1.5-0.4-2.6-2.2-2.9
		c-0.5-0.1-0.8-1.1-1.2-1.6C389,36.5,395.7,36.5,402.5,36.5z"/>
	<path class="st0" d="M540.1,89c0,4.6-0.2,9.1,0.1,13.7c0.1,1.3,1.8,2.6,2.8,3.8c-2.2,0-4.8,0-7.4,0c3.9-1.2,3.5-4.4,3.5-7.3
		c0-3.1,0-6.3,0-9.4c0-3.8,0-3.8-3.4-4.6c0-0.2,0-0.4,0-0.6c1.6,0,3.1,0.2,4.7,0c2.4-0.4,2.7,1.4,3.4,2.9c2.1,4.8,4.3,9.7,6.6,14.9
		c0.5-0.9,0.8-1.4,1.1-2c2-4.5,4-8.9,5.9-13.4c0.7-1.7,1.5-2.6,3.5-2.3c1.4,0.2,2.9,0,4.6,0.4c-5,0-3.8,3.5-3.9,6.2
		c-0.1,3.3-0.1,6.6,0,9.9c0,4.1,0.1,4.1,3.6,5.5c-3.4,0-6.9,0-11,0c4.1-1.4,4.1-1.4,4.1-5.3c0-4.2,0-8.4-0.5-12.8
		c-2.7,6.1-5.5,12.3-8.2,18.4c-0.2,0-0.5,0-0.7,0c-2.7-6-5.4-12-8.1-17.9C540.4,88.9,540.2,89,540.1,89z"/>
	<path class="st0" d="M459.3,106.5c3.6-0.4,3.1-3.1,3.1-5.5c0-3.6,0-7.2,0-10.8c0-2.3,0.6-5-3.1-5.4c3.2,0,6.4,0,9.6,0
		c-2,0.6-3.4,1.3-3.2,3.8c0.2,1.8,0,3.6,0,5.6c3.8,0,7.4,0,11.2,0c0-2.4,0.3-4.8-0.1-7.1c-0.2-0.9-1.9-1.5-2.9-2.3c3.1,0,6.4,0,10,0
		c-3.5,1.5-3.5,1.5-3.5,5.3c0,3.8,0,7.5,0,11.3c0,2.3-0.4,4.8,3.1,5c-3.3,0-6.6,0-10.5,0c4-1.5,4-1.5,4-5.5c0-1.7,0-3.3,0-5.1
		c-3.8,0-7.4,0-11.2,0c0,2.8-0.2,5.6,0.1,8.3c0.1,0.9,1.8,1.5,2.8,2.3C465.7,106.5,462.5,106.5,459.3,106.5z"/>
	<path class="st0" d="M233.6,106.1c-5,1.4-6.8,0.8-9.3-2.4c-1.6-2.1-3.1-4.3-4.8-6.3c-0.6-0.7-1.6-1.1-2.9-1.9c0,3.3-0.3,6,0.2,8.5
		c0.2,1,2,1.7,3,2.4c-3.1,0-6.5,0-9.9,0c4-0.2,3.3-3.2,3.4-5.6c0-3.8,0-7.5,0-11.3c0-2.2,0.2-4.6-3.6-4c0.4-0.6,0.6-0.9,0.7-0.9
		c4.1,0,8.3-0.3,12.4,0.1c3.1,0.3,4.8,2.5,4.9,5c0.1,2.5-1.3,4.4-4.2,5.4c-0.4,0.1-0.7,0.3-1.5,0.5
		C225.9,99.1,227.3,104.8,233.6,106.1z M216.5,95.2c2.6-0.3,5.5,0.4,6.6-2.3c0.7-1.7,0.6-4.2-0.3-5.8c-1.2-2.3-3.9-1.9-6.3-1.7
		C216.5,88.6,216.5,91.7,216.5,95.2z"/>
	<path class="st0" d="M185.8,95.8c4.1,3.4,5.6,9.1,11.6,10.3c-4.1,1.4-6.6,0.8-8.8-2c-1.7-2.2-3.3-4.5-5.1-6.7
		c-0.6-0.7-1.7-1.1-3-1.9c0,2.4,0,4.1,0,5.7c0,3.9,0,3.9,3.7,5.1c-3.4,0-6.9,0-10.3,0c0-0.1,0-0.4,0.1-0.4c2.7-0.1,3.3-1.7,3.2-4.2
		c-0.2-3.8,0-7.7,0-11.5c0-2.4,0.8-5.3-3.5-5.3c5.2-0.7,10.2-1.7,15,0.4c1.9,0.8,3,2.3,3,4.5c0,2.3-1.1,3.8-3,4.8
		C187.9,95.1,187.1,95.3,185.8,95.8z M180.6,85.3c0,3.3,0,6.5,0,9.8c2.4-0.1,4.9,0.3,6.5-1.9c1.3-1.9,1.3-4.2,0-6.1
		C185.5,84.9,183.1,85.2,180.6,85.3z"/>
	<path class="st0" d="M338.5,96.5c0,1.4,0,2.7,0,4.1c0,4.4,0,4.4,4.3,6c-4.1,0-7.5,0-11.5,0c3.8-1.6,3.8-1.6,3.8-5.5
		c0-3.8,0-7.5,0-11.3c0-3.6,0-3.6-3.2-4.6c3.1-1.6,12.6-1.2,15.4,0.7c3.3,2.2,3,7-0.7,8.9c-0.8,0.4-1.6,0.6-2.8,1.1
		c4.1,3.3,5.5,9,11.4,10.2c-3.1,1.5-6.3,0.9-8.2-1.5c-1.8-2.2-3.4-4.7-5.3-6.9c-0.7-0.8-1.8-1.3-2.6-1.9
		C338.9,96,338.7,96.3,338.5,96.5z M338.6,95.1c2.5-0.1,5.1,0.4,6.6-2.1c1.2-2,1.2-4.3-0.3-6.1c-1.6-2.1-4-1.9-6.3-1.6
		C338.6,88.7,338.6,91.8,338.6,95.1z"/>
	<path class="st0" d="M408.8,107.3c-2.1-5.7-4.3-11.5-6.7-17.9c-2.1,6.4-4,12.2-5.9,17.9c-0.2,0-0.4,0-0.7-0.1
		c-0.3-0.9-0.7-1.9-1-2.8c-1.6-5.1-3-10.1-4.7-15.1c-0.6-1.6-1.7-3.1-2.5-4.6c2.1,0,4.7,0,8.1,0c-3.8,1.3-2.4,3.5-1.8,5.5
		c1.1,3.6,2.2,7.3,3.6,11.6c2.1-6.2,3.9-11.8,5.7-17.4c0.3,0,0.6-0.1,0.9-0.1c2.1,5.5,4.1,11.1,6.5,17.3c0.5-1.7,0.9-2.8,1.2-3.9
		c0.8-2.8,1.6-5.7,2.4-8.5c0.6-1.9,0.5-3.5-1.7-4.5c1.9,0,3.8,0,5.7,0c-4,3.6-3.8,8.9-5.5,13.5c-1.1,2.9-1.8,5.9-2.7,8.9
		C409.3,107.3,409,107.3,408.8,107.3z"/>
	<path class="st0" d="M282.2,106.2c3.6-1,3.6-1,3.7-5.1c0-3.5,0-7.1,0-10.6c0-4.2,0-4.2-3.6-5.9c4.2,0,8.5-0.5,12.6-0.1
		c8.3,0.9,12.5,8.2,9.4,16c-1.2,3-3.3,5.2-6.4,5.6c-5.2,0.6-10.4,0.6-15.7,0.8C282.2,106.7,282.2,106.4,282.2,106.2z M289.2,85.5
		c0,6.1,0,12.1,0.1,18.1c0,0.7,0.8,1.8,1.4,1.9c2.9,0.5,5.8,0.5,8.1-1.7c3-2.8,3.6-9.8,1.3-14.2C298.2,86,294.6,84.6,289.2,85.5z"/>
	<path class="st0" d="M157.5,84.2c7.3,0,12.1,4.5,12.1,11.4c0,6.9-4.8,11.6-12,11.6c-7.2,0-12.1-4.8-12.1-11.8
		C145.5,88.6,150.3,84.2,157.5,84.2z M165.8,95.9c-0.3-1.6-0.4-3.7-1-5.5c-1.1-3.6-3.8-5.3-7.7-5.2c-3.6,0.1-6.4,2-7,5.6
		c-0.5,3.2-0.6,6.5,0,9.7c0.7,3.9,3.5,5.6,7.5,5.6c3.7,0,6.3-1.9,7.4-5.6C165.4,99.1,165.5,97.6,165.8,95.9z"/>
	<path class="st0" d="M637,84.2c7.3,0,12.1,4.6,12.1,11.5c0,6.8-5,11.6-12.1,11.5c-7.3,0-12-4.7-12-11.8
		C625,88.6,629.7,84.1,637,84.2z M628.6,95.6c0.2,1.6,0.3,3.1,0.7,4.5c1,4,3.5,5.9,7.6,5.9c3.8,0,6.4-1.9,7.5-5.8
		c0.9-3.2,0.9-6.5-0.1-9.7c-1.2-3.8-3.8-5.6-7.7-5.5c-3.7,0.1-6.3,2-7.3,5.8C629,92.4,628.9,94,628.6,95.6z"/>
	<path class="st0" d="M671.9,94.8c4.3,0.8,5.6,2.3,5.6,6c0,0.4,0,0.8,0,1.2c-0.2,3.5-0.1,3.7,3.2,2.5c-0.8,1.9-2.2,2.7-4.2,2.2
		c-1.9-0.5-2.5-1.9-2.3-3.7c0.2-1.5,0.6-3,0.5-4.5c-0.1-0.9-0.9-2.3-1.7-2.4c-0.7-0.1-2,0.8-2.5,1.6c-0.7,1.2-0.9,2.7-1.4,4.1
		c-0.8,2-1.1,3.8,1.7,4.6c-2.8,0-5.6,0-8.5,0c3.3-0.7,3.3-3.6,4.1-6c1.2-3.9,2.3-7.9,3.6-11.7c0.7-2,0.7-3.4-1.9-3.9
		c2.8,0,5.6,0,8.4,0c-4.3,1.4-3.3,5.7-4.8,8.5c0.2,0.2,0.4,0.3,0.6,0.5c1.9-2,3.7-4.1,5.7-5.9c1.4-1.3,3-2.3,4.7-3.3
		c0.7-0.4,1.7-0.5,2.5-0.4c0.6,0.1,1.1,0.8,1.4,1.4c0.1,0.3-0.4,1.3-0.6,1.3c-0.6,0-1.4-0.3-1.7-0.7c-1.1-1.4-2.1-0.6-2.9,0.1
		C678.3,89,675.3,91.7,671.9,94.8z"/>
	<path class="st0" d="M568.2,106c3.3,0.1,3.5-1.9,3.5-4.3c-0.1-4,0-8,0-12c0-2,0.4-4.3-2.7-4.8c5.1,0,10.3,0,15.7,0
		c0.1,1.6,0.3,3.4,0.5,5.2c-1.5-1.6-2.5-3.5-4.1-4.2c-1.6-0.7-3.8-0.2-5.9-0.2c0,2.9,0,5.7,0,8.5c3.7,0.8,4.6,0.4,5.9-2.6
		c0,2.4,0,4.7,0,7.3c-2-3.7-2.1-3.7-6-3.1c0,2.7-0.2,5.4,0.1,8c0.1,0.7,1.3,1.8,2.2,1.9c4.9,0.8,6.7-0.4,8.6-5.2
		c0.1-0.3,0.3-0.5,1.1-0.7c-0.1,2.1-0.2,4.1-0.4,6.2c0,0.3-0.7,0.7-1,0.7c-5.7,0-11.5,0-17.2,0C568.4,106.5,568.3,106.2,568.2,106z"
		/>
	<path class="st0" d="M325.8,84.9c0.2,1.7,0.3,3.4,0.5,5.3c-1.4-1.7-2.4-3.6-3.9-4.3c-1.7-0.8-3.9-0.3-6.1-0.4c0,3,0,5.9,0,8.7
		c3.6,0.9,4.3,0.5,6-3.1c0,2.8,0,5.2,0,7.8c-0.8-1.2-1.2-2.6-2.1-3c-1-0.5-2.5-0.3-3.9-0.3c0,3.1-0.1,5.9,0.1,8.8
		c0,0.5,0.8,1.2,1.4,1.4c3.9,1.3,7.6-0.4,9.1-4.3c0.2-0.6,0.5-1.1,0.8-1.6c0.2,0,0.4,0.1,0.6,0.1c-0.2,2.2-0.3,4.4-0.5,6.7
		c-6.2,0-12.2,0-18.2,0c3.4-0.5,3.2-3,3.2-5.3c0-4.2-0.1-8.3-0.1-12.5c0-1.9-0.3-3.4-2.6-3.8C315.2,84.9,320.4,84.9,325.8,84.9z"/>
	<path class="st0" d="M236.4,84.7c5.1,0,10.2,0,15.6,0c0.2,1.7,0.4,3.5,0.6,5.6c-1.5-1.7-2.5-3.8-4-4.4c-1.7-0.7-3.9-0.2-6.2-0.2
		c0,1.4,0,2.9,0,4.3c0,1.4,0,2.9,0,4.2c4.1,0.7,4.7,0.4,6.1-2.8c0,2.4,0,4.8,0,7.5c-0.7-1.2-1-2.6-1.9-3.1c-1-0.6-2.5-0.3-4-0.4
		c0,3.1-0.1,5.9,0.1,8.7c0,0.5,0.8,1.3,1.3,1.5c3.9,1.4,7.7-0.4,9.2-4.2c0.2-0.6,0.5-1.1,0.8-1.7c0.2,0,0.5,0.1,0.7,0.1
		c-0.2,2.2-0.3,4.4-0.5,6.7c-6.1,0-12.1,0-18.2,0c3.7-0.5,3.1-3.3,3.1-5.7c0-3.8,0-7.5,0-11.3C239.1,87.4,239.2,85.4,236.4,84.7z"/>
	<path class="st0" d="M131.5,95.3c0,3.1-0.3,5.7,0.1,8.2c0.2,1.1,1.8,2.1,2.6,2.9c-2.7,0-6.1,0-9.4,0c3.6-0.2,3.3-2.7,3.3-5.1
		c0-3.9,0-7.9,0-11.8c0-2.2,0.2-4.5-3.1-4.7c5.5,0,11.1,0,16.8,0c0,1.6,0,3.3,0,4.9c-1.2-1.3-2.3-3.3-3.8-4
		c-1.8-0.7-4.1-0.2-6.3-0.2c0,3,0,5.9,0,8.9c2.7,0.3,5,0.2,5.7-3.1c0,2.5,0,4.9,0,7.9c-0.7-1.5-1-2.9-1.9-3.4
		C134.6,95.4,133.1,95.6,131.5,95.3z"/>
	<path class="st0" d="M455.5,84.7c0,1.8,0,3.4,0,5.1c-1.1-1.5-1.9-3.4-3.3-4c-1.5-0.7-3.6-0.2-5.7-0.2c0,4.2,0,8.4,0,12.5
		c0,1.1,0,2.2,0,3.4c0,3.8,0,3.8,3.6,4.9c-3.5,0-7.1,0-11.1,0c4.1-1.4,4.1-1.4,4.1-5.7c0-5,0-9.9,0-14.8c-5-1.2-6.1-0.7-8.9,4.4
		c0-2.1,0-3.8,0-5.6C441.4,84.7,448.4,84.7,455.5,84.7z"/>
	<path class="st0" d="M622.2,84.7c0,1.8,0,3.4,0,5.1c-1.1-1.5-1.9-3.4-3.3-4c-1.5-0.7-3.6-0.2-5.6-0.2c0,6.2-0.1,12.3,0.1,18.3
		c0,0.9,2,1.7,2.9,2.4c-3.1,0-6.7,0-10.4,0c0.1-0.2,0.1-0.4,0.2-0.4c3.6-0.7,3.6-0.7,3.6-4.5c0-5.2,0-10.4,0-15.6
		c-4.9-1.3-6.2-0.7-8.9,4.3c0-2.1,0-3.8,0-5.6C607.9,84.7,614.9,84.7,622.2,84.7z"/>
	<path class="st0" d="M369.8,86.1c0.5-0.6,0.8-1.1,1.5-1.9c0,2.4,0,4.3,0,6.1c-0.1,0-0.3,0.1-0.4,0.1c-0.3-0.7-0.7-1.3-1-2
		c-1.1-2-2.7-3.6-5.1-3.3c-1.2,0.2-2.8,1.2-3.2,2.2c-0.3,1,0.3,3,1.2,3.7c2.1,1.5,4.6,2.6,6.9,3.8c2.1,1.1,3.4,2.6,3.6,5
		c0.2,2.5-0.3,4.7-2.6,6.1c-2.7,1.7-5.5,1.6-8.2,0.2c-0.7-0.3-1.3-0.9-2-1.4c-0.4,0.6-0.8,1.1-1.6,2c0-2.8,0-5.1,0-7.4
		c0.1-0.1,0.3-0.1,0.4-0.2c0.3,0.8,0.7,1.6,1,2.3c1.4,3.5,3.8,5.1,7,4.5c1.8-0.4,3-1.4,3.5-3.2c0.4-1.8-0.3-3.2-1.8-4.1
		c-2-1.2-4.3-1.9-6.2-3.2c-1.4-1-2.9-2.4-3.5-3.9c-0.9-2.2-0.4-4.5,1.6-6.1c2.2-1.7,4.6-1.6,7-0.6C368.5,85.1,369.1,85.6,369.8,86.1
		z"/>
	<path class="st0" d="M279.4,106.5c-2.4,0-5.2,0-8.7,0c3.5-1.4,3.2-1.3,2.3-4.4c-0.8-2.8-2.3-3.9-5.2-3.4c-0.5,0.1-1.1,0-1.7,0
		c-2.7,0-5.1,2.6-4.6,5.4c0.2,0.9,1.3,1.6,2.1,2.5c-2.1,0-4.1,0-6.4,0c4.8-4,5.3-10,7.9-15c1.2-2.3,2.1-4.8,3.3-7.8
		c0.6,1.2,1,1.9,1.4,2.6c2.2,5.1,4.2,10.2,6.5,15.3C277.1,103.3,278.4,104.8,279.4,106.5z M267.4,88.7c-1.3,3.2-2.4,6-3.6,8.8
		c2.5,0,4.8,0,7.3,0C269.8,94.5,268.7,91.8,267.4,88.7z"/>
	<path class="st0" d="M497.6,84.7c7.1,0,14.1,0,21.3,0c0,1.8,0,3.5,0,5.4c-3.4-5-3.4-5-8.9-4.4c0,6.1-0.1,12.3,0.1,18.4
		c0,0.8,2.1,1.6,3.1,2.4c-3.3,0-6.8,0-10.4,0c0.1-0.2,0.1-0.5,0.2-0.5c3.5-0.7,3.5-0.7,3.6-4.3c0-5.3,0-10.6,0-15.8
		c-5.5-1.2-6.6-0.7-8.9,4.6C497.6,88.2,497.6,86.6,497.6,84.7z"/>
	<path class="st0" d="M348.9,69.6c0.8-0.8,1.1-1.3,1.6-1.5c0.5-0.2,1.1-0.1,1.7-0.1c16.6,0,33.2,0,49.8,0c0.6,0,1.2-0.1,1.7,0.1
		c0.4,0.1,0.6,0.5,0.9,0.8c-0.3,0.3-0.5,0.6-0.9,0.8c-0.3,0.1-0.6,0-0.9,0c-17.3,0-34.7,0-52,0C350.4,69.8,350.1,69.7,348.9,69.6z"
		/>
	<path class="st0" d="M734.9,101.2c-0.5,1.6-1,3.2-1.6,4.7c-0.1,0.3-0.7,0.7-1.1,0.7c-5.5,0-11,0-16.7-0.3c3.9-0.4,4-3.6,4.8-6.1
		c1.2-3.9,2.3-7.8,3.6-11.7c0.6-1.8,0.7-3.2-1.7-3.7c2.9,0,5.8,0,8.8,0c-3.7,0.3-3.8,3.3-4.5,5.8c-1.2,4-2.5,8-3.6,12
		c-0.8,2.6-0.3,3,2.4,3.2c4.1,0.3,7.2-1.2,9-5.1C734.5,100.9,734.7,101.1,734.9,101.2z"/>
	<path class="st0" d="M715.2,101.2c-0.6,1.7-1,3.3-1.6,4.9c-0.1,0.3-0.7,0.6-1.1,0.6c-5.4,0-10.8,0-16.5-0.2
		c4.5-0.8,4.1-4.8,5.1-7.7c1.2-3.2,2-6.6,3-9.9c0.8-2.8,0.8-2.8-2.2-4.1c3.5,0,6.4,0,9.3,0c-4.2,0.5-3.9,4.2-4.8,7
		c-1.2,3.6-2.2,7.2-3.3,10.8c-0.8,2.7-0.4,3.1,2.5,3.3c3.7,0.3,6.6-0.9,8.5-4.2c0.1-0.2,0.3-0.3,0.5-0.5
		C714.7,101.1,714.8,101.2,715.2,101.2z"/>
	<path class="st0" d="M430.6,84.8c-3,0.2-3.3,2.1-3.3,4.4c0,4.2-0.1,8.5,0,12.7c0.1,3.3,0.2,3.3,3.3,4.5c-3.3,0-6.5,0-9.8,0
		c3.9-0.3,3.1-3.3,3.1-5.7c0-3.6,0-7.2,0-10.8c0-3.7,0-3.7-3.1-5.1C424,84.8,427.3,84.8,430.6,84.8z"/>
	<path class="st0" d="M532.2,106.5c-3.3,0-6.5,0-9.8,0c3.7-0.5,3.2-3.4,3.2-5.8c0.1-3.7,0.1-7.4,0-11.1c-0.1-3.6-0.2-3.6-3.3-4.8
		c3.3,0,6.5,0,9.8,0c-4.1,0.3-3.2,3.4-3.3,5.8c-0.1,3.8-0.1,7.5,0,11.3C529.1,105.3,529.2,105.3,532.2,106.5z"/>
	<path class="st0" d="M689.3,84.7c2.8,0,5.6,0,8.3,0c-3.2,0.7-3.3,3.5-4,5.8c-1.2,3.8-2.3,7.6-3.5,11.5c-0.9,3.1-0.9,3.1,2.1,4.4
		c-3,0-6.1,0-9.1,0c4-0.6,3.7-4.1,4.6-6.8c1.2-3.6,2.2-7.2,3.3-10.8C691.6,86.9,692,85.3,689.3,84.7z"/>
	<path class="st0" d="M739.8,100.3c-0.4-4.6-0.8-9.2-1-13.7c0-0.6,1-1.2,1.5-1.8c0.4,0.7,1.3,1.3,1.3,2c-0.2,4.5-0.6,9.1-0.9,13.6
		C740.4,100.3,740.1,100.3,739.8,100.3z"/>
	<path class="st0" d="M740.2,102.8c0.9,1.2,1.8,2,1.7,2.6c-0.1,0.7-1.1,1.7-1.7,1.7c-0.6,0-1.7-1-1.7-1.7
		C738.4,104.8,739.3,104,740.2,102.8z"/>
</g>
<g>
	<path class="st0" d="M45.2,2.6c1-0.6,2.1-1.1,3.3-1.5c1.7-0.5,3.4-0.9,5.1-1c1.7-0.2,3.4-0.1,5.1,0c4.1,0.2,8,0.9,11.3,3.4
		c2.7,1.9,5,4.4,6.8,7.3c1.6,2.4,2.7,5.1,3.6,7.8c0.2,0.7,0.5,1.4,0.5,2c-0.1,0.6-0.6,1.2-1,1.8c-1.2,1.6-2.9,2.3-4.9,2.3
		c-2.6,0.1-5.2,0-7.7-0.9c-1.6-0.6-3-1.5-4.2-2.7c-2.1-2-4.2-4.1-6.5-6c-1.2-1-2.7-1.6-4.4-1c-1.1,0.3-1.9,1.1-2.6,2.1
		c0.5-0.2,0.9-0.6,1.4-0.8c1.4-0.7,2.7-0.6,4,0.5c1,0.9,1.9,1.9,2.8,2.9c1.9,1.9,3.5,4.1,5.6,5.5c2.9,2.3,6.3,2.7,9.8,2.3
		c0.9-0.1,1.8-0.2,2.7-0.5c2.4-0.5,3.8-1.9,4.7-4.2c0.2,0.9-0.9,2.9-2.9,4.2c0.2,0.8,0.5,1.6,0.6,2.3c0.9-0.2,1.8-0.6,2.7-0.7
		c1.4-0.2,2.1,0.6,2.5,1.7c0.5,1.5,0.8,3,0.5,4.6c-0.2,1.1-0.2,2.4-0.3,3.5c-0.3,2.1-0.7,4.3-1.1,6.4c-1.6,6.7-3.5,13.2-5.8,19.5
		c-0.9,2.6-1.9,5.3-3,7.8c-0.9,1.8-2.3,3.4-3.5,5.1c-1.7,2.3-3.5,4.3-5.3,6.4c-0.9,1.1-1.9,2.3-2.9,3.5c4.5-9.3,5.4-19.1,5.3-28.9
		c-0.2,1.6-0.3,3.3-0.6,4.9c-0.3,2.6-0.6,5.2-1,7.8c-0.7,4.1-1.4,8-2.7,12c-0.7,1.9-1.6,3.7-2.4,5.5c-0.8,1.6-1.9,3-2.3,4.9
		c-0.5,1.7-0.2,3.5-0.3,5.3c0,0.5,0.3,0.8,0.9,1c0.9,0.3,1.9,0.8,2.8,1.2c0.6,0.2,1,0.2,1.6,0c3.7-1.7,7.5-3.4,11.4-4.4
		c0.1,0,0.2-0.1,0.5-0.1c1.6,0.1,2.6-0.8,3.6-1.8c3.3-3.2,5.9-6.9,7.7-11.1c1.4-3,2.3-6.2,2.7-9.4c0.5-2.7,0.8-5.5,0.8-8.4
		c0-1.8,0.1-3.6,0.1-5.4c0-15.8,0-31.5,0-47.4c0-0.3,0-0.6,0-1c-0.5,0-0.8,0-1.1,0c-1.9,0-3.7,0-5.5,0c-1.4,0-2.9-0.1-4.3-0.2
		c-0.2,0-0.6-0.2-0.7-0.5c-0.9-1.7-2-3.4-3.5-4.7c0,0,0-0.1,0-0.2c6.9,0.1,13.7,0.2,20.5,0.3c0,0.2,0,0.6,0,0.9
		c0,19.5,0,39.2-0.1,58.7c0,2.6-0.5,5.2-0.8,7.7c-0.3,3.2-1.2,6.3-2.4,9.4c-1.4,3.8-3.3,7.5-5.9,10.6c-1.4,1.6-2.8,3.2-4.3,4.7
		c-0.9,0.9-2,1.7-3,2.6c0.5,1.2,0.9,2.6,1.7,3.8c1.2,1.6,1.7,3.5,1.9,5.5c0.2,2.5-0.2,4.9-1.4,7c-0.7,1.2-1.6,2.4-2.6,3.5
		c1-6.2-0.9-11.5-4.3-16.6c-0.6,0.3-1.2,0.8-1.7,1c0.5,1.8,0.9,3.5,1.2,5.2c0.2,1,0.2,2,0.1,3c-0.2,1.7-0.5,3.4-0.9,5.1
		c-0.6,2-2.3,3.2-4.5,3.4c0.5-0.9,0.9-1.8,1.4-2.7c0.9-1.7,1.7-3.4,1.9-5.2c0.1-0.7,0-1.4-0.2-1.9c-0.5-1.4-4.6-8.1-5.6-9.1
		c-0.8,0.5-1.5,1-2.3,1.4c-1.1,0.5-1.4,1.2-1.4,2.4c0,0.8,0,1.7,0,2.5c0,0.6-0.2,1.2-0.1,1.9c0.2,2-0.2,4.2,0.7,6.1
		c0.6,1.4,1.6,2.6,2.4,3.8c0.2,0.5,0.7,0.8,0.9,1.2c-0.1,0.1-0.1,0.1-0.1,0.2c-1.6-0.5-3.2-0.9-4.7-1.4c0.1,1.7,0.3,3.4,0.3,5.2
		c-0.1,4.5-0.8,8.8-3,12.9c-0.6,1-1.4,2.1-2.1,3.3c-1-1-1.9-2-2.8-3c-0.9,1.7-2,3.3-3.8,4.3c-1.9,1-3.7,0.8-5.5-0.1
		c0-0.8,0-1.5,0-2.3c-0.1,0-0.2-0.1-0.3-0.1c-0.2,0.7-0.5,1.4-0.8,2c-1-0.5-2.1-1-3.2-1.6c2.3-2.9,3.2-6.4,3.8-9.9
		c-0.1-0.1-0.2-0.1-0.3-0.1c-1.2,3.2-2.4,6.3-3.7,9.6c-0.2-0.1-0.6,0-0.8-0.1c-0.6-0.2-0.9-0.6-0.9-1.4c0.1-2.4,0-4.6,0-7.1
		c-0.6,0.8-1.1,1.4-1.6,2c3.2-5.5,6.5-11,8.2-17.2c-1.6,3-3.2,6-4.9,9.1c-1.7,3.2-3.3,6.3-4.9,9.5c-0.3,0.6-0.6,0.6-1.1,0.2
		c-1.6-0.9-2.6-2.4-3.5-3.8c-1.2-2-2.4-4.1-3.6-6.2c-0.2-0.5-0.2-0.8,0.1-1.2c2-3.3,4.1-6.7,6.1-9.9c0.1-0.1,0.1-0.1,0.1-0.1
		c-0.6-0.7-1-0.6-1.6,0c-1.5,1-3.2,1.6-5.1,2c-0.2,0.1-0.5,0.1-0.9,0.2c0.5-0.7,0.9-1,1.2-1.6c0.9-1.4,1.7-2.7,2.4-4.2
		c0.2-0.6,0.3-1.2,0.3-1.9c0.1-1.9,0-3.8,0-5.8c0-1-0.1-2.1-0.1-3.2c-0.1-0.6-0.2-1-0.8-1.2c-0.9-0.5-1.9-1-2.9-1.7
		c-0.8,1-1.6,2.1-2.3,3.3c-1,1.8-2,3.7-3,5.5c-0.7,1.1-0.6,2.3-0.2,3.4c0.8,2.5,1.9,4.7,3.2,6.9c-2-0.1-4.1-1.2-4.6-3.4
		c-0.5-1.6-0.8-3.3-1-5c-0.5-3.5,0.7-6.3,1.6-9.3c0.2-0.9,0.8-1.7,0.9-2.6c0.1-0.5-0.2-1-0.6-1.6c-2.3,2.9-4.2,6-5.5,9.4
		c-1.4,3.4-1.5,7-0.9,10.8c-1.6-1.4-2.6-2.8-3.3-4.4c-0.8-1.8-1.1-3.7-0.9-5.6c0.2-2.3,0.8-4.3,2-6.1c0.2-0.2,0.5-0.6,0.6-0.9
		c0.5-0.8,0.5-1.2-0.2-2c-2.3-2.4-4.1-5-5.6-7.8c-2-3.6-3.4-7.5-4.2-11.4c-0.5-1.8-0.6-3.6-0.9-5.4C-0.1,66.5,0,61.9,0,57.5
		C0,40.5,0,23.7,0,6.8c0-0.3,0-0.7,0-1.1c5.5,0,11.1,0,16.7,0c-2.1,1.1-3.4,2.9-3.8,5.3c-2.5,0-5,0-7.5,0c0,0.3,0,0.7,0,1
		c0,17.4-0.1,34.9,0.1,52.3c0,4.7,0.7,9.5,2,14c1.2,4.2,3.2,8,5.9,11.3c0.1,0.1,0.1,0.2,0.2,0.5c1.5-0.6,2.9-0.1,4.3,0.3
		c3.6,1.2,7.2,2.7,10.8,4.1c0.2,0.1,0.5,0.2,0.6,0.1c1.6-0.8,3.2-1.5,4.7-2.1c-1.1-1.5-2.4-2.8-3.3-4.4c-1.4-2.3-2.5-4.6-3.7-6.9
		c-0.1-0.3-0.5-0.6-0.8-0.8c-2.3-14.1-2-28.1,2.6-41.9c-0.1,0-0.1-0.1-0.2-0.1c-0.8,2-1.6,4.1-2.1,6.1c-1.1,3.8-1.9,7.9-2.1,12
		c-0.2,3.8-0.5,7.8-0.1,11.7c0.2,4.1,1,8,1.7,12c0.1,0.5,0.1,0.7-0.5,0.8c-0.9,0.1-1.8,0.2-2.8,0.5c0.9-4-0.6-7.3-2-10.6
		c-1.7-3.7-3.5-7.3-5.3-11.2c-1.1-2.5-2.5-4.9-2.9-7.6c-0.5-2.3-0.8-4.5-0.9-6.9c-0.1-1.7-0.1-3.5,0-5.2c0.1-2.3,0.5-4.5,0.6-6.9
		c0.2-1.9,0.5-3.7,0.7-5.6s0.6-3.8,0.8-5.6c0.1-1.2,0.2-2.6,0.3-3.8c0.1-2.3,0.5-4.5,1-6.7c0.5-1.7,1.2-3,2.8-3.8
		c0.9-0.5,2-0.8,3-0.9c1.2-0.2,2.4-0.1,3.5-0.2c0.1,0,0.2,0,0.5-0.1c1.7-0.9,3.2-0.1,4.5,0.8c1,0.6,1.9,1.4,2.9,2
		c0.1-2.3,0.2-4.5,0.5-6.7c0.1,0,0.1,0,0.2-0.1c0.9,2.5,3,3.2,5.3,3.7c1.4,0.3,2.7,0.2,4.2-0.1c0.3-0.1,0.8-0.3,1-0.6
		c0.6-0.6,1-1.1,1.5-1.7C44.8,3,45.1,2.8,45.2,2.6z M64.6,32.9c-1.6-1.4-3.2-2.7-5-4.2c0.1,0.7,0,1.2,0.1,1.6c0.6,1.7,1,3.5,1.7,5.2
		c1.2,3.3,2.7,6.5,4.9,9.4c0.9,1.2,1.6,2.6,1.9,4.1c0.2,0.8,0.2,1.7,0.3,2.6c3.4-6.8,4.5-14.1,6-21.7c-1.5,0.8-2.7,1.6-4,2.3
		c-0.6-1-1-2-1.6-3.2C67.5,30.3,66.1,31.5,64.6,32.9z M36.7,108.2c1-2.1,2.3-4.3,3.2-6.4c0.5-0.9,0.8-2,0.5-3.2
		C40,97.8,39.5,97,39.2,96c-1.5,1.1-2.7,2-4.1,3c-0.5,0.3-0.7,0.7-0.8,1.2c-0.3,1.9-0.8,3.8-1.1,5.9
		C34.2,106.8,35.3,107.5,36.7,108.2z M51.7,86c-0.1,0-0.1,0-0.2,0c-0.1,3.5-0.2,7-0.3,10.4c-0.1,1.4-0.1,2.7-0.1,4.2
		c0,0.3,0.2,0.8,0.5,1c1.7,1.5,3.5,2.9,5.3,4.4c0.2,0.2,0.6,0.6,0.6,0.8c0,1.2-0.2,2.6-0.1,3.8c0.2,2.9,1.4,5.3,3.2,7.6
		c-0.1-0.2-0.1-0.5-0.2-0.6c-1.8-3.5-2.6-7.1-1.6-11c0.1-0.6-0.1-0.9-0.5-1.2c-1.8-1.5-3.6-2.9-5.4-4.5c-0.2-0.1-0.3-0.5-0.3-0.6
		c-0.1-3.2-0.2-6.2-0.3-9.4C51.8,89.4,51.7,87.7,51.7,86z M57.9,19.3c-0.9,1-1.8,1-2.6,0.5c-0.8-0.6-0.7-1.8,0.3-2.9
		c-0.3-0.3-0.8-0.6-1-0.9c-0.1-0.1-0.3-0.2-0.6-0.3c-0.8-0.5-1.9,0.2-1.7,1c0.6,4.2,4,5.8,7.5,4.7C59.1,20.8,58.5,20,57.9,19.3z
		 M33.1,83c-0.2,3.2,0.1,6.2,1.4,9.1C34.9,88.9,34.3,85.9,33.1,83z M52.6,138.8c1.8-1.9,0.2-6.3-1.4-8.1
		C51.7,133.3,53.2,135.8,52.6,138.8z M19.9,29.1c-3.2,5.9-2.5,12-1.9,18.2c0.1-0.5,0.1-0.9,0.1-1.2c-0.1-1.9-0.2-3.8-0.1-5.8
		c0.1-2,0.2-4.1,0.6-6C18.7,32.5,19.4,30.8,19.9,29.1z M41.4,17.5c-0.8,1-1.4,1.2-4.1,2c2.3,0,3.8-0.8,4.7-2.4
		c-1.9-0.1-3.8,0-5.6-0.9C37.7,17.4,39.5,17.4,41.4,17.5z M46.5,4.9c-0.1-0.1-0.1-0.1-0.1-0.1c-0.5,0.3-0.8,0.6-1.1,0.9
		c-1.5,1.4-2.9,2.6-5.1,2.9c-1.2,0.1-2.5,0.2-3.5,0.2c-0.1,0,0.1,0,0.2,0.1c2.4,0.5,4.7,0.2,6.8-1.4C44.7,6.7,45.6,5.7,46.5,4.9z
		 M75.8,44.6c-0.2,1.6-0.5,3-0.7,4.6c-0.2,1.6-0.7,3-1,4.6C75.1,50.8,76.3,47.8,75.8,44.6z M80.7,34c0.6,3-0.6,6-0.9,9
		C80.7,40.1,81.6,37.2,80.7,34z M75,61.3c0.9-2.3,1.5-4.5,1.4-7C75.9,56.6,75.4,58.9,75,61.3z M22.1,16C20,17,19,19,18,20.9
		C19.2,19.2,20.2,17.3,22.1,16z M62.3,6.7c1.8,1.4,4.2,1.7,5.9,3.4C66.7,8,64.4,7.7,62.3,6.7z M67.9,15.6c-1-2-3.5-1.8-5.2-2.9
		c0.9,0.6,1.8,1,2.7,1.5C66.2,14.6,67,15,67.9,15.6z M45.5,34.3c0.1,0,0.1,0,0.2,0c0.3-1.9,1.1-3.8,0.8-5.9
		C46.1,30.5,45.7,32.4,45.5,34.3z M66.1,4.1c-1.7-0.8-3.5-1.6-5.3-1C62.3,3.2,64.1,3.6,66.1,4.1z M21.1,11.3c1.7-0.5,3.5-0.8,5.2-1
		C24.5,10.1,22.7,10.3,21.1,11.3z M43.5,25.1c-0.7,1.7-2,2.7-3.4,3.8C41.8,28.1,43.1,27,43.5,25.1z M37.7,24.6
		c1.8-0.2,3.7-1.4,4-2.4c-0.6,0.5-1.2,0.9-1.9,1.4C39.2,24,38.5,24.3,37.7,24.6z M54.5,5.7c-0.1,0.1-0.1,0.2-0.1,0.2
		c1.5,0.6,3,1,4.5,1.6c0-0.1,0.1-0.2,0.1-0.2C57.5,6.7,56,6.1,54.5,5.7z M50.8,37.8c-0.5-1.6-0.8-2.9-1-4.3
		C49.7,35,49.9,36.4,50.8,37.8z M72.6,13c0.9,0.9,1.9,1.9,2.8,2.9C74.9,14.6,73.7,13.8,72.6,13z"/>
	<path class="st0" d="M45.2,2.6c-0.1,0.1-0.3,0.3-0.5,0.5c-0.2,0.1-0.5,0.1-0.7,0.2c-2,1.4-4.9,1.6-7.1,0.2c2.9-0.7,5.9-1.4,8.7-1.9
		C45.4,2,45.3,2.4,45.2,2.6z"/>
	<path class="st0" d="M30.9,4.5c0,0.9,0,1.7,0,2.7c-0.7-0.8-1.2-1.6-2-2.4C29.8,4.6,30.4,4.6,30.9,4.5z"/>
</g>
</svg>
